<?xml version="1.0" standalone="no"?>
<!DOCTYPE svg PUBLIC "-//W3C//DTD SVG 1.1//EN" "http://www.w3.org/Graphics/SVG/1.1/DTD/svg11.dtd">
<svg width="120" height="120" viewBox="-60 -60 120 120" xmlns="http://www.w3.org/2000/svg" version="1.1">
<title>OpenSCAD Model</title>
<path d="
M 60,-60 L -60,-60 L -60,60 L 60,60 z
M 29.8432,-48.5082 L 29.6881,-48.5328 L 29.5365,-48.5734 L 29.3899,-48.6297 L 29.25,-48.701 L 29.1183,-48.7865
 L 28.9963,-48.8853 L 28.8853,-48.9963 L 28.7865,-49.1183 L 28.701,-49.25 L 28.6297,-49.3899 L 28.5734,-49.5365
 L 28.5328,-49.6881 L 28.5082,-49.8432 L 28.5,-50 L 28.5082,-50.1568 L 28.5328,-50.3119 L 28.5734,-50.4635
 L 28.6297,-50.6101 L 28.701,-50.75 L 28.7865,-50.8817 L 28.8853,-51.0037 L 28.9963,-51.1147 L 29.1183,-51.2135
 L 29.25,-51.299 L 29.3899,-51.3703 L 29.5365,-51.4266 L 29.6881,-51.4672 L 29.8432,-51.4918 L 30,-51.5
 L 30.1568,-51.4918 L 30.3119,-51.4672 L 30.4635,-51.4266 L 30.6101,-51.3703 L 30.75,-51.299 L 30.8817,-51.2135
 L 31.0037,-51.1147 L 31.1147,-51.0037 L 31.2135,-50.8817 L 31.299,-50.75 L 31.3703,-50.6101 L 31.4266,-50.4635
 L 31.4672,-50.3119 L 31.4918,-50.1568 L 31.5,-50 L 31.4918,-49.8432 L 31.4672,-49.6881 L 31.4266,-49.5365
 L 31.3703,-49.3899 L 31.299,-49.25 L 31.2135,-49.1183 L 31.1147,-48.9963 L 31.0037,-48.8853 L 30.8817,-48.7865
 L 30.75,-48.701 L 30.6101,-48.6297 L 30.4635,-48.5734 L 30.3119,-48.5328 L 30.1568,-48.5082 L 30,-48.5
 z
M 9.8432,-48.5082 L 9.68813,-48.5328 L 9.53647,-48.5734 L 9.38989,-48.6297 L 9.25,-48.701 L 9.11832,-48.7865
 L 8.99629,-48.8853 L 8.88527,-48.9963 L 8.78647,-49.1183 L 8.70096,-49.25 L 8.62967,-49.3899 L 8.57341,-49.5365
 L 8.53278,-49.6881 L 8.50821,-49.8432 L 8.5,-50 L 8.50821,-50.1568 L 8.53278,-50.3119 L 8.57341,-50.4635
 L 8.62967,-50.6101 L 8.70096,-50.75 L 8.78647,-50.8817 L 8.88527,-51.0037 L 8.99629,-51.1147 L 9.11832,-51.2135
 L 9.25,-51.299 L 9.38989,-51.3703 L 9.53647,-51.4266 L 9.68813,-51.4672 L 9.8432,-51.4918 L 10,-51.5
 L 10.1568,-51.4918 L 10.3119,-51.4672 L 10.4635,-51.4266 L 10.6101,-51.3703 L 10.75,-51.299 L 10.8817,-51.2135
 L 11.0037,-51.1147 L 11.1147,-51.0037 L 11.2135,-50.8817 L 11.299,-50.75 L 11.3703,-50.6101 L 11.4266,-50.4635
 L 11.4672,-50.3119 L 11.4918,-50.1568 L 11.5,-50 L 11.4918,-49.8432 L 11.4672,-49.6881 L 11.4266,-49.5365
 L 11.3703,-49.3899 L 11.299,-49.25 L 11.2135,-49.1183 L 11.1147,-48.9963 L 11.0037,-48.8853 L 10.8817,-48.7865
 L 10.75,-48.701 L 10.6101,-48.6297 L 10.4635,-48.5734 L 10.3119,-48.5328 L 10.1568,-48.5082 L 10,-48.5
 z
M -10.1568,-48.5082 L -10.3119,-48.5328 L -10.4635,-48.5734 L -10.6101,-48.6297 L -10.75,-48.701 L -10.8817,-48.7865
 L -11.0037,-48.8853 L -11.1147,-48.9963 L -11.2135,-49.1183 L -11.299,-49.25 L -11.3703,-49.3899 L -11.4266,-49.5365
 L -11.4672,-49.6881 L -11.4918,-49.8432 L -11.5,-50 L -11.4918,-50.1568 L -11.4672,-50.3119 L -11.4266,-50.4635
 L -11.3703,-50.6101 L -11.299,-50.75 L -11.2135,-50.8817 L -11.1147,-51.0037 L -11.0037,-51.1147 L -10.8817,-51.2135
 L -10.75,-51.299 L -10.6101,-51.3703 L -10.4635,-51.4266 L -10.3119,-51.4672 L -10.1568,-51.4918 L -10,-51.5
 L -9.8432,-51.4918 L -9.68813,-51.4672 L -9.53647,-51.4266 L -9.38989,-51.3703 L -9.25,-51.299 L -9.11832,-51.2135
 L -8.99629,-51.1147 L -8.88527,-51.0037 L -8.78647,-50.8817 L -8.70096,-50.75 L -8.62967,-50.6101 L -8.57341,-50.4635
 L -8.53278,-50.3119 L -8.50821,-50.1568 L -8.5,-50 L -8.50821,-49.8432 L -8.53278,-49.6881 L -8.57341,-49.5365
 L -8.62967,-49.3899 L -8.70096,-49.25 L -8.78647,-49.1183 L -8.88527,-48.9963 L -8.99629,-48.8853 L -9.11832,-48.7865
 L -9.25,-48.701 L -9.38989,-48.6297 L -9.53647,-48.5734 L -9.68813,-48.5328 L -9.8432,-48.5082 L -10,-48.5
 z
M -30.1568,-48.5082 L -30.3119,-48.5328 L -30.4635,-48.5734 L -30.6101,-48.6297 L -30.75,-48.701 L -30.8817,-48.7865
 L -31.0037,-48.8853 L -31.1147,-48.9963 L -31.2135,-49.1183 L -31.299,-49.25 L -31.3703,-49.3899 L -31.4266,-49.5365
 L -31.4672,-49.6881 L -31.4918,-49.8432 L -31.5,-50 L -31.4918,-50.1568 L -31.4672,-50.3119 L -31.4266,-50.4635
 L -31.3703,-50.6101 L -31.299,-50.75 L -31.2135,-50.8817 L -31.1147,-51.0037 L -31.0037,-51.1147 L -30.8817,-51.2135
 L -30.75,-51.299 L -30.6101,-51.3703 L -30.4635,-51.4266 L -30.3119,-51.4672 L -30.1568,-51.4918 L -30,-51.5
 L -29.8432,-51.4918 L -29.6881,-51.4672 L -29.5365,-51.4266 L -29.3899,-51.3703 L -29.25,-51.299 L -29.1183,-51.2135
 L -28.9963,-51.1147 L -28.8853,-51.0037 L -28.7865,-50.8817 L -28.701,-50.75 L -28.6297,-50.6101 L -28.5734,-50.4635
 L -28.5328,-50.3119 L -28.5082,-50.1568 L -28.5,-50 L -28.5082,-49.8432 L -28.5328,-49.6881 L -28.5734,-49.5365
 L -28.6297,-49.3899 L -28.701,-49.25 L -28.7865,-49.1183 L -28.8853,-48.9963 L -28.9963,-48.8853 L -29.1183,-48.7865
 L -29.25,-48.701 L -29.3899,-48.6297 L -29.5365,-48.5734 L -29.6881,-48.5328 L -29.8432,-48.5082 L -30,-48.5
 z
M -40,40 L -40,-40 L 40,-40 L 40,40 z
M 49.8432,-28.5082 L 49.6881,-28.5328 L 49.5365,-28.5734 L 49.3899,-28.6297 L 49.25,-28.701 L 49.1183,-28.7865
 L 48.9963,-28.8853 L 48.8853,-28.9963 L 48.7865,-29.1183 L 48.701,-29.25 L 48.6297,-29.3899 L 48.5734,-29.5365
 L 48.5328,-29.6881 L 48.5082,-29.8432 L 48.5,-30 L 48.5082,-30.1568 L 48.5328,-30.3119 L 48.5734,-30.4635
 L 48.6297,-30.6101 L 48.701,-30.75 L 48.7865,-30.8817 L 48.8853,-31.0037 L 48.9963,-31.1147 L 49.1183,-31.2135
 L 49.25,-31.299 L 49.3899,-31.3703 L 49.5365,-31.4266 L 49.6881,-31.4672 L 49.8432,-31.4918 L 50,-31.5
 L 50.1568,-31.4918 L 50.3119,-31.4672 L 50.4635,-31.4266 L 50.6101,-31.3703 L 50.75,-31.299 L 50.8817,-31.2135
 L 51.0037,-31.1147 L 51.1147,-31.0037 L 51.2135,-30.8817 L 51.299,-30.75 L 51.3703,-30.6101 L 51.4266,-30.4635
 L 51.4672,-30.3119 L 51.4918,-30.1568 L 51.5,-30 L 51.4918,-29.8432 L 51.4672,-29.6881 L 51.4266,-29.5365
 L 51.3703,-29.3899 L 51.299,-29.25 L 51.2135,-29.1183 L 51.1147,-28.9963 L 51.0037,-28.8853 L 50.8817,-28.7865
 L 50.75,-28.701 L 50.6101,-28.6297 L 50.4635,-28.5734 L 50.3119,-28.5328 L 50.1568,-28.5082 L 50,-28.5
 z
M -50.1568,-28.5082 L -50.3119,-28.5328 L -50.4635,-28.5734 L -50.6101,-28.6297 L -50.75,-28.701 L -50.8817,-28.7865
 L -51.0037,-28.8853 L -51.1147,-28.9963 L -51.2135,-29.1183 L -51.299,-29.25 L -51.3703,-29.3899 L -51.4266,-29.5365
 L -51.4672,-29.6881 L -51.4918,-29.8432 L -51.5,-30 L -51.4918,-30.1568 L -51.4672,-30.3119 L -51.4266,-30.4635
 L -51.3703,-30.6101 L -51.299,-30.75 L -51.2135,-30.8817 L -51.1147,-31.0037 L -51.0037,-31.1147 L -50.8817,-31.2135
 L -50.75,-31.299 L -50.6101,-31.3703 L -50.4635,-31.4266 L -50.3119,-31.4672 L -50.1568,-31.4918 L -50,-31.5
 L -49.8432,-31.4918 L -49.6881,-31.4672 L -49.5365,-31.4266 L -49.3899,-31.3703 L -49.25,-31.299 L -49.1183,-31.2135
 L -48.9963,-31.1147 L -48.8853,-31.0037 L -48.7865,-30.8817 L -48.701,-30.75 L -48.6297,-30.6101 L -48.5734,-30.4635
 L -48.5328,-30.3119 L -48.5082,-30.1568 L -48.5,-30 L -48.5082,-29.8432 L -48.5328,-29.6881 L -48.5734,-29.5365
 L -48.6297,-29.3899 L -48.701,-29.25 L -48.7865,-29.1183 L -48.8853,-28.9963 L -48.9963,-28.8853 L -49.1183,-28.7865
 L -49.25,-28.701 L -49.3899,-28.6297 L -49.5365,-28.5734 L -49.6881,-28.5328 L -49.8432,-28.5082 L -50,-28.5
 z
M -50.1568,-8.50821 L -50.3119,-8.53278 L -50.4635,-8.57341 L -50.6101,-8.62967 L -50.75,-8.70096 L -50.8817,-8.78647
 L -51.0037,-8.88527 L -51.1147,-8.99629 L -51.2135,-9.11832 L -51.299,-9.25 L -51.3703,-9.38989 L -51.4266,-9.53647
 L -51.4672,-9.68813 L -51.4918,-9.8432 L -51.5,-10 L -51.4918,-10.1568 L -51.4672,-10.3119 L -51.4266,-10.4635
 L -51.3703,-10.6101 L -51.299,-10.75 L -51.2135,-10.8817 L -51.1147,-11.0037 L -51.0037,-11.1147 L -50.8817,-11.2135
 L -50.75,-11.299 L -50.6101,-11.3703 L -50.4635,-11.4266 L -50.3119,-11.4672 L -50.1568,-11.4918 L -50,-11.5
 L -49.8432,-11.4918 L -49.6881,-11.4672 L -49.5365,-11.4266 L -49.3899,-11.3703 L -49.25,-11.299 L -49.1183,-11.2135
 L -48.9963,-11.1147 L -48.8853,-11.0037 L -48.7865,-10.8817 L -48.701,-10.75 L -48.6297,-10.6101 L -48.5734,-10.4635
 L -48.5328,-10.3119 L -48.5082,-10.1568 L -48.5,-10 L -48.5082,-9.8432 L -48.5328,-9.68813 L -48.5734,-9.53647
 L -48.6297,-9.38989 L -48.701,-9.25 L -48.7865,-9.11832 L -48.8853,-8.99629 L -48.9963,-8.88527 L -49.1183,-8.78647
 L -49.25,-8.70096 L -49.3899,-8.62967 L -49.5365,-8.57341 L -49.6881,-8.53278 L -49.8432,-8.50821 L -50,-8.5
 z
M 49.8432,-8.50821 L 49.6881,-8.53278 L 49.5365,-8.57341 L 49.3899,-8.62967 L 49.25,-8.70096 L 49.1183,-8.78647
 L 48.9963,-8.88527 L 48.8853,-8.99629 L 48.7865,-9.11832 L 48.701,-9.25 L 48.6297,-9.38989 L 48.5734,-9.53647
 L 48.5328,-9.68813 L 48.5082,-9.8432 L 48.5,-10 L 48.5082,-10.1568 L 48.5328,-10.3119 L 48.5734,-10.4635
 L 48.6297,-10.6101 L 48.701,-10.75 L 48.7865,-10.8817 L 48.8853,-11.0037 L 48.9963,-11.1147 L 49.1183,-11.2135
 L 49.25,-11.299 L 49.3899,-11.3703 L 49.5365,-11.4266 L 49.6881,-11.4672 L 49.8432,-11.4918 L 50,-11.5
 L 50.1568,-11.4918 L 50.3119,-11.4672 L 50.4635,-11.4266 L 50.6101,-11.3703 L 50.75,-11.299 L 50.8817,-11.2135
 L 51.0037,-11.1147 L 51.1147,-11.0037 L 51.2135,-10.8817 L 51.299,-10.75 L 51.3703,-10.6101 L 51.4266,-10.4635
 L 51.4672,-10.3119 L 51.4918,-10.1568 L 51.5,-10 L 51.4918,-9.8432 L 51.4672,-9.68813 L 51.4266,-9.53647
 L 51.3703,-9.38989 L 51.299,-9.25 L 51.2135,-9.11832 L 51.1147,-8.99629 L 51.0037,-8.88527 L 50.8817,-8.78647
 L 50.75,-8.70096 L 50.6101,-8.62967 L 50.4635,-8.57341 L 50.3119,-8.53278 L 50.1568,-8.50821 L 50,-8.5
 z
M -50.1568,11.4918 L -50.3119,11.4672 L -50.4635,11.4266 L -50.6101,11.3703 L -50.75,11.299 L -50.8817,11.2135
 L -51.0037,11.1147 L -51.1147,11.0037 L -51.2135,10.8817 L -51.299,10.75 L -51.3703,10.6101 L -51.4266,10.4635
 L -51.4672,10.3119 L -51.4918,10.1568 L -51.5,10 L -51.4918,9.8432 L -51.4672,9.68813 L -51.4266,9.53647
 L -51.3703,9.38989 L -51.299,9.25 L -51.2135,9.11832 L -51.1147,8.99629 L -51.0037,8.88527 L -50.8817,8.78647
 L -50.75,8.70096 L -50.6101,8.62967 L -50.4635,8.57341 L -50.3119,8.53278 L -50.1568,8.50821 L -50,8.5
 L -49.8432,8.50821 L -49.6881,8.53278 L -49.5365,8.57341 L -49.3899,8.62967 L -49.25,8.70096 L -49.1183,8.78647
 L -48.9963,8.88527 L -48.8853,8.99629 L -48.7865,9.11832 L -48.701,9.25 L -48.6297,9.38989 L -48.5734,9.53647
 L -48.5328,9.68813 L -48.5082,9.8432 L -48.5,10 L -48.5082,10.1568 L -48.5328,10.3119 L -48.5734,10.4635
 L -48.6297,10.6101 L -48.701,10.75 L -48.7865,10.8817 L -48.8853,11.0037 L -48.9963,11.1147 L -49.1183,11.2135
 L -49.25,11.299 L -49.3899,11.3703 L -49.5365,11.4266 L -49.6881,11.4672 L -49.8432,11.4918 L -50,11.5
 z
M 49.8432,11.4918 L 49.6881,11.4672 L 49.5365,11.4266 L 49.3899,11.3703 L 49.25,11.299 L 49.1183,11.2135
 L 48.9963,11.1147 L 48.8853,11.0037 L 48.7865,10.8817 L 48.701,10.75 L 48.6297,10.6101 L 48.5734,10.4635
 L 48.5328,10.3119 L 48.5082,10.1568 L 48.5,10 L 48.5082,9.8432 L 48.5328,9.68813 L 48.5734,9.53647
 L 48.6297,9.38989 L 48.701,9.25 L 48.7865,9.11832 L 48.8853,8.99629 L 48.9963,8.88527 L 49.1183,8.78647
 L 49.25,8.70096 L 49.3899,8.62967 L 49.5365,8.57341 L 49.6881,8.53278 L 49.8432,8.50821 L 50,8.5
 L 50.1568,8.50821 L 50.3119,8.53278 L 50.4635,8.57341 L 50.6101,8.62967 L 50.75,8.70096 L 50.8817,8.78647
 L 51.0037,8.88527 L 51.1147,8.99629 L 51.2135,9.11832 L 51.299,9.25 L 51.3703,9.38989 L 51.4266,9.53647
 L 51.4672,9.68813 L 51.4918,9.8432 L 51.5,10 L 51.4918,10.1568 L 51.4672,10.3119 L 51.4266,10.4635
 L 51.3703,10.6101 L 51.299,10.75 L 51.2135,10.8817 L 51.1147,11.0037 L 51.0037,11.1147 L 50.8817,11.2135
 L 50.75,11.299 L 50.6101,11.3703 L 50.4635,11.4266 L 50.3119,11.4672 L 50.1568,11.4918 L 50,11.5
 z
M -50.1568,31.4918 L -50.3119,31.4672 L -50.4635,31.4266 L -50.6101,31.3703 L -50.75,31.299 L -50.8817,31.2135
 L -51.0037,31.1147 L -51.1147,31.0037 L -51.2135,30.8817 L -51.299,30.75 L -51.3703,30.6101 L -51.4266,30.4635
 L -51.4672,30.3119 L -51.4918,30.1568 L -51.5,30 L -51.4918,29.8432 L -51.4672,29.6881 L -51.4266,29.5365
 L -51.3703,29.3899 L -51.299,29.25 L -51.2135,29.1183 L -51.1147,28.9963 L -51.0037,28.8853 L -50.8817,28.7865
 L -50.75,28.701 L -50.6101,28.6297 L -50.4635,28.5734 L -50.3119,28.5328 L -50.1568,28.5082 L -50,28.5
 L -49.8432,28.5082 L -49.6881,28.5328 L -49.5365,28.5734 L -49.3899,28.6297 L -49.25,28.701 L -49.1183,28.7865
 L -48.9963,28.8853 L -48.8853,28.9963 L -48.7865,29.1183 L -48.701,29.25 L -48.6297,29.3899 L -48.5734,29.5365
 L -48.5328,29.6881 L -48.5082,29.8432 L -48.5,30 L -48.5082,30.1568 L -48.5328,30.3119 L -48.5734,30.4635
 L -48.6297,30.6101 L -48.701,30.75 L -48.7865,30.8817 L -48.8853,31.0037 L -48.9963,31.1147 L -49.1183,31.2135
 L -49.25,31.299 L -49.3899,31.3703 L -49.5365,31.4266 L -49.6881,31.4672 L -49.8432,31.4918 L -50,31.5
 z
M 49.8432,31.4918 L 49.6881,31.4672 L 49.5365,31.4266 L 49.3899,31.3703 L 49.25,31.299 L 49.1183,31.2135
 L 48.9963,31.1147 L 48.8853,31.0037 L 48.7865,30.8817 L 48.701,30.75 L 48.6297,30.6101 L 48.5734,30.4635
 L 48.5328,30.3119 L 48.5082,30.1568 L 48.5,30 L 48.5082,29.8432 L 48.5328,29.6881 L 48.5734,29.5365
 L 48.6297,29.3899 L 48.701,29.25 L 48.7865,29.1183 L 48.8853,28.9963 L 48.9963,28.8853 L 49.1183,28.7865
 L 49.25,28.701 L 49.3899,28.6297 L 49.5365,28.5734 L 49.6881,28.5328 L 49.8432,28.5082 L 50,28.5
 L 50.1568,28.5082 L 50.3119,28.5328 L 50.4635,28.5734 L 50.6101,28.6297 L 50.75,28.701 L 50.8817,28.7865
 L 51.0037,28.8853 L 51.1147,28.9963 L 51.2135,29.1183 L 51.299,29.25 L 51.3703,29.3899 L 51.4266,29.5365
 L 51.4672,29.6881 L 51.4918,29.8432 L 51.5,30 L 51.4918,30.1568 L 51.4672,30.3119 L 51.4266,30.4635
 L 51.3703,30.6101 L 51.299,30.75 L 51.2135,30.8817 L 51.1147,31.0037 L 51.0037,31.1147 L 50.8817,31.2135
 L 50.75,31.299 L 50.6101,31.3703 L 50.4635,31.4266 L 50.3119,31.4672 L 50.1568,31.4918 L 50,31.5
 z
M -30.1568,51.4918 L -30.3119,51.4672 L -30.4635,51.4266 L -30.6101,51.3703 L -30.75,51.299 L -30.8817,51.2135
 L -31.0037,51.1147 L -31.1147,51.0037 L -31.2135,50.8817 L -31.299,50.75 L -31.3703,50.6101 L -31.4266,50.4635
 L -31.4672,50.3119 L -31.4918,50.1568 L -31.5,50 L -31.4918,49.8432 L -31.4672,49.6881 L -31.4266,49.5365
 L -31.3703,49.3899 L -31.299,49.25 L -31.2135,49.1183 L -31.1147,48.9963 L -31.0037,48.8853 L -30.8817,48.7865
 L -30.75,48.701 L -30.6101,48.6297 L -30.4635,48.5734 L -30.3119,48.5328 L -30.1568,48.5082 L -30,48.5
 L -29.8432,48.5082 L -29.6881,48.5328 L -29.5365,48.5734 L -29.3899,48.6297 L -29.25,48.701 L -29.1183,48.7865
 L -28.9963,48.8853 L -28.8853,48.9963 L -28.7865,49.1183 L -28.701,49.25 L -28.6297,49.3899 L -28.5734,49.5365
 L -28.5328,49.6881 L -28.5082,49.8432 L -28.5,50 L -28.5082,50.1568 L -28.5328,50.3119 L -28.5734,50.4635
 L -28.6297,50.6101 L -28.701,50.75 L -28.7865,50.8817 L -28.8853,51.0037 L -28.9963,51.1147 L -29.1183,51.2135
 L -29.25,51.299 L -29.3899,51.3703 L -29.5365,51.4266 L -29.6881,51.4672 L -29.8432,51.4918 L -30,51.5
 z
M 9.8432,51.4918 L 9.68813,51.4672 L 9.53647,51.4266 L 9.38989,51.3703 L 9.25,51.299 L 9.11832,51.2135
 L 8.99629,51.1147 L 8.88527,51.0037 L 8.78647,50.8817 L 8.70096,50.75 L 8.62967,50.6101 L 8.57341,50.4635
 L 8.53278,50.3119 L 8.50821,50.1568 L 8.5,50 L 8.50821,49.8432 L 8.53278,49.6881 L 8.57341,49.5365
 L 8.62967,49.3899 L 8.70096,49.25 L 8.78647,49.1183 L 8.88527,48.9963 L 8.99629,48.8853 L 9.11832,48.7865
 L 9.25,48.701 L 9.38989,48.6297 L 9.53647,48.5734 L 9.68813,48.5328 L 9.8432,48.5082 L 10,48.5
 L 10.1568,48.5082 L 10.3119,48.5328 L 10.4635,48.5734 L 10.6101,48.6297 L 10.75,48.701 L 10.8817,48.7865
 L 11.0037,48.8853 L 11.1147,48.9963 L 11.2135,49.1183 L 11.299,49.25 L 11.3703,49.3899 L 11.4266,49.5365
 L 11.4672,49.6881 L 11.4918,49.8432 L 11.5,50 L 11.4918,50.1568 L 11.4672,50.3119 L 11.4266,50.4635
 L 11.3703,50.6101 L 11.299,50.75 L 11.2135,50.8817 L 11.1147,51.0037 L 11.0037,51.1147 L 10.8817,51.2135
 L 10.75,51.299 L 10.6101,51.3703 L 10.4635,51.4266 L 10.3119,51.4672 L 10.1568,51.4918 L 10,51.5
 z
M 29.8432,51.4918 L 29.6881,51.4672 L 29.5365,51.4266 L 29.3899,51.3703 L 29.25,51.299 L 29.1183,51.2135
 L 28.9963,51.1147 L 28.8853,51.0037 L 28.7865,50.8817 L 28.701,50.75 L 28.6297,50.6101 L 28.5734,50.4635
 L 28.5328,50.3119 L 28.5082,50.1568 L 28.5,50 L 28.5082,49.8432 L 28.5328,49.6881 L 28.5734,49.5365
 L 28.6297,49.3899 L 28.701,49.25 L 28.7865,49.1183 L 28.8853,48.9963 L 28.9963,48.8853 L 29.1183,48.7865
 L 29.25,48.701 L 29.3899,48.6297 L 29.5365,48.5734 L 29.6881,48.5328 L 29.8432,48.5082 L 30,48.5
 L 30.1568,48.5082 L 30.3119,48.5328 L 30.4635,48.5734 L 30.6101,48.6297 L 30.75,48.701 L 30.8817,48.7865
 L 31.0037,48.8853 L 31.1147,48.9963 L 31.2135,49.1183 L 31.299,49.25 L 31.3703,49.3899 L 31.4266,49.5365
 L 31.4672,49.6881 L 31.4918,49.8432 L 31.5,50 L 31.4918,50.1568 L 31.4672,50.3119 L 31.4266,50.4635
 L 31.3703,50.6101 L 31.299,50.75 L 31.2135,50.8817 L 31.1147,51.0037 L 31.0037,51.1147 L 30.8817,51.2135
 L 30.75,51.299 L 30.6101,51.3703 L 30.4635,51.4266 L 30.3119,51.4672 L 30.1568,51.4918 L 30,51.5
 z
M -10.1568,51.4918 L -10.3119,51.4672 L -10.4635,51.4266 L -10.6101,51.3703 L -10.75,51.299 L -10.8817,51.2135
 L -11.0037,51.1147 L -11.1147,51.0037 L -11.2135,50.8817 L -11.299,50.75 L -11.3703,50.6101 L -11.4266,50.4635
 L -11.4672,50.3119 L -11.4918,50.1568 L -11.5,50 L -11.4918,49.8432 L -11.4672,49.6881 L -11.4266,49.5365
 L -11.3703,49.3899 L -11.299,49.25 L -11.2135,49.1183 L -11.1147,48.9963 L -11.0037,48.8853 L -10.8817,48.7865
 L -10.75,48.701 L -10.6101,48.6297 L -10.4635,48.5734 L -10.3119,48.5328 L -10.1568,48.5082 L -10,48.5
 L -9.8432,48.5082 L -9.68813,48.5328 L -9.53647,48.5734 L -9.38989,48.6297 L -9.25,48.701 L -9.11832,48.7865
 L -8.99629,48.8853 L -8.88527,48.9963 L -8.78647,49.1183 L -8.70096,49.25 L -8.62967,49.3899 L -8.57341,49.5365
 L -8.53278,49.6881 L -8.50821,49.8432 L -8.5,50 L -8.50821,50.1568 L -8.53278,50.3119 L -8.57341,50.4635
 L -8.62967,50.6101 L -8.70096,50.75 L -8.78647,50.8817 L -8.88527,51.0037 L -8.99629,51.1147 L -9.11832,51.2135
 L -9.25,51.299 L -9.38989,51.3703 L -9.53647,51.4266 L -9.68813,51.4672 L -9.8432,51.4918 L -10,51.5
 z
" stroke="black" fill="lightgray" stroke-width="0.5"/></svg>
