<?xml version="1.0" standalone="no"?>
<!DOCTYPE svg PUBLIC "-//W3C//DTD SVG 1.1//EN" "http://www.w3.org/Graphics/SVG/1.1/DTD/svg11.dtd">
<svg width="120" height="120" viewBox="-60 -60 120 120" xmlns="http://www.w3.org/2000/svg" version="1.1">
<title>OpenSCAD Model</title>
<path d="
M 60,-60 L -60,-60 L -60,60 L 60,60 z
M -10.2613,-27.5137 L -10.5198,-27.5546 L -10.7725,-27.6223 L -11.0168,-27.7161 L -11.25,-27.8349 L -11.4695,-27.9774
 L -11.6728,-28.1421 L -11.8578,-28.3272 L -12.0225,-28.5305 L -12.1651,-28.75 L -12.2839,-28.9832 L -12.3776,-29.2274
 L -12.4454,-29.4802 L -12.4863,-29.7387 L -12.5,-30 L -12.4863,-30.2613 L -12.4454,-30.5198 L -12.3776,-30.7725
 L -12.2839,-31.0168 L -12.1651,-31.25 L -12.0225,-31.4695 L -11.8578,-31.6728 L -11.6728,-31.8578 L -11.4695,-32.0225
 L -11.25,-32.1651 L -11.0168,-32.2839 L -10.7725,-32.3776 L -10.5198,-32.4454 L -10.2613,-32.4863 L -10,-32.5
 L -9.73868,-32.4863 L -9.48021,-32.4454 L -9.22745,-32.3776 L -8.98315,-32.2839 L -8.75,-32.1651 L -8.53053,-32.0225
 L -8.32716,-31.8578 L -8.14214,-31.6728 L -7.97745,-31.4695 L -7.83493,-31.25 L -7.71613,-31.0168 L -7.62234,-30.7725
 L -7.55463,-30.5198 L -7.51369,-30.2613 L -7.5,-30 L -7.51369,-29.7387 L -7.55463,-29.4802 L -7.62234,-29.2274
 L -7.71613,-28.9832 L -7.83493,-28.75 L -7.97745,-28.5305 L -8.14214,-28.3272 L -8.32716,-28.1421 L -8.53053,-27.9774
 L -8.75,-27.8349 L -8.98315,-27.7161 L -9.22745,-27.6223 L -9.48021,-27.5546 L -9.73868,-27.5137 L -10,-27.5
 z
M -30.2613,-27.5137 L -30.5198,-27.5546 L -30.7725,-27.6223 L -31.0168,-27.7161 L -31.25,-27.8349 L -31.4695,-27.9774
 L -31.6728,-28.1421 L -31.8578,-28.3272 L -32.0225,-28.5305 L -32.1651,-28.75 L -32.2839,-28.9832 L -32.3776,-29.2274
 L -32.4454,-29.4802 L -32.4863,-29.7387 L -32.5,-30 L -32.4863,-30.2613 L -32.4454,-30.5198 L -32.3776,-30.7725
 L -32.2839,-31.0168 L -32.1651,-31.25 L -32.0225,-31.4695 L -31.8578,-31.6728 L -31.6728,-31.8578 L -31.4695,-32.0225
 L -31.25,-32.1651 L -31.0168,-32.2839 L -30.7725,-32.3776 L -30.5198,-32.4454 L -30.2613,-32.4863 L -30,-32.5
 L -29.7387,-32.4863 L -29.4802,-32.4454 L -29.2274,-32.3776 L -28.9832,-32.2839 L -28.75,-32.1651 L -28.5305,-32.0225
 L -28.3272,-31.8578 L -28.1421,-31.6728 L -27.9774,-31.4695 L -27.8349,-31.25 L -27.7161,-31.0168 L -27.6223,-30.7725
 L -27.5546,-30.5198 L -27.5137,-30.2613 L -27.5,-30 L -27.5137,-29.7387 L -27.5546,-29.4802 L -27.6223,-29.2274
 L -27.7161,-28.9832 L -27.8349,-28.75 L -27.9774,-28.5305 L -28.1421,-28.3272 L -28.3272,-28.1421 L -28.5305,-27.9774
 L -28.75,-27.8349 L -28.9832,-27.7161 L -29.2274,-27.6223 L -29.4802,-27.5546 L -29.7387,-27.5137 L -30,-27.5
 z
M 29.7387,-27.5137 L 29.4802,-27.5546 L 29.2274,-27.6223 L 28.9832,-27.7161 L 28.75,-27.8349 L 28.5305,-27.9774
 L 28.3272,-28.1421 L 28.1421,-28.3272 L 27.9774,-28.5305 L 27.8349,-28.75 L 27.7161,-28.9832 L 27.6223,-29.2274
 L 27.5546,-29.4802 L 27.5137,-29.7387 L 27.5,-30 L 27.5137,-30.2613 L 27.5546,-30.5198 L 27.6223,-30.7725
 L 27.7161,-31.0168 L 27.8349,-31.25 L 27.9774,-31.4695 L 28.1421,-31.6728 L 28.3272,-31.8578 L 28.5305,-32.0225
 L 28.75,-32.1651 L 28.9832,-32.2839 L 29.2274,-32.3776 L 29.4802,-32.4454 L 29.7387,-32.4863 L 30,-32.5
 L 30.2613,-32.4863 L 30.5198,-32.4454 L 30.7725,-32.3776 L 31.0168,-32.2839 L 31.25,-32.1651 L 31.4695,-32.0225
 L 31.6728,-31.8578 L 31.8578,-31.6728 L 32.0225,-31.4695 L 32.1651,-31.25 L 32.2839,-31.0168 L 32.3776,-30.7725
 L 32.4454,-30.5198 L 32.4863,-30.2613 L 32.5,-30 L 32.4863,-29.7387 L 32.4454,-29.4802 L 32.3776,-29.2274
 L 32.2839,-28.9832 L 32.1651,-28.75 L 32.0225,-28.5305 L 31.8578,-28.3272 L 31.6728,-28.1421 L 31.4695,-27.9774
 L 31.25,-27.8349 L 31.0168,-27.7161 L 30.7725,-27.6223 L 30.5198,-27.5546 L 30.2613,-27.5137 L 30,-27.5
 z
M 9.73868,-27.5137 L 9.48021,-27.5546 L 9.22745,-27.6223 L 8.98315,-27.7161 L 8.74998,-27.8349 L 8.53053,-27.9774
 L 8.32716,-28.1421 L 8.14214,-28.3272 L 7.97745,-28.5305 L 7.83493,-28.75 L 7.71613,-28.9832 L 7.62234,-29.2274
 L 7.55463,-29.4802 L 7.51369,-29.7387 L 7.5,-30 L 7.51369,-30.2613 L 7.55463,-30.5198 L 7.62234,-30.7725
 L 7.71613,-31.0168 L 7.83493,-31.25 L 7.97745,-31.4695 L 8.14214,-31.6728 L 8.32716,-31.8578 L 8.53053,-32.0225
 L 8.75,-32.1651 L 8.98315,-32.2839 L 9.22745,-32.3776 L 9.48021,-32.4454 L 9.73868,-32.4863 L 10,-32.5
 L 10.2613,-32.4863 L 10.5198,-32.4454 L 10.7725,-32.3776 L 11.0168,-32.2839 L 11.25,-32.1651 L 11.4695,-32.0225
 L 11.6728,-31.8578 L 11.8578,-31.6728 L 12.0225,-31.4695 L 12.1651,-31.25 L 12.2839,-31.0168 L 12.3776,-30.7725
 L 12.4454,-30.5198 L 12.4863,-30.2613 L 12.5,-30 L 12.4863,-29.7387 L 12.4454,-29.4802 L 12.3776,-29.2274
 L 12.2839,-28.9832 L 12.1651,-28.75 L 12.0225,-28.5305 L 11.8578,-28.3272 L 11.6728,-28.1421 L 11.4695,-27.9774
 L 11.25,-27.8349 L 11.0168,-27.7161 L 10.7725,-27.6223 L 10.5198,-27.5546 L 10.2613,-27.5137 L 10,-27.5
 z
M -10.2613,-7.51369 L -10.5198,-7.55463 L -10.7725,-7.62234 L -11.0168,-7.71613 L -11.25,-7.83493 L -11.4695,-7.97745
 L -11.6728,-8.14214 L -11.8578,-8.32716 L -12.0225,-8.53053 L -12.1651,-8.75 L -12.2839,-8.98315 L -12.3776,-9.22745
 L -12.4454,-9.48021 L -12.4863,-9.73868 L -12.5,-10 L -12.4863,-10.2613 L -12.4454,-10.5198 L -12.3776,-10.7725
 L -12.2839,-11.0168 L -12.1651,-11.25 L -12.0225,-11.4695 L -11.8578,-11.6728 L -11.6728,-11.8578 L -11.4695,-12.0225
 L -11.25,-12.1651 L -11.0168,-12.2839 L -10.7725,-12.3776 L -10.5198,-12.4454 L -10.2613,-12.4863 L -10,-12.5
 L -9.73868,-12.4863 L -9.48021,-12.4454 L -9.22745,-12.3776 L -8.98315,-12.2839 L -8.75,-12.1651 L -8.53053,-12.0225
 L -8.32716,-11.8578 L -8.14214,-11.6728 L -7.97745,-11.4695 L -7.83493,-11.25 L -7.71613,-11.0168 L -7.62234,-10.7725
 L -7.55463,-10.5198 L -7.51369,-10.2613 L -7.5,-10 L -7.51369,-9.73868 L -7.55463,-9.48021 L -7.62234,-9.22745
 L -7.71613,-8.98315 L -7.83493,-8.75 L -7.97745,-8.53053 L -8.14214,-8.32716 L -8.32716,-8.14214 L -8.53053,-7.97745
 L -8.75,-7.83493 L -8.98315,-7.71613 L -9.22745,-7.62234 L -9.48021,-7.55463 L -9.73868,-7.51369 L -10,-7.5
 z
M -30.2613,-7.51369 L -30.5198,-7.55463 L -30.7725,-7.62234 L -31.0168,-7.71613 L -31.25,-7.83493 L -31.4695,-7.97745
 L -31.6728,-8.14214 L -31.8578,-8.32716 L -32.0225,-8.53053 L -32.1651,-8.75 L -32.2839,-8.98315 L -32.3776,-9.22745
 L -32.4454,-9.48021 L -32.4863,-9.73868 L -32.5,-10 L -32.4863,-10.2613 L -32.4454,-10.5198 L -32.3776,-10.7725
 L -32.2839,-11.0168 L -32.1651,-11.25 L -32.0225,-11.4695 L -31.8578,-11.6728 L -31.6728,-11.8578 L -31.4695,-12.0225
 L -31.25,-12.1651 L -31.0168,-12.2839 L -30.7725,-12.3776 L -30.5198,-12.4454 L -30.2613,-12.4863 L -30,-12.5
 L -29.7387,-12.4863 L -29.4802,-12.4454 L -29.2274,-12.3776 L -28.9832,-12.2839 L -28.75,-12.1651 L -28.5305,-12.0225
 L -28.3272,-11.8578 L -28.1421,-11.6728 L -27.9774,-11.4695 L -27.8349,-11.25 L -27.7161,-11.0168 L -27.6223,-10.7725
 L -27.5546,-10.5198 L -27.5137,-10.2613 L -27.5,-10 L -27.5137,-9.73868 L -27.5546,-9.48021 L -27.6223,-9.22745
 L -27.7161,-8.98315 L -27.8349,-8.75 L -27.9774,-8.53053 L -28.1421,-8.32716 L -28.3272,-8.14214 L -28.5305,-7.97745
 L -28.75,-7.83493 L -28.9832,-7.71613 L -29.2274,-7.62234 L -29.4802,-7.55463 L -29.7387,-7.51369 L -30,-7.5
 z
M 9.73868,-7.51369 L 9.48021,-7.55463 L 9.22745,-7.62234 L 8.98315,-7.71613 L 8.74998,-7.83493 L 8.53053,-7.97745
 L 8.32716,-8.14214 L 8.14214,-8.32716 L 7.97745,-8.53053 L 7.83493,-8.75 L 7.71613,-8.98315 L 7.62234,-9.22745
 L 7.55463,-9.48021 L 7.51369,-9.73868 L 7.5,-10 L 7.51369,-10.2613 L 7.55463,-10.5198 L 7.62234,-10.7725
 L 7.71613,-11.0168 L 7.83493,-11.25 L 7.97745,-11.4695 L 8.14214,-11.6728 L 8.32716,-11.8578 L 8.53053,-12.0225
 L 8.75,-12.1651 L 8.98315,-12.2839 L 9.22745,-12.3776 L 9.48021,-12.4454 L 9.73868,-12.4863 L 10,-12.5
 L 10.2613,-12.4863 L 10.5198,-12.4454 L 10.7725,-12.3776 L 11.0168,-12.2839 L 11.25,-12.1651 L 11.4695,-12.0225
 L 11.6728,-11.8578 L 11.8578,-11.6728 L 12.0225,-11.4695 L 12.1651,-11.25 L 12.2839,-11.0168 L 12.3776,-10.7725
 L 12.4454,-10.5198 L 12.4863,-10.2613 L 12.5,-10 L 12.4863,-9.73868 L 12.4454,-9.48021 L 12.3776,-9.22745
 L 12.2839,-8.98315 L 12.1651,-8.75 L 12.0225,-8.53053 L 11.8578,-8.32716 L 11.6728,-8.14214 L 11.4695,-7.97745
 L 11.25,-7.83493 L 11.0168,-7.71613 L 10.7725,-7.62234 L 10.5198,-7.55463 L 10.2613,-7.51369 L 10,-7.5
 z
M 29.7387,-7.51369 L 29.4802,-7.55463 L 29.2274,-7.62234 L 28.9832,-7.71613 L 28.75,-7.83493 L 28.5305,-7.97745
 L 28.3272,-8.14214 L 28.1421,-8.32716 L 27.9774,-8.53053 L 27.8349,-8.75 L 27.7161,-8.98315 L 27.6223,-9.22745
 L 27.5546,-9.48021 L 27.5137,-9.73868 L 27.5,-10 L 27.5137,-10.2613 L 27.5546,-10.5198 L 27.6223,-10.7725
 L 27.7161,-11.0168 L 27.8349,-11.25 L 27.9774,-11.4695 L 28.1421,-11.6728 L 28.3272,-11.8578 L 28.5305,-12.0225
 L 28.75,-12.1651 L 28.9832,-12.2839 L 29.2274,-12.3776 L 29.4802,-12.4454 L 29.7387,-12.4863 L 30,-12.5
 L 30.2613,-12.4863 L 30.5198,-12.4454 L 30.7725,-12.3776 L 31.0168,-12.2839 L 31.25,-12.1651 L 31.4695,-12.0225
 L 31.6728,-11.8578 L 31.8578,-11.6728 L 32.0225,-11.4695 L 32.1651,-11.25 L 32.2839,-11.0168 L 32.3776,-10.7725
 L 32.4454,-10.5198 L 32.4863,-10.2613 L 32.5,-10 L 32.4863,-9.73868 L 32.4454,-9.48021 L 32.3776,-9.22745
 L 32.2839,-8.98315 L 32.1651,-8.75 L 32.0225,-8.53053 L 31.8578,-8.32716 L 31.6728,-8.14214 L 31.4695,-7.97745
 L 31.25,-7.83493 L 31.0168,-7.71613 L 30.7725,-7.62234 L 30.5198,-7.55463 L 30.2613,-7.51369 L 30,-7.5
 z
M 29.7387,12.4863 L 29.4802,12.4454 L 29.2274,12.3776 L 28.9832,12.2839 L 28.75,12.1651 L 28.5305,12.0225
 L 28.3272,11.8578 L 28.1421,11.6728 L 27.9774,11.4695 L 27.8349,11.25 L 27.7161,11.0168 L 27.6223,10.7725
 L 27.5546,10.5198 L 27.5137,10.2613 L 27.5,9.99998 L 27.5137,9.73868 L 27.5546,9.48021 L 27.6223,9.22745
 L 27.7161,8.98315 L 27.8349,8.75 L 27.9774,8.53053 L 28.1421,8.32716 L 28.3272,8.14214 L 28.5305,7.97745
 L 28.75,7.83493 L 28.9832,7.71613 L 29.2274,7.62234 L 29.4802,7.55463 L 29.7387,7.51369 L 30,7.5
 L 30.2613,7.51369 L 30.5198,7.55463 L 30.7725,7.62234 L 31.0168,7.71613 L 31.25,7.83493 L 31.4695,7.97745
 L 31.6728,8.14214 L 31.8578,8.32716 L 32.0225,8.53053 L 32.1651,8.75 L 32.2839,8.98315 L 32.3776,9.22745
 L 32.4454,9.48021 L 32.4863,9.73868 L 32.5,10 L 32.4863,10.2613 L 32.4454,10.5198 L 32.3776,10.7725
 L 32.2839,11.0168 L 32.1651,11.25 L 32.0225,11.4695 L 31.8578,11.6728 L 31.6728,11.8578 L 31.4695,12.0225
 L 31.25,12.1651 L 31.0168,12.2839 L 30.7725,12.3776 L 30.5198,12.4454 L 30.2613,12.4863 L 30,12.5
 z
M 9.73868,12.4863 L 9.48021,12.4454 L 9.22745,12.3776 L 8.98315,12.2839 L 8.74998,12.1651 L 8.53053,12.0225
 L 8.32716,11.8578 L 8.14214,11.6728 L 7.97745,11.4695 L 7.83493,11.25 L 7.71613,11.0168 L 7.62234,10.7725
 L 7.55463,10.5198 L 7.51369,10.2613 L 7.5,9.99998 L 7.51369,9.73868 L 7.55463,9.48021 L 7.62234,9.22745
 L 7.71613,8.98315 L 7.83493,8.75 L 7.97745,8.53053 L 8.14214,8.32716 L 8.32716,8.14214 L 8.53053,7.97745
 L 8.75,7.83493 L 8.98315,7.71613 L 9.22745,7.62234 L 9.48021,7.55463 L 9.73868,7.51369 L 10,7.5
 L 10.2613,7.51369 L 10.5198,7.55463 L 10.7725,7.62234 L 11.0168,7.71613 L 11.25,7.83493 L 11.4695,7.97745
 L 11.6728,8.14214 L 11.8578,8.32716 L 12.0225,8.53053 L 12.1651,8.75 L 12.2839,8.98315 L 12.3776,9.22745
 L 12.4454,9.48021 L 12.4863,9.73868 L 12.5,10 L 12.4863,10.2613 L 12.4454,10.5198 L 12.3776,10.7725
 L 12.2839,11.0168 L 12.1651,11.25 L 12.0225,11.4695 L 11.8578,11.6728 L 11.6728,11.8578 L 11.4695,12.0225
 L 11.25,12.1651 L 11.0168,12.2839 L 10.7725,12.3776 L 10.5198,12.4454 L 10.2613,12.4863 L 10,12.5
 z
M -10.2613,12.4863 L -10.5198,12.4454 L -10.7725,12.3776 L -11.0168,12.2839 L -11.25,12.1651 L -11.4695,12.0225
 L -11.6728,11.8578 L -11.8578,11.6728 L -12.0225,11.4695 L -12.1651,11.25 L -12.2839,11.0168 L -12.3776,10.7725
 L -12.4454,10.5198 L -12.4863,10.2613 L -12.5,9.99998 L -12.4863,9.73868 L -12.4454,9.48021 L -12.3776,9.22745
 L -12.2839,8.98315 L -12.1651,8.75 L -12.0225,8.53053 L -11.8578,8.32716 L -11.6728,8.14214 L -11.4695,7.97745
 L -11.25,7.83493 L -11.0168,7.71613 L -10.7725,7.62234 L -10.5198,7.55463 L -10.2613,7.51369 L -10,7.5
 L -9.73868,7.51369 L -9.48021,7.55463 L -9.22745,7.62234 L -8.98315,7.71613 L -8.75,7.83493 L -8.53053,7.97745
 L -8.32716,8.14214 L -8.14214,8.32716 L -7.97745,8.53053 L -7.83493,8.75 L -7.71613,8.98315 L -7.62234,9.22745
 L -7.55463,9.48021 L -7.51369,9.73868 L -7.5,10 L -7.51369,10.2613 L -7.55463,10.5198 L -7.62234,10.7725
 L -7.71613,11.0168 L -7.83493,11.25 L -7.97745,11.4695 L -8.14214,11.6728 L -8.32716,11.8578 L -8.53053,12.0225
 L -8.75,12.1651 L -8.98315,12.2839 L -9.22745,12.3776 L -9.48021,12.4454 L -9.73868,12.4863 L -10,12.5
 z
M -30.2613,12.4863 L -30.5198,12.4454 L -30.7725,12.3776 L -31.0168,12.2839 L -31.25,12.1651 L -31.4695,12.0225
 L -31.6728,11.8578 L -31.8578,11.6728 L -32.0225,11.4695 L -32.1651,11.25 L -32.2839,11.0168 L -32.3776,10.7725
 L -32.4454,10.5198 L -32.4863,10.2613 L -32.5,9.99998 L -32.4863,9.73868 L -32.4454,9.48021 L -32.3776,9.22745
 L -32.2839,8.98315 L -32.1651,8.75 L -32.0225,8.53053 L -31.8578,8.32716 L -31.6728,8.14214 L -31.4695,7.97745
 L -31.25,7.83493 L -31.0168,7.71613 L -30.7725,7.62234 L -30.5198,7.55463 L -30.2613,7.51369 L -30,7.5
 L -29.7387,7.51369 L -29.4802,7.55463 L -29.2274,7.62234 L -28.9832,7.71613 L -28.75,7.83493 L -28.5305,7.97745
 L -28.3272,8.14214 L -28.1421,8.32716 L -27.9774,8.53053 L -27.8349,8.75 L -27.7161,8.98315 L -27.6223,9.22745
 L -27.5546,9.48021 L -27.5137,9.73868 L -27.5,10 L -27.5137,10.2613 L -27.5546,10.5198 L -27.6223,10.7725
 L -27.7161,11.0168 L -27.8349,11.25 L -27.9774,11.4695 L -28.1421,11.6728 L -28.3272,11.8578 L -28.5305,12.0225
 L -28.75,12.1651 L -28.9832,12.2839 L -29.2274,12.3776 L -29.4802,12.4454 L -29.7387,12.4863 L -30,12.5
 z
M -30.2613,32.4863 L -30.5198,32.4454 L -30.7725,32.3776 L -31.0168,32.2839 L -31.25,32.1651 L -31.4695,32.0225
 L -31.6728,31.8578 L -31.8578,31.6728 L -32.0225,31.4695 L -32.1651,31.25 L -32.2839,31.0168 L -32.3776,30.7725
 L -32.4454,30.5198 L -32.4863,30.2613 L -32.5,30 L -32.4863,29.7387 L -32.4454,29.4802 L -32.3776,29.2274
 L -32.2839,28.9832 L -32.1651,28.75 L -32.0225,28.5305 L -31.8578,28.3272 L -31.6728,28.1421 L -31.4695,27.9774
 L -31.25,27.8349 L -31.0168,27.7161 L -30.7725,27.6223 L -30.5198,27.5546 L -30.2613,27.5137 L -30,27.5
 L -29.7387,27.5137 L -29.4802,27.5546 L -29.2274,27.6223 L -28.9832,27.7161 L -28.75,27.8349 L -28.5305,27.9774
 L -28.3272,28.1421 L -28.1421,28.3272 L -27.9774,28.5305 L -27.8349,28.75 L -27.7161,28.9832 L -27.6223,29.2274
 L -27.5546,29.4802 L -27.5137,29.7387 L -27.5,30 L -27.5137,30.2613 L -27.5546,30.5198 L -27.6223,30.7725
 L -27.7161,31.0168 L -27.8349,31.25 L -27.9774,31.4695 L -28.1421,31.6728 L -28.3272,31.8578 L -28.5305,32.0225
 L -28.75,32.1651 L -28.9832,32.2839 L -29.2274,32.3776 L -29.4802,32.4454 L -29.7387,32.4863 L -30,32.5
 z
M -10.2613,32.4863 L -10.5198,32.4454 L -10.7725,32.3776 L -11.0168,32.2839 L -11.25,32.1651 L -11.4695,32.0225
 L -11.6728,31.8578 L -11.8578,31.6728 L -12.0225,31.4695 L -12.1651,31.25 L -12.2839,31.0168 L -12.3776,30.7725
 L -12.4454,30.5198 L -12.4863,30.2613 L -12.5,30 L -12.4863,29.7387 L -12.4454,29.4802 L -12.3776,29.2274
 L -12.2839,28.9832 L -12.1651,28.75 L -12.0225,28.5305 L -11.8578,28.3272 L -11.6728,28.1421 L -11.4695,27.9774
 L -11.25,27.8349 L -11.0168,27.7161 L -10.7725,27.6223 L -10.5198,27.5546 L -10.2613,27.5137 L -10,27.5
 L -9.73868,27.5137 L -9.48021,27.5546 L -9.22745,27.6223 L -8.98315,27.7161 L -8.75,27.8349 L -8.53053,27.9774
 L -8.32716,28.1421 L -8.14214,28.3272 L -7.97745,28.5305 L -7.83493,28.75 L -7.71613,28.9832 L -7.62234,29.2274
 L -7.55463,29.4802 L -7.51369,29.7387 L -7.5,30 L -7.51369,30.2613 L -7.55463,30.5198 L -7.62234,30.7725
 L -7.71613,31.0168 L -7.83493,31.25 L -7.97745,31.4695 L -8.14214,31.6728 L -8.32716,31.8578 L -8.53053,32.0225
 L -8.75,32.1651 L -8.98315,32.2839 L -9.22745,32.3776 L -9.48021,32.4454 L -9.73868,32.4863 L -10,32.5
 z
M 9.73868,32.4863 L 9.48021,32.4454 L 9.22745,32.3776 L 8.98315,32.2839 L 8.74998,32.1651 L 8.53053,32.0225
 L 8.32716,31.8578 L 8.14214,31.6728 L 7.97745,31.4695 L 7.83493,31.25 L 7.71613,31.0168 L 7.62234,30.7725
 L 7.55463,30.5198 L 7.51369,30.2613 L 7.5,30 L 7.51369,29.7387 L 7.55463,29.4802 L 7.62234,29.2274
 L 7.71613,28.9832 L 7.83493,28.75 L 7.97745,28.5305 L 8.14214,28.3272 L 8.32716,28.1421 L 8.53053,27.9774
 L 8.75,27.8349 L 8.98315,27.7161 L 9.22745,27.6223 L 9.48021,27.5546 L 9.73868,27.5137 L 10,27.5
 L 10.2613,27.5137 L 10.5198,27.5546 L 10.7725,27.6223 L 11.0168,27.7161 L 11.25,27.8349 L 11.4695,27.9774
 L 11.6728,28.1421 L 11.8578,28.3272 L 12.0225,28.5305 L 12.1651,28.75 L 12.2839,28.9832 L 12.3776,29.2274
 L 12.4454,29.4802 L 12.4863,29.7387 L 12.5,30 L 12.4863,30.2613 L 12.4454,30.5198 L 12.3776,30.7725
 L 12.2839,31.0168 L 12.1651,31.25 L 12.0225,31.4695 L 11.8578,31.6728 L 11.6728,31.8578 L 11.4695,32.0225
 L 11.25,32.1651 L 11.0168,32.2839 L 10.7725,32.3776 L 10.5198,32.4454 L 10.2613,32.4863 L 10,32.5
 z
M 29.7387,32.4863 L 29.4802,32.4454 L 29.2274,32.3776 L 28.9832,32.2839 L 28.75,32.1651 L 28.5305,32.0225
 L 28.3272,31.8578 L 28.1421,31.6728 L 27.9774,31.4695 L 27.8349,31.25 L 27.7161,31.0168 L 27.6223,30.7725
 L 27.5546,30.5198 L 27.5137,30.2613 L 27.5,30 L 27.5137,29.7387 L 27.5546,29.4802 L 27.6223,29.2274
 L 27.7161,28.9832 L 27.8349,28.75 L 27.9774,28.5305 L 28.1421,28.3272 L 28.3272,28.1421 L 28.5305,27.9774
 L 28.75,27.8349 L 28.9832,27.7161 L 29.2274,27.6223 L 29.4802,27.5546 L 29.7387,27.5137 L 30,27.5
 L 30.2613,27.5137 L 30.5198,27.5546 L 30.7725,27.6223 L 31.0168,27.7161 L 31.25,27.8349 L 31.4695,27.9774
 L 31.6728,28.1421 L 31.8578,28.3272 L 32.0225,28.5305 L 32.1651,28.75 L 32.2839,28.9832 L 32.3776,29.2274
 L 32.4454,29.4802 L 32.4863,29.7387 L 32.5,30 L 32.4863,30.2613 L 32.4454,30.5198 L 32.3776,30.7725
 L 32.2839,31.0168 L 32.1651,31.25 L 32.0225,31.4695 L 31.8578,31.6728 L 31.6728,31.8578 L 31.4695,32.0225
 L 31.25,32.1651 L 31.0168,32.2839 L 30.7725,32.3776 L 30.5198,32.4454 L 30.2613,32.4863 L 30,32.5
 z
" stroke="black" fill="lightgray" stroke-width="0.5"/></svg>
