solid OpenSCAD_Model
  facet normal -1 0 0
    outer loop
      vertex 0 0 0
      vertex 0 0 6.99
      vertex 0 5 0
    endloop
  endfacet
  facet normal -1 0 0
    outer loop
      vertex 0 5 0
      vertex 0 0 6.99
      vertex 0 5 6.99
    endloop
  endfacet
  facet normal 0 -1 0
    outer loop
      vertex 70 0 5
      vertex 66.9 0 6.99
      vertex 66.9 0 5
    endloop
  endfacet
  facet normal -0 -1 -0
    outer loop
      vertex 70 0 6.99
      vertex 66.9 0 6.99
      vertex 70 0 5
    endloop
  endfacet
  facet normal 0 -1 0
    outer loop
      vertex 66.9 0 5
      vertex 70 0 0
      vertex 70 0 5
    endloop
  endfacet
  facet normal 0 -1 0
    outer loop
      vertex 70 0 0
      vertex 25.7 0 5
      vertex 0 0 0
    endloop
  endfacet
  facet normal -0 -1 -0
    outer loop
      vertex 66.9 0 5
      vertex 49.8 0 5
      vertex 70 0 0
    endloop
  endfacet
  facet normal -0 -1 -0
    outer loop
      vertex 49.8 0 6.99
      vertex 45.4 0 6.99
      vertex 49.8 0 5
    endloop
  endfacet
  facet normal 0 -1 0
    outer loop
      vertex 45.4 0 6.99
      vertex 45.4 0 5
      vertex 49.8 0 5
    endloop
  endfacet
  facet normal 0 -1 0
    outer loop
      vertex 45.4 0 5
      vertex 70 0 0
      vertex 49.8 0 5
    endloop
  endfacet
  facet normal 0 -1 0
    outer loop
      vertex 0 0 0
      vertex 25.7 0 5
      vertex 21.3 0 5
    endloop
  endfacet
  facet normal 0 -1 0
    outer loop
      vertex 25.7 0 5
      vertex 70 0 0
      vertex 45.4 0 5
    endloop
  endfacet
  facet normal 0 -1 0
    outer loop
      vertex 21.3 0 6.99
      vertex 25.7 0 5
      vertex 25.7 0 6.99
    endloop
  endfacet
  facet normal 0 -1 0
    outer loop
      vertex 0 0 0
      vertex 21.3 0 5
      vertex 3.1 0 5
    endloop
  endfacet
  facet normal 0 -1 0
    outer loop
      vertex 21.3 0 5
      vertex 25.7 0 5
      vertex 21.3 0 6.99
    endloop
  endfacet
  facet normal 0 -1 0
    outer loop
      vertex 0 0 0
      vertex 3.1 0 5
      vertex 0 0 6.99
    endloop
  endfacet
  facet normal 0 -1 0
    outer loop
      vertex 3.1 0 5
      vertex 3.1 0 6.99
      vertex 0 0 6.99
    endloop
  endfacet
  facet normal 0 0 -1
    outer loop
      vertex 0 0 0
      vertex 0 5 0
      vertex 21.9 2.5 0
    endloop
  endfacet
  facet normal 0 0 -1
    outer loop
      vertex 0 0 0
      vertex 21.9 2.5 0
      vertex 21.9088 2.33275 0
    endloop
  endfacet
  facet normal 0 0 -1
    outer loop
      vertex 0 0 0
      vertex 21.9088 2.33275 0
      vertex 21.935 2.16734 0
    endloop
  endfacet
  facet normal 0 0 -1
    outer loop
      vertex 0 0 0
      vertex 21.935 2.16734 0
      vertex 21.9783 2.00557 0
    endloop
  endfacet
  facet normal 0 0 -1
    outer loop
      vertex 0 0 0
      vertex 21.9783 2.00557 0
      vertex 22.0383 1.84922 0
    endloop
  endfacet
  facet normal 0 0 -1
    outer loop
      vertex 0 0 0
      vertex 22.0383 1.84922 0
      vertex 22.1144 1.7 0
    endloop
  endfacet
  facet normal 0 0 -1
    outer loop
      vertex 0 0 0
      vertex 22.1144 1.7 0
      vertex 22.2056 1.55954 0
    endloop
  endfacet
  facet normal 0 0 -1
    outer loop
      vertex 0 0 0
      vertex 22.2056 1.55954 0
      vertex 22.311 1.42939 0
    endloop
  endfacet
  facet normal 0 0 -1
    outer loop
      vertex 0 0 0
      vertex 22.311 1.42939 0
      vertex 22.4294 1.31097 0
    endloop
  endfacet
  facet normal 0 0 -1
    outer loop
      vertex 0 0 0
      vertex 22.4294 1.31097 0
      vertex 22.5595 1.20557 0
    endloop
  endfacet
  facet normal 0 0 -1
    outer loop
      vertex 0 0 0
      vertex 22.5595 1.20557 0
      vertex 22.7 1.11436 0
    endloop
  endfacet
  facet normal 0 0 -1
    outer loop
      vertex 0 0 0
      vertex 22.7 1.11436 0
      vertex 22.8492 1.03833 0
    endloop
  endfacet
  facet normal 0 0 -1
    outer loop
      vertex 0 0 0
      vertex 22.8492 1.03833 0
      vertex 23.0056 0.97831 0
    endloop
  endfacet
  facet normal 0 0 -1
    outer loop
      vertex 0 0 0
      vertex 23.0056 0.97831 0
      vertex 23.1673 0.934964 0
    endloop
  endfacet
  facet normal 0 0 -1
    outer loop
      vertex 0 0 0
      vertex 23.1673 0.934964 0
      vertex 23.3328 0.908765 0
    endloop
  endfacet
  facet normal 0 0 -1
    outer loop
      vertex 0 0 0
      vertex 23.3328 0.908765 0
      vertex 23.5 0.9 0
    endloop
  endfacet
  facet normal 0 0 -1
    outer loop
      vertex 0 0 0
      vertex 23.5 0.9 0
      vertex 70 0 0
    endloop
  endfacet
  facet normal 0 0 -1
    outer loop
      vertex 47.6 0.9 0
      vertex 23.5 0.9 0
      vertex 23.6672 0.908765 0
    endloop
  endfacet
  facet normal -0 0 -1
    outer loop
      vertex 47.2673 0.934964 0
      vertex 23.6672 0.908765 0
      vertex 23.8327 0.934964 0
    endloop
  endfacet
  facet normal 0 0 -1
    outer loop
      vertex 47.2673 0.934964 0
      vertex 23.8327 0.934964 0
      vertex 23.9944 0.97831 0
    endloop
  endfacet
  facet normal -0 0 -1
    outer loop
      vertex 47.1056 0.97831 0
      vertex 23.9944 0.97831 0
      vertex 24.1508 1.03833 0
    endloop
  endfacet
  facet normal 0 0 -1
    outer loop
      vertex 46.8 1.11436 0
      vertex 24.1508 1.03833 0
      vertex 24.3 1.11436 0
    endloop
  endfacet
  facet normal 0 0 -1
    outer loop
      vertex 46.6595 1.20557 0
      vertex 24.3 1.11436 0
      vertex 24.4405 1.20557 0
    endloop
  endfacet
  facet normal -0 0 -1
    outer loop
      vertex 46.6595 1.20557 0
      vertex 24.4405 1.20557 0
      vertex 24.5706 1.31097 0
    endloop
  endfacet
  facet normal -0 0 -1
    outer loop
      vertex 46.411 1.42939 0
      vertex 24.5706 1.31097 0
      vertex 24.689 1.42939 0
    endloop
  endfacet
  facet normal 0 0 -1
    outer loop
      vertex 46.3056 1.55954 0
      vertex 24.689 1.42939 0
      vertex 24.7944 1.55954 0
    endloop
  endfacet
  facet normal -0 0 -1
    outer loop
      vertex 46.3056 1.55954 0
      vertex 24.7944 1.55954 0
      vertex 24.8856 1.7 0
    endloop
  endfacet
  facet normal 0 0 -1
    outer loop
      vertex 46.2144 1.7 0
      vertex 24.8856 1.7 0
      vertex 24.9617 1.84922 0
    endloop
  endfacet
  facet normal 0 0 -1
    outer loop
      vertex 46.0783 2.00557 0
      vertex 24.9617 1.84922 0
      vertex 25.0217 2.00557 0
    endloop
  endfacet
  facet normal -0 0 -1
    outer loop
      vertex 46.035 2.16734 0
      vertex 25.0217 2.00557 0
      vertex 25.065 2.16734 0
    endloop
  endfacet
  facet normal 0 0 -1
    outer loop
      vertex 46.035 2.16734 0
      vertex 25.065 2.16734 0
      vertex 25.0912 2.33275 0
    endloop
  endfacet
  facet normal 0 0 -1
    outer loop
      vertex 25.0912 2.66725 0
      vertex 46 2.5 0
      vertex 25.1 2.5 0
    endloop
  endfacet
  facet normal -0 0 -1
    outer loop
      vertex 46.0088 2.66725 0
      vertex 46 2.5 0
      vertex 25.0912 2.66725 0
    endloop
  endfacet
  facet normal -0 0 -1
    outer loop
      vertex 46.035 2.83266 0
      vertex 25.0912 2.66725 0
      vertex 25.065 2.83266 0
    endloop
  endfacet
  facet normal 0 0 -1
    outer loop
      vertex 46.035 2.83266 0
      vertex 25.065 2.83266 0
      vertex 25.0217 2.99443 0
    endloop
  endfacet
  facet normal -0 0 -1
    outer loop
      vertex 46.0783 2.99443 0
      vertex 25.0217 2.99443 0
      vertex 24.9617 3.15078 0
    endloop
  endfacet
  facet normal -0 0 -1
    outer loop
      vertex 46.2144 3.3 0
      vertex 24.9617 3.15078 0
      vertex 24.8856 3.3 0
    endloop
  endfacet
  facet normal -0 0 -1
    outer loop
      vertex 46.3056 3.44046 0
      vertex 24.8856 3.3 0
      vertex 24.7944 3.44046 0
    endloop
  endfacet
  facet normal 0 0 -1
    outer loop
      vertex 46.3056 3.44046 0
      vertex 24.7944 3.44046 0
      vertex 24.689 3.57061 0
    endloop
  endfacet
  facet normal 0 0 -1
    outer loop
      vertex 24.4405 3.79443 0
      vertex 46.6595 3.79443 0
      vertex 24.5706 3.68903 0
    endloop
  endfacet
  facet normal 0 0 -1
    outer loop
      vertex 0 5 0
      vertex 70 5 0
      vertex 23.5 4.1 0
    endloop
  endfacet
  facet normal 0 0 -1
    outer loop
      vertex 0 5 0
      vertex 23.5 4.1 0
      vertex 23.3328 4.09124 0
    endloop
  endfacet
  facet normal 0 0 -1
    outer loop
      vertex 0 5 0
      vertex 23.3328 4.09124 0
      vertex 23.1673 4.06504 0
    endloop
  endfacet
  facet normal 0 0 -1
    outer loop
      vertex 0 5 0
      vertex 23.1673 4.06504 0
      vertex 23.0056 4.02169 0
    endloop
  endfacet
  facet normal 0 0 -1
    outer loop
      vertex 0 5 0
      vertex 23.0056 4.02169 0
      vertex 22.8492 3.96167 0
    endloop
  endfacet
  facet normal 0 0 -1
    outer loop
      vertex 0 5 0
      vertex 22.8492 3.96167 0
      vertex 22.7 3.88564 0
    endloop
  endfacet
  facet normal 0 0 -1
    outer loop
      vertex 0 5 0
      vertex 22.7 3.88564 0
      vertex 22.5595 3.79443 0
    endloop
  endfacet
  facet normal 0 0 -1
    outer loop
      vertex 0 5 0
      vertex 22.5595 3.79443 0
      vertex 22.4294 3.68903 0
    endloop
  endfacet
  facet normal 0 0 -1
    outer loop
      vertex 0 5 0
      vertex 22.4294 3.68903 0
      vertex 22.311 3.57061 0
    endloop
  endfacet
  facet normal 0 0 -1
    outer loop
      vertex 0 5 0
      vertex 22.311 3.57061 0
      vertex 22.2056 3.44046 0
    endloop
  endfacet
  facet normal 0 0 -1
    outer loop
      vertex 0 5 0
      vertex 22.2056 3.44046 0
      vertex 22.1144 3.3 0
    endloop
  endfacet
  facet normal 0 0 -1
    outer loop
      vertex 0 5 0
      vertex 22.1144 3.3 0
      vertex 22.0383 3.15078 0
    endloop
  endfacet
  facet normal 0 0 -1
    outer loop
      vertex 0 5 0
      vertex 22.0383 3.15078 0
      vertex 21.9783 2.99443 0
    endloop
  endfacet
  facet normal 0 0 -1
    outer loop
      vertex 0 5 0
      vertex 21.9783 2.99443 0
      vertex 21.935 2.83266 0
    endloop
  endfacet
  facet normal 0 0 -1
    outer loop
      vertex 0 5 0
      vertex 21.935 2.83266 0
      vertex 21.9088 2.66725 0
    endloop
  endfacet
  facet normal 0 0 -1
    outer loop
      vertex 0 5 0
      vertex 21.9088 2.66725 0
      vertex 21.9 2.5 0
    endloop
  endfacet
  facet normal 0 -0 -1
    outer loop
      vertex 25.1 2.5 0
      vertex 46.0088 2.33275 0
      vertex 25.0912 2.33275 0
    endloop
  endfacet
  facet normal 0 -0 -1
    outer loop
      vertex 46 2.5 0
      vertex 46.0088 2.33275 0
      vertex 25.1 2.5 0
    endloop
  endfacet
  facet normal 0 -0 -1
    outer loop
      vertex 46.0088 2.33275 0
      vertex 46.035 2.16734 0
      vertex 25.0912 2.33275 0
    endloop
  endfacet
  facet normal 0 -0 -1
    outer loop
      vertex 46.035 2.16734 0
      vertex 46.0783 2.00557 0
      vertex 25.0217 2.00557 0
    endloop
  endfacet
  facet normal 0 -0 -1
    outer loop
      vertex 46.0783 2.00557 0
      vertex 46.1383 1.84922 0
      vertex 24.9617 1.84922 0
    endloop
  endfacet
  facet normal -0 -0 -1
    outer loop
      vertex 46.1383 1.84922 0
      vertex 46.2144 1.7 0
      vertex 24.9617 1.84922 0
    endloop
  endfacet
  facet normal -0 -0 -1
    outer loop
      vertex 46.2144 1.7 0
      vertex 46.3056 1.55954 0
      vertex 24.8856 1.7 0
    endloop
  endfacet
  facet normal 0 -0 -1
    outer loop
      vertex 46.3056 1.55954 0
      vertex 46.411 1.42939 0
      vertex 24.689 1.42939 0
    endloop
  endfacet
  facet normal 0 -0 -1
    outer loop
      vertex 46.411 1.42939 0
      vertex 46.5294 1.31097 0
      vertex 24.5706 1.31097 0
    endloop
  endfacet
  facet normal -0 -0 -1
    outer loop
      vertex 46.5294 1.31097 0
      vertex 46.6595 1.20557 0
      vertex 24.5706 1.31097 0
    endloop
  endfacet
  facet normal 0 0 -1
    outer loop
      vertex 24.3 1.11436 0
      vertex 46.6595 1.20557 0
      vertex 46.8 1.11436 0
    endloop
  endfacet
  facet normal 0 0 -1
    outer loop
      vertex 24.1508 1.03833 0
      vertex 46.8 1.11436 0
      vertex 46.9492 1.03833 0
    endloop
  endfacet
  facet normal 0 0 -1
    outer loop
      vertex 24.1508 1.03833 0
      vertex 46.9492 1.03833 0
      vertex 47.1056 0.97831 0
    endloop
  endfacet
  facet normal 0 0 -1
    outer loop
      vertex 23.9944 0.97831 0
      vertex 47.1056 0.97831 0
      vertex 47.2673 0.934964 0
    endloop
  endfacet
  facet normal 0 0 -1
    outer loop
      vertex 23.6672 0.908765 0
      vertex 47.2673 0.934964 0
      vertex 47.4328 0.908765 0
    endloop
  endfacet
  facet normal 0 0 -1
    outer loop
      vertex 49.2 2.5 0
      vertex 70 5 0
      vertex 70 0 0
    endloop
  endfacet
  facet normal 0 0 -1
    outer loop
      vertex 23.6672 0.908765 0
      vertex 47.4328 0.908765 0
      vertex 47.6 0.9 0
    endloop
  endfacet
  facet normal 0 0 -1
    outer loop
      vertex 23.5 0.9 0
      vertex 47.6 0.9 0
      vertex 70 0 0
    endloop
  endfacet
  facet normal 0 0 -1
    outer loop
      vertex 47.6 0.9 0
      vertex 47.7672 0.908765 0
      vertex 70 0 0
    endloop
  endfacet
  facet normal 0 -0 -1
    outer loop
      vertex 48.0944 0.97831 0
      vertex 70 0 0
      vertex 47.9327 0.934964 0
    endloop
  endfacet
  facet normal 0 0 -1
    outer loop
      vertex 47.7672 0.908765 0
      vertex 47.9327 0.934964 0
      vertex 70 0 0
    endloop
  endfacet
  facet normal 0 -0 -1
    outer loop
      vertex 48.2508 1.03833 0
      vertex 70 0 0
      vertex 48.0944 0.97831 0
    endloop
  endfacet
  facet normal 0 -0 -1
    outer loop
      vertex 48.4 1.11436 0
      vertex 70 0 0
      vertex 48.2508 1.03833 0
    endloop
  endfacet
  facet normal 0 -0 -1
    outer loop
      vertex 48.5405 1.20557 0
      vertex 70 0 0
      vertex 48.4 1.11436 0
    endloop
  endfacet
  facet normal 0 -0 -1
    outer loop
      vertex 48.6706 1.31097 0
      vertex 70 0 0
      vertex 48.5405 1.20557 0
    endloop
  endfacet
  facet normal 0 -0 -1
    outer loop
      vertex 48.789 1.42939 0
      vertex 70 0 0
      vertex 48.6706 1.31097 0
    endloop
  endfacet
  facet normal 0 -0 -1
    outer loop
      vertex 48.8944 1.55954 0
      vertex 70 0 0
      vertex 48.789 1.42939 0
    endloop
  endfacet
  facet normal 0 -0 -1
    outer loop
      vertex 48.9856 1.7 0
      vertex 70 0 0
      vertex 48.8944 1.55954 0
    endloop
  endfacet
  facet normal 0 -0 -1
    outer loop
      vertex 49.0617 1.84922 0
      vertex 70 0 0
      vertex 48.9856 1.7 0
    endloop
  endfacet
  facet normal 0 -0 -1
    outer loop
      vertex 49.1217 2.00557 0
      vertex 70 0 0
      vertex 49.0617 1.84922 0
    endloop
  endfacet
  facet normal 0 -0 -1
    outer loop
      vertex 49.165 2.16734 0
      vertex 70 0 0
      vertex 49.1217 2.00557 0
    endloop
  endfacet
  facet normal 0 -0 -1
    outer loop
      vertex 49.1912 2.33275 0
      vertex 70 0 0
      vertex 49.165 2.16734 0
    endloop
  endfacet
  facet normal 0 -0 -1
    outer loop
      vertex 49.2 2.5 0
      vertex 70 0 0
      vertex 49.1912 2.33275 0
    endloop
  endfacet
  facet normal 0 0 -1
    outer loop
      vertex 49.1912 2.66725 0
      vertex 70 5 0
      vertex 49.2 2.5 0
    endloop
  endfacet
  facet normal 0 0 -1
    outer loop
      vertex 49.165 2.83266 0
      vertex 70 5 0
      vertex 49.1912 2.66725 0
    endloop
  endfacet
  facet normal 0 0 -1
    outer loop
      vertex 49.1217 2.99443 0
      vertex 70 5 0
      vertex 49.165 2.83266 0
    endloop
  endfacet
  facet normal 0 0 -1
    outer loop
      vertex 49.0617 3.15078 0
      vertex 70 5 0
      vertex 49.1217 2.99443 0
    endloop
  endfacet
  facet normal 0 0 -1
    outer loop
      vertex 48.9856 3.3 0
      vertex 70 5 0
      vertex 49.0617 3.15078 0
    endloop
  endfacet
  facet normal 0 0 -1
    outer loop
      vertex 48.8944 3.44046 0
      vertex 70 5 0
      vertex 48.9856 3.3 0
    endloop
  endfacet
  facet normal 0 0 -1
    outer loop
      vertex 48.789 3.57061 0
      vertex 70 5 0
      vertex 48.8944 3.44046 0
    endloop
  endfacet
  facet normal 0 0 -1
    outer loop
      vertex 48.6706 3.68903 0
      vertex 70 5 0
      vertex 48.789 3.57061 0
    endloop
  endfacet
  facet normal 0 0 -1
    outer loop
      vertex 48.5405 3.79443 0
      vertex 70 5 0
      vertex 48.6706 3.68903 0
    endloop
  endfacet
  facet normal 0 0 -1
    outer loop
      vertex 48.4 3.88564 0
      vertex 70 5 0
      vertex 48.5405 3.79443 0
    endloop
  endfacet
  facet normal 0 0 -1
    outer loop
      vertex 24.5706 3.68903 0
      vertex 46.411 3.57061 0
      vertex 24.689 3.57061 0
    endloop
  endfacet
  facet normal 0 0 -1
    outer loop
      vertex 48.2508 3.96167 0
      vertex 70 5 0
      vertex 48.4 3.88564 0
    endloop
  endfacet
  facet normal 0 0 -1
    outer loop
      vertex 24.4405 3.79443 0
      vertex 24.3 3.88564 0
      vertex 46.6595 3.79443 0
    endloop
  endfacet
  facet normal 0 0 -1
    outer loop
      vertex 48.0944 4.02169 0
      vertex 70 5 0
      vertex 48.2508 3.96167 0
    endloop
  endfacet
  facet normal -0 0 -1
    outer loop
      vertex 46.9492 3.96167 0
      vertex 24.3 3.88564 0
      vertex 24.1508 3.96167 0
    endloop
  endfacet
  facet normal 0 0 -1
    outer loop
      vertex 47.9327 4.06504 0
      vertex 70 5 0
      vertex 48.0944 4.02169 0
    endloop
  endfacet
  facet normal 0 0 -1
    outer loop
      vertex 23.9944 4.02169 0
      vertex 46.9492 3.96167 0
      vertex 24.1508 3.96167 0
    endloop
  endfacet
  facet normal 0 0 -1
    outer loop
      vertex 47.7672 4.09124 0
      vertex 70 5 0
      vertex 47.9327 4.06504 0
    endloop
  endfacet
  facet normal 0 0 -1
    outer loop
      vertex 23.9944 4.02169 0
      vertex 23.8327 4.06504 0
      vertex 47.2673 4.06504 0
    endloop
  endfacet
  facet normal 0 0 -1
    outer loop
      vertex 47.6 4.1 0
      vertex 70 5 0
      vertex 47.7672 4.09124 0
    endloop
  endfacet
  facet normal 0 0 -1
    outer loop
      vertex 47.2673 4.06504 0
      vertex 23.8327 4.06504 0
      vertex 23.6672 4.09124 0
    endloop
  endfacet
  facet normal 0 0 -1
    outer loop
      vertex 23.5 4.1 0
      vertex 70 5 0
      vertex 47.6 4.1 0
    endloop
  endfacet
  facet normal 0 0 -1
    outer loop
      vertex 23.5 4.1 0
      vertex 47.4328 4.09124 0
      vertex 23.6672 4.09124 0
    endloop
  endfacet
  facet normal -0 0 -1
    outer loop
      vertex 47.6 4.1 0
      vertex 47.4328 4.09124 0
      vertex 23.5 4.1 0
    endloop
  endfacet
  facet normal -0 0 -1
    outer loop
      vertex 47.4328 4.09124 0
      vertex 47.2673 4.06504 0
      vertex 23.6672 4.09124 0
    endloop
  endfacet
  facet normal 0 0 -1
    outer loop
      vertex 47.2673 4.06504 0
      vertex 47.1056 4.02169 0
      vertex 23.9944 4.02169 0
    endloop
  endfacet
  facet normal -0 0 -1
    outer loop
      vertex 47.1056 4.02169 0
      vertex 46.9492 3.96167 0
      vertex 23.9944 4.02169 0
    endloop
  endfacet
  facet normal 0 0 -1
    outer loop
      vertex 46.9492 3.96167 0
      vertex 46.8 3.88564 0
      vertex 24.3 3.88564 0
    endloop
  endfacet
  facet normal 0 0 -1
    outer loop
      vertex 46.8 3.88564 0
      vertex 46.6595 3.79443 0
      vertex 24.3 3.88564 0
    endloop
  endfacet
  facet normal 0 0 -1
    outer loop
      vertex 46.6595 3.79443 0
      vertex 46.5294 3.68903 0
      vertex 24.5706 3.68903 0
    endloop
  endfacet
  facet normal 0 0 -1
    outer loop
      vertex 46.5294 3.68903 0
      vertex 46.411 3.57061 0
      vertex 24.5706 3.68903 0
    endloop
  endfacet
  facet normal 0 0 -1
    outer loop
      vertex 46.411 3.57061 0
      vertex 46.3056 3.44046 0
      vertex 24.689 3.57061 0
    endloop
  endfacet
  facet normal 0 0 -1
    outer loop
      vertex 46.3056 3.44046 0
      vertex 46.2144 3.3 0
      vertex 24.8856 3.3 0
    endloop
  endfacet
  facet normal 0 0 -1
    outer loop
      vertex 46.2144 3.3 0
      vertex 46.1383 3.15078 0
      vertex 24.9617 3.15078 0
    endloop
  endfacet
  facet normal -0 0 -1
    outer loop
      vertex 46.1383 3.15078 0
      vertex 46.0783 2.99443 0
      vertex 24.9617 3.15078 0
    endloop
  endfacet
  facet normal 0 0 -1
    outer loop
      vertex 46.0783 2.99443 0
      vertex 46.035 2.83266 0
      vertex 25.0217 2.99443 0
    endloop
  endfacet
  facet normal 0 0 -1
    outer loop
      vertex 46.035 2.83266 0
      vertex 46.0088 2.66725 0
      vertex 25.0912 2.66725 0
    endloop
  endfacet
  facet normal -0 1 0
    outer loop
      vertex 25.7 5 5
      vertex 45.4 5 5
      vertex 70 5 0
    endloop
  endfacet
  facet normal 0 1 0
    outer loop
      vertex 0 5 0
      vertex 0 5 6.99
      vertex 3.1 5 5
    endloop
  endfacet
  facet normal -0 1 0
    outer loop
      vertex 0 5 6.99
      vertex 3.1 5 6.99
      vertex 3.1 5 5
    endloop
  endfacet
  facet normal 0 1 0
    outer loop
      vertex 0 5 0
      vertex 25.7 5 5
      vertex 70 5 0
    endloop
  endfacet
  facet normal -0 1 0
    outer loop
      vertex 3.1 5 5
      vertex 21.3 5 5
      vertex 0 5 0
    endloop
  endfacet
  facet normal 0 1 0
    outer loop
      vertex 21.3 5 5
      vertex 21.3 5 6.99
      vertex 25.7 5 5
    endloop
  endfacet
  facet normal -0 1 0
    outer loop
      vertex 21.3 5 6.99
      vertex 25.7 5 6.99
      vertex 25.7 5 5
    endloop
  endfacet
  facet normal -0 1 0
    outer loop
      vertex 21.3 5 5
      vertex 25.7 5 5
      vertex 0 5 0
    endloop
  endfacet
  facet normal -0 1 0
    outer loop
      vertex 49.8 5 5
      vertex 66.9 5 5
      vertex 70 5 0
    endloop
  endfacet
  facet normal 0 1 0
    outer loop
      vertex 45.4 5 5
      vertex 45.4 5 6.99
      vertex 49.8 5 5
    endloop
  endfacet
  facet normal -0 1 0
    outer loop
      vertex 45.4 5 6.99
      vertex 49.8 5 6.99
      vertex 49.8 5 5
    endloop
  endfacet
  facet normal -0 1 0
    outer loop
      vertex 45.4 5 5
      vertex 49.8 5 5
      vertex 70 5 0
    endloop
  endfacet
  facet normal 0 1 0
    outer loop
      vertex 66.9 5 5
      vertex 66.9 5 6.99
      vertex 70 5 5
    endloop
  endfacet
  facet normal -0 1 0
    outer loop
      vertex 66.9 5 6.99
      vertex 70 5 6.99
      vertex 70 5 5
    endloop
  endfacet
  facet normal -0 1 0
    outer loop
      vertex 66.9 5 5
      vertex 70 5 5
      vertex 70 5 0
    endloop
  endfacet
  facet normal 0 0 1
    outer loop
      vertex 21.3 0 5
      vertex 3.1 1.35 5
      vertex 3.1 0 5
    endloop
  endfacet
  facet normal 0 -0 1
    outer loop
      vertex 21.3 0 5
      vertex 21.3 1.35 5
      vertex 3.1 1.35 5
    endloop
  endfacet
  facet normal 0 0 1
    outer loop
      vertex 66.9 0 5
      vertex 49.8 1.35 5
      vertex 49.8 0 5
    endloop
  endfacet
  facet normal 0 -0 1
    outer loop
      vertex 66.9 0 5
      vertex 66.9 1.35 5
      vertex 49.8 1.35 5
    endloop
  endfacet
  facet normal 0 0 1
    outer loop
      vertex 21.3 3.65 5
      vertex 3.1 5 5
      vertex 3.1 3.65 5
    endloop
  endfacet
  facet normal 0 -0 1
    outer loop
      vertex 21.3 3.65 5
      vertex 21.3 5 5
      vertex 3.1 5 5
    endloop
  endfacet
  facet normal 0 0 1
    outer loop
      vertex 66.9 3.65 5
      vertex 49.8 5 5
      vertex 49.8 3.65 5
    endloop
  endfacet
  facet normal 0 -0 1
    outer loop
      vertex 66.9 3.65 5
      vertex 66.9 5 5
      vertex 49.8 5 5
    endloop
  endfacet
  facet normal 0 0 1
    outer loop
      vertex 45.4 0 5
      vertex 25.7 1.35 5
      vertex 25.7 0 5
    endloop
  endfacet
  facet normal 0 -0 1
    outer loop
      vertex 45.4 0 5
      vertex 45.4 1.35 5
      vertex 25.7 1.35 5
    endloop
  endfacet
  facet normal 0 0 1
    outer loop
      vertex 45.4 3.65 5
      vertex 25.7 5 5
      vertex 25.7 3.65 5
    endloop
  endfacet
  facet normal 0 -0 1
    outer loop
      vertex 45.4 3.65 5
      vertex 45.4 5 5
      vertex 25.7 5 5
    endloop
  endfacet
  facet normal 1 0 0
    outer loop
      vertex 70 1.35 5
      vertex 70 0 5
      vertex 70 0 0
    endloop
  endfacet
  facet normal 1 0 -0
    outer loop
      vertex 70 5 0
      vertex 70 5 5
      vertex 70 3.65 5
    endloop
  endfacet
  facet normal 1 0 0
    outer loop
      vertex 70 5 0
      vertex 70 1.35 5
      vertex 70 0 0
    endloop
  endfacet
  facet normal 1 0 0
    outer loop
      vertex 70 3.65 6.99
      vertex 70 1.35 6.99
      vertex 70 3.65 5
    endloop
  endfacet
  facet normal 1 0 0
    outer loop
      vertex 70 1.35 6.99
      vertex 70 1.35 5
      vertex 70 3.65 5
    endloop
  endfacet
  facet normal 1 -0 0
    outer loop
      vertex 70 1.35 5
      vertex 70 5 0
      vertex 70 3.65 5
    endloop
  endfacet
  facet normal 0 -1 0
    outer loop
      vertex 21.3 1.35 5
      vertex 3.1 1.35 6.99
      vertex 3.1 1.35 5
    endloop
  endfacet
  facet normal 0 -1 0
    outer loop
      vertex 21.3 1.35 5
      vertex 21.3 1.35 6.99
      vertex 3.1 1.35 6.99
    endloop
  endfacet
  facet normal 0 -1 0
    outer loop
      vertex 66.9 1.35 5
      vertex 49.8 1.35 6.99
      vertex 49.8 1.35 5
    endloop
  endfacet
  facet normal 0 -1 0
    outer loop
      vertex 66.9 1.35 5
      vertex 66.9 1.35 6.99
      vertex 49.8 1.35 6.99
    endloop
  endfacet
  facet normal 0 -1 0
    outer loop
      vertex 45.4 1.35 5
      vertex 25.7 1.35 6.99
      vertex 25.7 1.35 5
    endloop
  endfacet
  facet normal 0 -1 0
    outer loop
      vertex 45.4 1.35 5
      vertex 45.4 1.35 6.99
      vertex 25.7 1.35 6.99
    endloop
  endfacet
  facet normal 0 1 0
    outer loop
      vertex 3.1 3.65 5
      vertex 3.1 3.65 6.99
      vertex 21.3 3.65 5
    endloop
  endfacet
  facet normal 0 1 -0
    outer loop
      vertex 21.3 3.65 5
      vertex 3.1 3.65 6.99
      vertex 21.3 3.65 6.99
    endloop
  endfacet
  facet normal 0 1 0
    outer loop
      vertex 49.8 3.65 5
      vertex 49.8 3.65 6.99
      vertex 66.9 3.65 5
    endloop
  endfacet
  facet normal 0 1 -0
    outer loop
      vertex 66.9 3.65 5
      vertex 49.8 3.65 6.99
      vertex 66.9 3.65 6.99
    endloop
  endfacet
  facet normal 0 1 0
    outer loop
      vertex 25.7 3.65 5
      vertex 25.7 3.65 6.99
      vertex 45.4 3.65 5
    endloop
  endfacet
  facet normal 0 1 -0
    outer loop
      vertex 45.4 3.65 5
      vertex 25.7 3.65 6.99
      vertex 45.4 3.65 6.99
    endloop
  endfacet
  facet normal 0 0 1
    outer loop
      vertex 3.1 3.65 6.99
      vertex 0 5 6.99
      vertex 0 0 6.99
    endloop
  endfacet
  facet normal 0 -0 1
    outer loop
      vertex 3.1 0 6.99
      vertex 3.1 1.35 6.99
      vertex 0 0 6.99
    endloop
  endfacet
  facet normal 0 0 1
    outer loop
      vertex 49.8 1.35 6.99
      vertex 66.9 1.35 6.99
      vertex 49.8 3.65 6.99
    endloop
  endfacet
  facet normal 0 0 1
    outer loop
      vertex 45.4 3.65 6.99
      vertex 45.4 1.35 6.99
      vertex 46 2.5 6.99
    endloop
  endfacet
  facet normal 0 0 1
    outer loop
      vertex 66.9 0 6.99
      vertex 70 0 6.99
      vertex 66.9 1.35 6.99
    endloop
  endfacet
  facet normal 0 -0 1
    outer loop
      vertex 70 0 6.99
      vertex 70 1.35 6.99
      vertex 66.9 1.35 6.99
    endloop
  endfacet
  facet normal -0 0 1
    outer loop
      vertex 49.8 3.65 6.99
      vertex 66.9 1.35 6.99
      vertex 66.9 3.65 6.99
    endloop
  endfacet
  facet normal 0 0 1
    outer loop
      vertex 66.9 3.65 6.99
      vertex 66.9 1.35 6.99
      vertex 70 1.35 6.99
    endloop
  endfacet
  facet normal -0 0 1
    outer loop
      vertex 25.7 3.65 6.99
      vertex 45.4 1.35 6.99
      vertex 45.4 3.65 6.99
    endloop
  endfacet
  facet normal 0 0 1
    outer loop
      vertex 70 5 6.99
      vertex 66.9 5 6.99
      vertex 70 3.65 6.99
    endloop
  endfacet
  facet normal 0 0 1
    outer loop
      vertex 66.9 5 6.99
      vertex 66.9 3.65 6.99
      vertex 70 3.65 6.99
    endloop
  endfacet
  facet normal -0 0 1
    outer loop
      vertex 66.9 3.65 6.99
      vertex 70 1.35 6.99
      vertex 70 3.65 6.99
    endloop
  endfacet
  facet normal 0 0 1
    outer loop
      vertex 25.7 1.35 6.99
      vertex 45.4 1.35 6.99
      vertex 25.7 3.65 6.99
    endloop
  endfacet
  facet normal 0 0 1
    outer loop
      vertex 21.3 3.65 6.99
      vertex 21.3 1.35 6.99
      vertex 21.9 2.5 6.99
    endloop
  endfacet
  facet normal 0 0 1
    outer loop
      vertex 45.4 3.65 6.99
      vertex 46.0088 2.66725 6.99
      vertex 46.035 2.83266 6.99
    endloop
  endfacet
  facet normal 0 0 1
    outer loop
      vertex 3.1 1.35 6.99
      vertex 21.3 1.35 6.99
      vertex 3.1 3.65 6.99
    endloop
  endfacet
  facet normal -0 0 1
    outer loop
      vertex 3.1 3.65 6.99
      vertex 21.3 1.35 6.99
      vertex 21.3 3.65 6.99
    endloop
  endfacet
  facet normal 0 0 1
    outer loop
      vertex 21.3 3.65 6.99
      vertex 21.9088 2.66725 6.99
      vertex 21.935 2.83266 6.99
    endloop
  endfacet
  facet normal 0 0 1
    outer loop
      vertex 3.1 3.65 6.99
      vertex 0 0 6.99
      vertex 3.1 1.35 6.99
    endloop
  endfacet
  facet normal 0 0 1
    outer loop
      vertex 3.1 5 6.99
      vertex 0 5 6.99
      vertex 3.1 3.65 6.99
    endloop
  endfacet
  facet normal 0 0 1
    outer loop
      vertex 21.3 1.35 6.99
      vertex 21.9088 2.33275 6.99
      vertex 21.9 2.5 6.99
    endloop
  endfacet
  facet normal 0 0 1
    outer loop
      vertex 21.3 0 6.99
      vertex 25.7 0 6.99
      vertex 23.5 0.9 6.99
    endloop
  endfacet
  facet normal 0 0 1
    outer loop
      vertex 21.3 3.65 6.99
      vertex 21.9 2.5 6.99
      vertex 21.9088 2.66725 6.99
    endloop
  endfacet
  facet normal 0 0 1
    outer loop
      vertex 21.3 3.65 6.99
      vertex 22.4294 3.68903 6.99
      vertex 21.3 5 6.99
    endloop
  endfacet
  facet normal 0 0 1
    outer loop
      vertex 21.3 3.65 6.99
      vertex 21.935 2.83266 6.99
      vertex 21.9783 2.99443 6.99
    endloop
  endfacet
  facet normal 0 0 1
    outer loop
      vertex 21.3 3.65 6.99
      vertex 21.9783 2.99443 6.99
      vertex 22.0383 3.15078 6.99
    endloop
  endfacet
  facet normal 0 0 1
    outer loop
      vertex 21.3 3.65 6.99
      vertex 22.0383 3.15078 6.99
      vertex 22.1144 3.3 6.99
    endloop
  endfacet
  facet normal 0 0 1
    outer loop
      vertex 21.3 3.65 6.99
      vertex 22.1144 3.3 6.99
      vertex 22.2056 3.44046 6.99
    endloop
  endfacet
  facet normal 0 0 1
    outer loop
      vertex 21.3 3.65 6.99
      vertex 22.2056 3.44046 6.99
      vertex 22.311 3.57061 6.99
    endloop
  endfacet
  facet normal -0 0 1
    outer loop
      vertex 21.3 3.65 6.99
      vertex 22.311 3.57061 6.99
      vertex 22.4294 3.68903 6.99
    endloop
  endfacet
  facet normal 0 0 1
    outer loop
      vertex 21.3 5 6.99
      vertex 22.4294 3.68903 6.99
      vertex 22.5595 3.79443 6.99
    endloop
  endfacet
  facet normal 0 0 1
    outer loop
      vertex 21.3 5 6.99
      vertex 22.5595 3.79443 6.99
      vertex 22.7 3.88564 6.99
    endloop
  endfacet
  facet normal 0 0 1
    outer loop
      vertex 21.3 5 6.99
      vertex 22.7 3.88564 6.99
      vertex 22.8492 3.96167 6.99
    endloop
  endfacet
  facet normal 0 0 1
    outer loop
      vertex 21.3 5 6.99
      vertex 22.8492 3.96167 6.99
      vertex 23.0056 4.02169 6.99
    endloop
  endfacet
  facet normal -0 0 1
    outer loop
      vertex 21.3 5 6.99
      vertex 23.5 4.1 6.99
      vertex 25.7 5 6.99
    endloop
  endfacet
  facet normal 0 -0 1
    outer loop
      vertex 23.0056 4.02169 6.99
      vertex 23.1673 4.06504 6.99
      vertex 21.3 5 6.99
    endloop
  endfacet
  facet normal 0 -0 1
    outer loop
      vertex 23.1673 4.06504 6.99
      vertex 23.3328 4.09124 6.99
      vertex 21.3 5 6.99
    endloop
  endfacet
  facet normal 0 -0 1
    outer loop
      vertex 23.3328 4.09124 6.99
      vertex 23.5 4.1 6.99
      vertex 21.3 5 6.99
    endloop
  endfacet
  facet normal -0 0 1
    outer loop
      vertex 23.5 4.1 6.99
      vertex 23.6672 4.09124 6.99
      vertex 25.7 5 6.99
    endloop
  endfacet
  facet normal 0 -0 1
    outer loop
      vertex 25.7 1.35 6.99
      vertex 25.7 3.65 6.99
      vertex 25.1 2.5 6.99
    endloop
  endfacet
  facet normal -0 0 1
    outer loop
      vertex 23.6672 4.09124 6.99
      vertex 23.8327 4.06504 6.99
      vertex 25.7 5 6.99
    endloop
  endfacet
  facet normal -0 0 1
    outer loop
      vertex 24.5706 3.68903 6.99
      vertex 25.7 3.65 6.99
      vertex 25.7 5 6.99
    endloop
  endfacet
  facet normal 0 -0 1
    outer loop
      vertex 23.9944 4.02169 6.99
      vertex 25.7 5 6.99
      vertex 23.8327 4.06504 6.99
    endloop
  endfacet
  facet normal 0 -0 1
    outer loop
      vertex 24.1508 3.96167 6.99
      vertex 25.7 5 6.99
      vertex 23.9944 4.02169 6.99
    endloop
  endfacet
  facet normal 0 -0 1
    outer loop
      vertex 24.3 3.88564 6.99
      vertex 25.7 5 6.99
      vertex 24.1508 3.96167 6.99
    endloop
  endfacet
  facet normal 0 -0 1
    outer loop
      vertex 24.4405 3.79443 6.99
      vertex 25.7 5 6.99
      vertex 24.3 3.88564 6.99
    endloop
  endfacet
  facet normal 0 -0 1
    outer loop
      vertex 24.5706 3.68903 6.99
      vertex 25.7 5 6.99
      vertex 24.4405 3.79443 6.99
    endloop
  endfacet
  facet normal 0 -0 1
    outer loop
      vertex 24.689 3.57061 6.99
      vertex 25.7 3.65 6.99
      vertex 24.5706 3.68903 6.99
    endloop
  endfacet
  facet normal 0 -0 1
    outer loop
      vertex 24.7944 3.44046 6.99
      vertex 25.7 3.65 6.99
      vertex 24.689 3.57061 6.99
    endloop
  endfacet
  facet normal 0 -0 1
    outer loop
      vertex 24.8856 3.3 6.99
      vertex 25.7 3.65 6.99
      vertex 24.7944 3.44046 6.99
    endloop
  endfacet
  facet normal 0 0 1
    outer loop
      vertex 25.7 3.65 6.99
      vertex 24.9617 3.15078 6.99
      vertex 25.0217 2.99443 6.99
    endloop
  endfacet
  facet normal 0 -0 1
    outer loop
      vertex 24.9617 3.15078 6.99
      vertex 25.7 3.65 6.99
      vertex 24.8856 3.3 6.99
    endloop
  endfacet
  facet normal 0 0 1
    outer loop
      vertex 25.7 3.65 6.99
      vertex 25.0217 2.99443 6.99
      vertex 25.065 2.83266 6.99
    endloop
  endfacet
  facet normal 0 0 1
    outer loop
      vertex 25.7 3.65 6.99
      vertex 25.065 2.83266 6.99
      vertex 25.0912 2.66725 6.99
    endloop
  endfacet
  facet normal 0 0 1
    outer loop
      vertex 25.7 3.65 6.99
      vertex 25.0912 2.66725 6.99
      vertex 25.1 2.5 6.99
    endloop
  endfacet
  facet normal 0 0 1
    outer loop
      vertex 25.7 1.35 6.99
      vertex 25.1 2.5 6.99
      vertex 25.0912 2.33275 6.99
    endloop
  endfacet
  facet normal 0 0 1
    outer loop
      vertex 25.7 1.35 6.99
      vertex 24.5706 1.31097 6.99
      vertex 25.7 0 6.99
    endloop
  endfacet
  facet normal -0 0 1
    outer loop
      vertex 25.065 2.16734 6.99
      vertex 25.7 1.35 6.99
      vertex 25.0912 2.33275 6.99
    endloop
  endfacet
  facet normal -0 0 1
    outer loop
      vertex 25.0217 2.00557 6.99
      vertex 25.7 1.35 6.99
      vertex 25.065 2.16734 6.99
    endloop
  endfacet
  facet normal -0 0 1
    outer loop
      vertex 24.9617 1.84922 6.99
      vertex 25.7 1.35 6.99
      vertex 25.0217 2.00557 6.99
    endloop
  endfacet
  facet normal -0 0 1
    outer loop
      vertex 24.8856 1.7 6.99
      vertex 25.7 1.35 6.99
      vertex 24.9617 1.84922 6.99
    endloop
  endfacet
  facet normal -0 0 1
    outer loop
      vertex 24.7944 1.55954 6.99
      vertex 25.7 1.35 6.99
      vertex 24.8856 1.7 6.99
    endloop
  endfacet
  facet normal -0 0 1
    outer loop
      vertex 24.689 1.42939 6.99
      vertex 25.7 1.35 6.99
      vertex 24.7944 1.55954 6.99
    endloop
  endfacet
  facet normal 0 0 1
    outer loop
      vertex 24.5706 1.31097 6.99
      vertex 25.7 1.35 6.99
      vertex 24.689 1.42939 6.99
    endloop
  endfacet
  facet normal -0 0 1
    outer loop
      vertex 24.4405 1.20557 6.99
      vertex 25.7 0 6.99
      vertex 24.5706 1.31097 6.99
    endloop
  endfacet
  facet normal -0 0 1
    outer loop
      vertex 24.3 1.11436 6.99
      vertex 25.7 0 6.99
      vertex 24.4405 1.20557 6.99
    endloop
  endfacet
  facet normal -0 0 1
    outer loop
      vertex 24.1508 1.03833 6.99
      vertex 25.7 0 6.99
      vertex 24.3 1.11436 6.99
    endloop
  endfacet
  facet normal 0 0 1
    outer loop
      vertex 25.7 0 6.99
      vertex 23.9944 0.97831 6.99
      vertex 23.8327 0.934964 6.99
    endloop
  endfacet
  facet normal -0 0 1
    outer loop
      vertex 23.9944 0.97831 6.99
      vertex 25.7 0 6.99
      vertex 24.1508 1.03833 6.99
    endloop
  endfacet
  facet normal 0 0 1
    outer loop
      vertex 25.7 0 6.99
      vertex 23.8327 0.934964 6.99
      vertex 23.6672 0.908765 6.99
    endloop
  endfacet
  facet normal 0 0 1
    outer loop
      vertex 25.7 0 6.99
      vertex 23.6672 0.908765 6.99
      vertex 23.5 0.9 6.99
    endloop
  endfacet
  facet normal 0 0 1
    outer loop
      vertex 21.3 0 6.99
      vertex 23.5 0.9 6.99
      vertex 23.3328 0.908765 6.99
    endloop
  endfacet
  facet normal 0 0 1
    outer loop
      vertex 21.3 0 6.99
      vertex 23.3328 0.908765 6.99
      vertex 23.1673 0.934964 6.99
    endloop
  endfacet
  facet normal 0 0 1
    outer loop
      vertex 21.3 0 6.99
      vertex 22.4294 1.31097 6.99
      vertex 21.3 1.35 6.99
    endloop
  endfacet
  facet normal 0 0 1
    outer loop
      vertex 23.1673 0.934964 6.99
      vertex 23.0056 0.97831 6.99
      vertex 21.3 0 6.99
    endloop
  endfacet
  facet normal 0 0 1
    outer loop
      vertex 23.0056 0.97831 6.99
      vertex 22.8492 1.03833 6.99
      vertex 21.3 0 6.99
    endloop
  endfacet
  facet normal 0 0 1
    outer loop
      vertex 22.8492 1.03833 6.99
      vertex 22.7 1.11436 6.99
      vertex 21.3 0 6.99
    endloop
  endfacet
  facet normal 0 0 1
    outer loop
      vertex 22.7 1.11436 6.99
      vertex 22.5595 1.20557 6.99
      vertex 21.3 0 6.99
    endloop
  endfacet
  facet normal 0 0 1
    outer loop
      vertex 22.5595 1.20557 6.99
      vertex 22.4294 1.31097 6.99
      vertex 21.3 0 6.99
    endloop
  endfacet
  facet normal 0 0 1
    outer loop
      vertex 22.4294 1.31097 6.99
      vertex 22.311 1.42939 6.99
      vertex 21.3 1.35 6.99
    endloop
  endfacet
  facet normal 0 0 1
    outer loop
      vertex 22.311 1.42939 6.99
      vertex 22.2056 1.55954 6.99
      vertex 21.3 1.35 6.99
    endloop
  endfacet
  facet normal 0 0 1
    outer loop
      vertex 22.2056 1.55954 6.99
      vertex 22.1144 1.7 6.99
      vertex 21.3 1.35 6.99
    endloop
  endfacet
  facet normal 0 0 1
    outer loop
      vertex 22.1144 1.7 6.99
      vertex 22.0383 1.84922 6.99
      vertex 21.3 1.35 6.99
    endloop
  endfacet
  facet normal 0 0 1
    outer loop
      vertex 22.0383 1.84922 6.99
      vertex 21.9783 2.00557 6.99
      vertex 21.3 1.35 6.99
    endloop
  endfacet
  facet normal 0 0 1
    outer loop
      vertex 21.9783 2.00557 6.99
      vertex 21.935 2.16734 6.99
      vertex 21.3 1.35 6.99
    endloop
  endfacet
  facet normal 0 0 1
    outer loop
      vertex 21.935 2.16734 6.99
      vertex 21.9088 2.33275 6.99
      vertex 21.3 1.35 6.99
    endloop
  endfacet
  facet normal 0 0 1
    outer loop
      vertex 45.4 1.35 6.99
      vertex 46.0088 2.33275 6.99
      vertex 46 2.5 6.99
    endloop
  endfacet
  facet normal 0 0 1
    outer loop
      vertex 45.4 0 6.99
      vertex 49.8 0 6.99
      vertex 47.6 0.9 6.99
    endloop
  endfacet
  facet normal 0 0 1
    outer loop
      vertex 45.4 3.65 6.99
      vertex 46 2.5 6.99
      vertex 46.0088 2.66725 6.99
    endloop
  endfacet
  facet normal 0 0 1
    outer loop
      vertex 45.4 3.65 6.99
      vertex 46.5294 3.68903 6.99
      vertex 45.4 5 6.99
    endloop
  endfacet
  facet normal 0 0 1
    outer loop
      vertex 45.4 3.65 6.99
      vertex 46.035 2.83266 6.99
      vertex 46.0783 2.99443 6.99
    endloop
  endfacet
  facet normal 0 0 1
    outer loop
      vertex 45.4 3.65 6.99
      vertex 46.0783 2.99443 6.99
      vertex 46.1383 3.15078 6.99
    endloop
  endfacet
  facet normal 0 0 1
    outer loop
      vertex 45.4 3.65 6.99
      vertex 46.1383 3.15078 6.99
      vertex 46.2144 3.3 6.99
    endloop
  endfacet
  facet normal 0 0 1
    outer loop
      vertex 45.4 3.65 6.99
      vertex 46.2144 3.3 6.99
      vertex 46.3056 3.44046 6.99
    endloop
  endfacet
  facet normal 0 0 1
    outer loop
      vertex 45.4 3.65 6.99
      vertex 46.3056 3.44046 6.99
      vertex 46.411 3.57061 6.99
    endloop
  endfacet
  facet normal -0 0 1
    outer loop
      vertex 45.4 3.65 6.99
      vertex 46.411 3.57061 6.99
      vertex 46.5294 3.68903 6.99
    endloop
  endfacet
  facet normal 0 0 1
    outer loop
      vertex 45.4 5 6.99
      vertex 46.5294 3.68903 6.99
      vertex 46.6595 3.79443 6.99
    endloop
  endfacet
  facet normal 0 0 1
    outer loop
      vertex 45.4 5 6.99
      vertex 46.6595 3.79443 6.99
      vertex 46.8 3.88564 6.99
    endloop
  endfacet
  facet normal 0 0 1
    outer loop
      vertex 45.4 5 6.99
      vertex 46.8 3.88564 6.99
      vertex 46.9492 3.96167 6.99
    endloop
  endfacet
  facet normal 0 0 1
    outer loop
      vertex 45.4 5 6.99
      vertex 46.9492 3.96167 6.99
      vertex 47.1056 4.02169 6.99
    endloop
  endfacet
  facet normal -0 0 1
    outer loop
      vertex 45.4 5 6.99
      vertex 47.6 4.1 6.99
      vertex 49.8 5 6.99
    endloop
  endfacet
  facet normal 0 -0 1
    outer loop
      vertex 47.1056 4.02169 6.99
      vertex 47.2673 4.06504 6.99
      vertex 45.4 5 6.99
    endloop
  endfacet
  facet normal 0 -0 1
    outer loop
      vertex 47.2673 4.06504 6.99
      vertex 47.4328 4.09124 6.99
      vertex 45.4 5 6.99
    endloop
  endfacet
  facet normal 0 -0 1
    outer loop
      vertex 47.4328 4.09124 6.99
      vertex 47.6 4.1 6.99
      vertex 45.4 5 6.99
    endloop
  endfacet
  facet normal -0 0 1
    outer loop
      vertex 47.6 4.1 6.99
      vertex 47.7672 4.09124 6.99
      vertex 49.8 5 6.99
    endloop
  endfacet
  facet normal 0 -0 1
    outer loop
      vertex 49.8 1.35 6.99
      vertex 49.8 3.65 6.99
      vertex 49.2 2.5 6.99
    endloop
  endfacet
  facet normal -0 0 1
    outer loop
      vertex 47.7672 4.09124 6.99
      vertex 47.9327 4.06504 6.99
      vertex 49.8 5 6.99
    endloop
  endfacet
  facet normal -0 0 1
    outer loop
      vertex 48.6706 3.68903 6.99
      vertex 49.8 3.65 6.99
      vertex 49.8 5 6.99
    endloop
  endfacet
  facet normal 0 -0 1
    outer loop
      vertex 48.0944 4.02169 6.99
      vertex 49.8 5 6.99
      vertex 47.9327 4.06504 6.99
    endloop
  endfacet
  facet normal 0 -0 1
    outer loop
      vertex 48.2508 3.96167 6.99
      vertex 49.8 5 6.99
      vertex 48.0944 4.02169 6.99
    endloop
  endfacet
  facet normal 0 -0 1
    outer loop
      vertex 48.4 3.88564 6.99
      vertex 49.8 5 6.99
      vertex 48.2508 3.96167 6.99
    endloop
  endfacet
  facet normal 0 -0 1
    outer loop
      vertex 48.5405 3.79443 6.99
      vertex 49.8 5 6.99
      vertex 48.4 3.88564 6.99
    endloop
  endfacet
  facet normal 0 -0 1
    outer loop
      vertex 48.6706 3.68903 6.99
      vertex 49.8 5 6.99
      vertex 48.5405 3.79443 6.99
    endloop
  endfacet
  facet normal 0 -0 1
    outer loop
      vertex 48.789 3.57061 6.99
      vertex 49.8 3.65 6.99
      vertex 48.6706 3.68903 6.99
    endloop
  endfacet
  facet normal 0 -0 1
    outer loop
      vertex 48.8944 3.44046 6.99
      vertex 49.8 3.65 6.99
      vertex 48.789 3.57061 6.99
    endloop
  endfacet
  facet normal 0 -0 1
    outer loop
      vertex 48.9856 3.3 6.99
      vertex 49.8 3.65 6.99
      vertex 48.8944 3.44046 6.99
    endloop
  endfacet
  facet normal 0 0 1
    outer loop
      vertex 49.8 3.65 6.99
      vertex 49.0617 3.15078 6.99
      vertex 49.1217 2.99443 6.99
    endloop
  endfacet
  facet normal 0 -0 1
    outer loop
      vertex 49.0617 3.15078 6.99
      vertex 49.8 3.65 6.99
      vertex 48.9856 3.3 6.99
    endloop
  endfacet
  facet normal 0 0 1
    outer loop
      vertex 49.8 3.65 6.99
      vertex 49.1217 2.99443 6.99
      vertex 49.165 2.83266 6.99
    endloop
  endfacet
  facet normal 0 0 1
    outer loop
      vertex 49.8 3.65 6.99
      vertex 49.165 2.83266 6.99
      vertex 49.1912 2.66725 6.99
    endloop
  endfacet
  facet normal 0 0 1
    outer loop
      vertex 49.8 3.65 6.99
      vertex 49.1912 2.66725 6.99
      vertex 49.2 2.5 6.99
    endloop
  endfacet
  facet normal 0 0 1
    outer loop
      vertex 49.8 1.35 6.99
      vertex 49.2 2.5 6.99
      vertex 49.1912 2.33275 6.99
    endloop
  endfacet
  facet normal 0 0 1
    outer loop
      vertex 49.8 1.35 6.99
      vertex 48.6706 1.31097 6.99
      vertex 49.8 0 6.99
    endloop
  endfacet
  facet normal -0 0 1
    outer loop
      vertex 49.165 2.16734 6.99
      vertex 49.8 1.35 6.99
      vertex 49.1912 2.33275 6.99
    endloop
  endfacet
  facet normal -0 0 1
    outer loop
      vertex 49.1217 2.00557 6.99
      vertex 49.8 1.35 6.99
      vertex 49.165 2.16734 6.99
    endloop
  endfacet
  facet normal -0 0 1
    outer loop
      vertex 49.0617 1.84922 6.99
      vertex 49.8 1.35 6.99
      vertex 49.1217 2.00557 6.99
    endloop
  endfacet
  facet normal -0 0 1
    outer loop
      vertex 48.9856 1.7 6.99
      vertex 49.8 1.35 6.99
      vertex 49.0617 1.84922 6.99
    endloop
  endfacet
  facet normal -0 0 1
    outer loop
      vertex 48.8944 1.55954 6.99
      vertex 49.8 1.35 6.99
      vertex 48.9856 1.7 6.99
    endloop
  endfacet
  facet normal -0 0 1
    outer loop
      vertex 48.789 1.42939 6.99
      vertex 49.8 1.35 6.99
      vertex 48.8944 1.55954 6.99
    endloop
  endfacet
  facet normal 0 0 1
    outer loop
      vertex 48.6706 1.31097 6.99
      vertex 49.8 1.35 6.99
      vertex 48.789 1.42939 6.99
    endloop
  endfacet
  facet normal -0 0 1
    outer loop
      vertex 48.5405 1.20557 6.99
      vertex 49.8 0 6.99
      vertex 48.6706 1.31097 6.99
    endloop
  endfacet
  facet normal -0 0 1
    outer loop
      vertex 48.4 1.11436 6.99
      vertex 49.8 0 6.99
      vertex 48.5405 1.20557 6.99
    endloop
  endfacet
  facet normal -0 0 1
    outer loop
      vertex 48.2508 1.03833 6.99
      vertex 49.8 0 6.99
      vertex 48.4 1.11436 6.99
    endloop
  endfacet
  facet normal 0 0 1
    outer loop
      vertex 49.8 0 6.99
      vertex 48.0944 0.97831 6.99
      vertex 47.9327 0.934964 6.99
    endloop
  endfacet
  facet normal -0 0 1
    outer loop
      vertex 48.0944 0.97831 6.99
      vertex 49.8 0 6.99
      vertex 48.2508 1.03833 6.99
    endloop
  endfacet
  facet normal 0 0 1
    outer loop
      vertex 49.8 0 6.99
      vertex 47.9327 0.934964 6.99
      vertex 47.7672 0.908765 6.99
    endloop
  endfacet
  facet normal 0 0 1
    outer loop
      vertex 49.8 0 6.99
      vertex 47.7672 0.908765 6.99
      vertex 47.6 0.9 6.99
    endloop
  endfacet
  facet normal 0 0 1
    outer loop
      vertex 45.4 0 6.99
      vertex 47.6 0.9 6.99
      vertex 47.4328 0.908765 6.99
    endloop
  endfacet
  facet normal 0 0 1
    outer loop
      vertex 45.4 0 6.99
      vertex 47.4328 0.908765 6.99
      vertex 47.2673 0.934964 6.99
    endloop
  endfacet
  facet normal 0 0 1
    outer loop
      vertex 45.4 0 6.99
      vertex 46.5294 1.31097 6.99
      vertex 45.4 1.35 6.99
    endloop
  endfacet
  facet normal 0 0 1
    outer loop
      vertex 47.2673 0.934964 6.99
      vertex 47.1056 0.97831 6.99
      vertex 45.4 0 6.99
    endloop
  endfacet
  facet normal 0 0 1
    outer loop
      vertex 47.1056 0.97831 6.99
      vertex 46.9492 1.03833 6.99
      vertex 45.4 0 6.99
    endloop
  endfacet
  facet normal 0 0 1
    outer loop
      vertex 46.9492 1.03833 6.99
      vertex 46.8 1.11436 6.99
      vertex 45.4 0 6.99
    endloop
  endfacet
  facet normal 0 0 1
    outer loop
      vertex 46.8 1.11436 6.99
      vertex 46.6595 1.20557 6.99
      vertex 45.4 0 6.99
    endloop
  endfacet
  facet normal 0 0 1
    outer loop
      vertex 46.6595 1.20557 6.99
      vertex 46.5294 1.31097 6.99
      vertex 45.4 0 6.99
    endloop
  endfacet
  facet normal 0 0 1
    outer loop
      vertex 46.5294 1.31097 6.99
      vertex 46.411 1.42939 6.99
      vertex 45.4 1.35 6.99
    endloop
  endfacet
  facet normal 0 0 1
    outer loop
      vertex 46.411 1.42939 6.99
      vertex 46.3056 1.55954 6.99
      vertex 45.4 1.35 6.99
    endloop
  endfacet
  facet normal 0 0 1
    outer loop
      vertex 46.3056 1.55954 6.99
      vertex 46.2144 1.7 6.99
      vertex 45.4 1.35 6.99
    endloop
  endfacet
  facet normal 0 0 1
    outer loop
      vertex 46.2144 1.7 6.99
      vertex 46.1383 1.84922 6.99
      vertex 45.4 1.35 6.99
    endloop
  endfacet
  facet normal 0 0 1
    outer loop
      vertex 46.1383 1.84922 6.99
      vertex 46.0783 2.00557 6.99
      vertex 45.4 1.35 6.99
    endloop
  endfacet
  facet normal 0 0 1
    outer loop
      vertex 46.0783 2.00557 6.99
      vertex 46.035 2.16734 6.99
      vertex 45.4 1.35 6.99
    endloop
  endfacet
  facet normal 0 0 1
    outer loop
      vertex 46.035 2.16734 6.99
      vertex 46.0088 2.33275 6.99
      vertex 45.4 1.35 6.99
    endloop
  endfacet
  facet normal 1 0 0
    outer loop
      vertex 3.1 1.35 5
      vertex 3.1 0 6.99
      vertex 3.1 0 5
    endloop
  endfacet
  facet normal 1 0 -0
    outer loop
      vertex 3.1 1.35 5
      vertex 3.1 1.35 6.99
      vertex 3.1 0 6.99
    endloop
  endfacet
  facet normal 1 0 0
    outer loop
      vertex 3.1 5 5
      vertex 3.1 3.65 6.99
      vertex 3.1 3.65 5
    endloop
  endfacet
  facet normal 1 0 -0
    outer loop
      vertex 3.1 5 5
      vertex 3.1 5 6.99
      vertex 3.1 3.65 6.99
    endloop
  endfacet
  facet normal -1 0 0
    outer loop
      vertex 66.9 0 5
      vertex 66.9 0 6.99
      vertex 66.9 1.35 5
    endloop
  endfacet
  facet normal -1 0 0
    outer loop
      vertex 66.9 1.35 5
      vertex 66.9 0 6.99
      vertex 66.9 1.35 6.99
    endloop
  endfacet
  facet normal -1 0 0
    outer loop
      vertex 66.9 3.65 5
      vertex 66.9 3.65 6.99
      vertex 66.9 5 5
    endloop
  endfacet
  facet normal -1 0 0
    outer loop
      vertex 66.9 5 5
      vertex 66.9 3.65 6.99
      vertex 66.9 5 6.99
    endloop
  endfacet
  facet normal 1 0 0
    outer loop
      vertex 70 1.35 5
      vertex 70 0 6.99
      vertex 70 0 5
    endloop
  endfacet
  facet normal 1 0 -0
    outer loop
      vertex 70 1.35 5
      vertex 70 1.35 6.99
      vertex 70 0 6.99
    endloop
  endfacet
  facet normal 1 0 0
    outer loop
      vertex 70 5 5
      vertex 70 3.65 6.99
      vertex 70 3.65 5
    endloop
  endfacet
  facet normal 1 0 -0
    outer loop
      vertex 70 5 5
      vertex 70 5 6.99
      vertex 70 3.65 6.99
    endloop
  endfacet
  facet normal -1 0 0
    outer loop
      vertex 45.4 0 5
      vertex 45.4 0 6.99
      vertex 45.4 1.35 5
    endloop
  endfacet
  facet normal -1 0 0
    outer loop
      vertex 45.4 1.35 5
      vertex 45.4 0 6.99
      vertex 45.4 1.35 6.99
    endloop
  endfacet
  facet normal -1 0 0
    outer loop
      vertex 45.4 3.65 5
      vertex 45.4 3.65 6.99
      vertex 45.4 5 5
    endloop
  endfacet
  facet normal -1 0 0
    outer loop
      vertex 45.4 5 5
      vertex 45.4 3.65 6.99
      vertex 45.4 5 6.99
    endloop
  endfacet
  facet normal 1 0 0
    outer loop
      vertex 49.8 1.35 5
      vertex 49.8 0 6.99
      vertex 49.8 0 5
    endloop
  endfacet
  facet normal 1 0 -0
    outer loop
      vertex 49.8 1.35 5
      vertex 49.8 1.35 6.99
      vertex 49.8 0 6.99
    endloop
  endfacet
  facet normal 1 0 0
    outer loop
      vertex 49.8 5 5
      vertex 49.8 3.65 6.99
      vertex 49.8 3.65 5
    endloop
  endfacet
  facet normal 1 0 -0
    outer loop
      vertex 49.8 5 5
      vertex 49.8 5 6.99
      vertex 49.8 3.65 6.99
    endloop
  endfacet
  facet normal -1 0 0
    outer loop
      vertex 21.3 0 5
      vertex 21.3 0 6.99
      vertex 21.3 1.35 5
    endloop
  endfacet
  facet normal -1 0 0
    outer loop
      vertex 21.3 1.35 5
      vertex 21.3 0 6.99
      vertex 21.3 1.35 6.99
    endloop
  endfacet
  facet normal -1 0 0
    outer loop
      vertex 21.3 3.65 5
      vertex 21.3 3.65 6.99
      vertex 21.3 5 5
    endloop
  endfacet
  facet normal -1 0 0
    outer loop
      vertex 21.3 5 5
      vertex 21.3 3.65 6.99
      vertex 21.3 5 6.99
    endloop
  endfacet
  facet normal 1 0 0
    outer loop
      vertex 25.7 1.35 5
      vertex 25.7 0 6.99
      vertex 25.7 0 5
    endloop
  endfacet
  facet normal 1 0 -0
    outer loop
      vertex 25.7 1.35 5
      vertex 25.7 1.35 6.99
      vertex 25.7 0 6.99
    endloop
  endfacet
  facet normal 1 0 0
    outer loop
      vertex 25.7 5 5
      vertex 25.7 3.65 6.99
      vertex 25.7 3.65 5
    endloop
  endfacet
  facet normal 1 0 -0
    outer loop
      vertex 25.7 5 5
      vertex 25.7 5 6.99
      vertex 25.7 3.65 6.99
    endloop
  endfacet
  facet normal 0.99863 0.052336 -0
    outer loop
      vertex 21.9 2.5 0
      vertex 21.9 2.5 6.99
      vertex 21.9088 2.33275 6.99
    endloop
  endfacet
  facet normal 0.99863 0.052336 -0
    outer loop
      vertex 21.9088 2.33275 0
      vertex 21.9 2.5 0
      vertex 21.9088 2.33275 6.99
    endloop
  endfacet
  facet normal 0.052336 -0.99863 0
    outer loop
      vertex 23.3328 4.09124 6.99
      vertex 23.5 4.1 0
      vertex 23.5 4.1 6.99
    endloop
  endfacet
  facet normal 0.052336 -0.99863 0
    outer loop
      vertex 23.3328 4.09124 6.99
      vertex 23.3328 4.09124 0
      vertex 23.5 4.1 0
    endloop
  endfacet
  facet normal -0.156434 0.987688 0
    outer loop
      vertex 23.8327 0.934964 6.99
      vertex 23.8327 0.934964 0
      vertex 23.6672 0.908765 6.99
    endloop
  endfacet
  facet normal -0.156434 0.987688 0
    outer loop
      vertex 23.6672 0.908765 6.99
      vertex 23.8327 0.934964 0
      vertex 23.6672 0.908765 0
    endloop
  endfacet
  facet normal 0.838671 -0.544639 0
    outer loop
      vertex 22.1144 3.3 6.99
      vertex 22.2056 3.44046 0
      vertex 22.2056 3.44046 6.99
    endloop
  endfacet
  facet normal 0.838671 -0.544639 0
    outer loop
      vertex 22.1144 3.3 6.99
      vertex 22.1144 3.3 0
      vertex 22.2056 3.44046 0
    endloop
  endfacet
  facet normal 0.93358 -0.358368 0
    outer loop
      vertex 21.9783 2.99443 6.99
      vertex 22.0383 3.15078 0
      vertex 22.0383 3.15078 6.99
    endloop
  endfacet
  facet normal 0.93358 -0.358368 0
    outer loop
      vertex 21.9783 2.99443 6.99
      vertex 21.9783 2.99443 0
      vertex 22.0383 3.15078 0
    endloop
  endfacet
  facet normal -0.99863 -0.052336 -0
    outer loop
      vertex 25.1 2.5 6.99
      vertex 25.0912 2.66725 0
      vertex 25.1 2.5 0
    endloop
  endfacet
  facet normal -0.99863 -0.052336 0
    outer loop
      vertex 25.1 2.5 6.99
      vertex 25.0912 2.66725 6.99
      vertex 25.0912 2.66725 0
    endloop
  endfacet
  facet normal -0.358368 0.93358 0
    outer loop
      vertex 24.1508 1.03833 6.99
      vertex 24.1508 1.03833 0
      vertex 23.9944 0.97831 6.99
    endloop
  endfacet
  facet normal -0.358368 0.93358 0
    outer loop
      vertex 23.9944 0.97831 6.99
      vertex 24.1508 1.03833 0
      vertex 23.9944 0.97831 0
    endloop
  endfacet
  facet normal -0.62932 -0.777146 0
    outer loop
      vertex 24.4405 3.79443 6.99
      vertex 24.5706 3.68903 0
      vertex 24.5706 3.68903 6.99
    endloop
  endfacet
  facet normal -0.62932 -0.777146 -0
    outer loop
      vertex 24.4405 3.79443 6.99
      vertex 24.4405 3.79443 0
      vertex 24.5706 3.68903 0
    endloop
  endfacet
  facet normal 0.99863 -0.052336 0
    outer loop
      vertex 21.9 2.5 6.99
      vertex 21.9088 2.66725 0
      vertex 21.9088 2.66725 6.99
    endloop
  endfacet
  facet normal 0.99863 -0.052336 0
    outer loop
      vertex 21.9 2.5 6.99
      vertex 21.9 2.5 0
      vertex 21.9088 2.66725 0
    endloop
  endfacet
  facet normal -0.99863 0.052336 0
    outer loop
      vertex 25.1 2.5 6.99
      vertex 25.1 2.5 0
      vertex 25.0912 2.33275 6.99
    endloop
  endfacet
  facet normal -0.99863 0.052336 0
    outer loop
      vertex 25.0912 2.33275 6.99
      vertex 25.1 2.5 0
      vertex 25.0912 2.33275 0
    endloop
  endfacet
  facet normal -0.93358 -0.358368 -0
    outer loop
      vertex 25.0217 2.99443 6.99
      vertex 24.9617 3.15078 0
      vertex 25.0217 2.99443 0
    endloop
  endfacet
  facet normal -0.93358 -0.358368 0
    outer loop
      vertex 25.0217 2.99443 6.99
      vertex 24.9617 3.15078 6.99
      vertex 24.9617 3.15078 0
    endloop
  endfacet
  facet normal -0.258819 -0.965926 0
    outer loop
      vertex 23.8327 4.06504 6.99
      vertex 23.9944 4.02169 0
      vertex 23.9944 4.02169 6.99
    endloop
  endfacet
  facet normal -0.258819 -0.965926 -0
    outer loop
      vertex 23.8327 4.06504 6.99
      vertex 23.8327 4.06504 0
      vertex 23.9944 4.02169 0
    endloop
  endfacet
  facet normal -0.156434 -0.987688 0
    outer loop
      vertex 23.6672 4.09124 6.99
      vertex 23.8327 4.06504 0
      vertex 23.8327 4.06504 6.99
    endloop
  endfacet
  facet normal -0.156434 -0.987688 -0
    outer loop
      vertex 23.6672 4.09124 6.99
      vertex 23.6672 4.09124 0
      vertex 23.8327 4.06504 0
    endloop
  endfacet
  facet normal 0.707107 0.707107 -0
    outer loop
      vertex 22.311 1.42939 0
      vertex 22.311 1.42939 6.99
      vertex 22.4294 1.31097 6.99
    endloop
  endfacet
  facet normal 0.707107 0.707107 -0
    outer loop
      vertex 22.4294 1.31097 0
      vertex 22.311 1.42939 0
      vertex 22.4294 1.31097 6.99
    endloop
  endfacet
  facet normal 0.838671 0.544639 -0
    outer loop
      vertex 22.1144 1.7 0
      vertex 22.1144 1.7 6.99
      vertex 22.2056 1.55954 6.99
    endloop
  endfacet
  facet normal 0.838671 0.544639 -0
    outer loop
      vertex 22.2056 1.55954 0
      vertex 22.1144 1.7 0
      vertex 22.2056 1.55954 6.99
    endloop
  endfacet
  facet normal -0.93358 0.358368 0
    outer loop
      vertex 25.0217 2.00557 6.99
      vertex 25.0217 2.00557 0
      vertex 24.9617 1.84922 6.99
    endloop
  endfacet
  facet normal -0.93358 0.358368 0
    outer loop
      vertex 24.9617 1.84922 6.99
      vertex 25.0217 2.00557 0
      vertex 24.9617 1.84922 0
    endloop
  endfacet
  facet normal -0.258819 0.965926 0
    outer loop
      vertex 23.9944 0.97831 6.99
      vertex 23.9944 0.97831 0
      vertex 23.8327 0.934964 6.99
    endloop
  endfacet
  facet normal -0.258819 0.965926 0
    outer loop
      vertex 23.8327 0.934964 6.99
      vertex 23.9944 0.97831 0
      vertex 23.8327 0.934964 0
    endloop
  endfacet
  facet normal -0.965926 -0.258819 -0
    outer loop
      vertex 25.065 2.83266 6.99
      vertex 25.0217 2.99443 0
      vertex 25.065 2.83266 0
    endloop
  endfacet
  facet normal -0.965926 -0.258819 0
    outer loop
      vertex 25.065 2.83266 6.99
      vertex 25.0217 2.99443 6.99
      vertex 25.0217 2.99443 0
    endloop
  endfacet
  facet normal -0.987688 -0.156434 -0
    outer loop
      vertex 25.0912 2.66725 6.99
      vertex 25.065 2.83266 0
      vertex 25.0912 2.66725 0
    endloop
  endfacet
  facet normal -0.987688 -0.156434 0
    outer loop
      vertex 25.0912 2.66725 6.99
      vertex 25.065 2.83266 6.99
      vertex 25.065 2.83266 0
    endloop
  endfacet
  facet normal -0.891007 -0.45399 -0
    outer loop
      vertex 24.9617 3.15078 6.99
      vertex 24.8856 3.3 0
      vertex 24.9617 3.15078 0
    endloop
  endfacet
  facet normal -0.891007 -0.45399 0
    outer loop
      vertex 24.9617 3.15078 6.99
      vertex 24.8856 3.3 6.99
      vertex 24.8856 3.3 0
    endloop
  endfacet
  facet normal -0.838671 -0.544639 -0
    outer loop
      vertex 24.8856 3.3 6.99
      vertex 24.7944 3.44046 0
      vertex 24.8856 3.3 0
    endloop
  endfacet
  facet normal -0.838671 -0.544639 0
    outer loop
      vertex 24.8856 3.3 6.99
      vertex 24.7944 3.44046 6.99
      vertex 24.7944 3.44046 0
    endloop
  endfacet
  facet normal -0.777146 -0.62932 -0
    outer loop
      vertex 24.7944 3.44046 6.99
      vertex 24.689 3.57061 0
      vertex 24.7944 3.44046 0
    endloop
  endfacet
  facet normal -0.777146 -0.62932 0
    outer loop
      vertex 24.7944 3.44046 6.99
      vertex 24.689 3.57061 6.99
      vertex 24.689 3.57061 0
    endloop
  endfacet
  facet normal -0.052336 -0.99863 0
    outer loop
      vertex 23.5 4.1 6.99
      vertex 23.6672 4.09124 0
      vertex 23.6672 4.09124 6.99
    endloop
  endfacet
  facet normal -0.052336 -0.99863 -0
    outer loop
      vertex 23.5 4.1 6.99
      vertex 23.5 4.1 0
      vertex 23.6672 4.09124 0
    endloop
  endfacet
  facet normal -0.45399 -0.891007 0
    outer loop
      vertex 24.1508 3.96167 6.99
      vertex 24.3 3.88564 0
      vertex 24.3 3.88564 6.99
    endloop
  endfacet
  facet normal -0.45399 -0.891007 -0
    outer loop
      vertex 24.1508 3.96167 6.99
      vertex 24.1508 3.96167 0
      vertex 24.3 3.88564 0
    endloop
  endfacet
  facet normal -0.544639 -0.838671 0
    outer loop
      vertex 24.3 3.88564 6.99
      vertex 24.4405 3.79443 0
      vertex 24.4405 3.79443 6.99
    endloop
  endfacet
  facet normal -0.544639 -0.838671 -0
    outer loop
      vertex 24.3 3.88564 6.99
      vertex 24.3 3.88564 0
      vertex 24.4405 3.79443 0
    endloop
  endfacet
  facet normal 0.62932 -0.777146 0
    outer loop
      vertex 22.4294 3.68903 6.99
      vertex 22.5595 3.79443 0
      vertex 22.5595 3.79443 6.99
    endloop
  endfacet
  facet normal 0.62932 -0.777146 0
    outer loop
      vertex 22.4294 3.68903 6.99
      vertex 22.4294 3.68903 0
      vertex 22.5595 3.79443 0
    endloop
  endfacet
  facet normal 0.358368 -0.93358 0
    outer loop
      vertex 22.8492 3.96167 6.99
      vertex 23.0056 4.02169 0
      vertex 23.0056 4.02169 6.99
    endloop
  endfacet
  facet normal 0.358368 -0.93358 0
    outer loop
      vertex 22.8492 3.96167 6.99
      vertex 22.8492 3.96167 0
      vertex 23.0056 4.02169 0
    endloop
  endfacet
  facet normal 0.45399 -0.891007 0
    outer loop
      vertex 22.7 3.88564 6.99
      vertex 22.8492 3.96167 0
      vertex 22.8492 3.96167 6.99
    endloop
  endfacet
  facet normal 0.45399 -0.891007 0
    outer loop
      vertex 22.7 3.88564 6.99
      vertex 22.7 3.88564 0
      vertex 22.8492 3.96167 0
    endloop
  endfacet
  facet normal 0.052336 0.99863 0
    outer loop
      vertex 23.5 0.9 6.99
      vertex 23.5 0.9 0
      vertex 23.3328 0.908765 6.99
    endloop
  endfacet
  facet normal 0.052336 0.99863 0
    outer loop
      vertex 23.3328 0.908765 6.99
      vertex 23.5 0.9 0
      vertex 23.3328 0.908765 0
    endloop
  endfacet
  facet normal -0.052336 0.99863 0
    outer loop
      vertex 23.6672 0.908765 6.99
      vertex 23.6672 0.908765 0
      vertex 23.5 0.9 6.99
    endloop
  endfacet
  facet normal -0.052336 0.99863 0
    outer loop
      vertex 23.5 0.9 6.99
      vertex 23.6672 0.908765 0
      vertex 23.5 0.9 0
    endloop
  endfacet
  facet normal 0.62932 0.777146 0
    outer loop
      vertex 22.5595 1.20557 6.99
      vertex 22.5595 1.20557 0
      vertex 22.4294 1.31097 6.99
    endloop
  endfacet
  facet normal 0.62932 0.777146 0
    outer loop
      vertex 22.4294 1.31097 6.99
      vertex 22.5595 1.20557 0
      vertex 22.4294 1.31097 0
    endloop
  endfacet
  facet normal 0.891007 0.45399 -0
    outer loop
      vertex 22.0383 1.84922 0
      vertex 22.0383 1.84922 6.99
      vertex 22.1144 1.7 6.99
    endloop
  endfacet
  facet normal 0.891007 0.45399 -0
    outer loop
      vertex 22.1144 1.7 0
      vertex 22.0383 1.84922 0
      vertex 22.1144 1.7 6.99
    endloop
  endfacet
  facet normal 0.93358 0.358368 -0
    outer loop
      vertex 21.9783 2.00557 0
      vertex 21.9783 2.00557 6.99
      vertex 22.0383 1.84922 6.99
    endloop
  endfacet
  facet normal 0.93358 0.358368 -0
    outer loop
      vertex 22.0383 1.84922 0
      vertex 21.9783 2.00557 0
      vertex 22.0383 1.84922 6.99
    endloop
  endfacet
  facet normal 0.965926 0.258819 -0
    outer loop
      vertex 21.935 2.16734 0
      vertex 21.935 2.16734 6.99
      vertex 21.9783 2.00557 6.99
    endloop
  endfacet
  facet normal 0.965926 0.258819 -0
    outer loop
      vertex 21.9783 2.00557 0
      vertex 21.935 2.16734 0
      vertex 21.9783 2.00557 6.99
    endloop
  endfacet
  facet normal 0.987688 0.156434 -0
    outer loop
      vertex 21.9088 2.33275 0
      vertex 21.9088 2.33275 6.99
      vertex 21.935 2.16734 6.99
    endloop
  endfacet
  facet normal 0.987688 0.156434 -0
    outer loop
      vertex 21.935 2.16734 0
      vertex 21.9088 2.33275 0
      vertex 21.935 2.16734 6.99
    endloop
  endfacet
  facet normal -0.965926 0.258819 0
    outer loop
      vertex 25.065 2.16734 6.99
      vertex 25.065 2.16734 0
      vertex 25.0217 2.00557 6.99
    endloop
  endfacet
  facet normal -0.965926 0.258819 0
    outer loop
      vertex 25.0217 2.00557 6.99
      vertex 25.065 2.16734 0
      vertex 25.0217 2.00557 0
    endloop
  endfacet
  facet normal -0.45399 0.891007 0
    outer loop
      vertex 24.3 1.11436 6.99
      vertex 24.3 1.11436 0
      vertex 24.1508 1.03833 6.99
    endloop
  endfacet
  facet normal -0.45399 0.891007 0
    outer loop
      vertex 24.1508 1.03833 6.99
      vertex 24.3 1.11436 0
      vertex 24.1508 1.03833 0
    endloop
  endfacet
  facet normal -0.707107 0.707107 0
    outer loop
      vertex 24.689 1.42939 6.99
      vertex 24.689 1.42939 0
      vertex 24.5706 1.31097 6.99
    endloop
  endfacet
  facet normal -0.707107 0.707107 0
    outer loop
      vertex 24.5706 1.31097 6.99
      vertex 24.689 1.42939 0
      vertex 24.5706 1.31097 0
    endloop
  endfacet
  facet normal -0.544639 0.838671 0
    outer loop
      vertex 24.4405 1.20557 6.99
      vertex 24.4405 1.20557 0
      vertex 24.3 1.11436 6.99
    endloop
  endfacet
  facet normal -0.544639 0.838671 0
    outer loop
      vertex 24.3 1.11436 6.99
      vertex 24.4405 1.20557 0
      vertex 24.3 1.11436 0
    endloop
  endfacet
  facet normal -0.707107 -0.707107 -0
    outer loop
      vertex 24.689 3.57061 6.99
      vertex 24.5706 3.68903 0
      vertex 24.689 3.57061 0
    endloop
  endfacet
  facet normal -0.707107 -0.707107 0
    outer loop
      vertex 24.689 3.57061 6.99
      vertex 24.5706 3.68903 6.99
      vertex 24.5706 3.68903 0
    endloop
  endfacet
  facet normal -0.358368 -0.93358 0
    outer loop
      vertex 23.9944 4.02169 6.99
      vertex 24.1508 3.96167 0
      vertex 24.1508 3.96167 6.99
    endloop
  endfacet
  facet normal -0.358368 -0.93358 -0
    outer loop
      vertex 23.9944 4.02169 6.99
      vertex 23.9944 4.02169 0
      vertex 24.1508 3.96167 0
    endloop
  endfacet
  facet normal 0.707107 -0.707107 0
    outer loop
      vertex 22.311 3.57061 6.99
      vertex 22.4294 3.68903 0
      vertex 22.4294 3.68903 6.99
    endloop
  endfacet
  facet normal 0.707107 -0.707107 0
    outer loop
      vertex 22.311 3.57061 6.99
      vertex 22.311 3.57061 0
      vertex 22.4294 3.68903 0
    endloop
  endfacet
  facet normal 0.544639 -0.838671 0
    outer loop
      vertex 22.5595 3.79443 6.99
      vertex 22.7 3.88564 0
      vertex 22.7 3.88564 6.99
    endloop
  endfacet
  facet normal 0.544639 -0.838671 0
    outer loop
      vertex 22.5595 3.79443 6.99
      vertex 22.5595 3.79443 0
      vertex 22.7 3.88564 0
    endloop
  endfacet
  facet normal 0.258819 -0.965926 0
    outer loop
      vertex 23.0056 4.02169 6.99
      vertex 23.1673 4.06504 0
      vertex 23.1673 4.06504 6.99
    endloop
  endfacet
  facet normal 0.258819 -0.965926 0
    outer loop
      vertex 23.0056 4.02169 6.99
      vertex 23.0056 4.02169 0
      vertex 23.1673 4.06504 0
    endloop
  endfacet
  facet normal 0.156434 -0.987688 0
    outer loop
      vertex 23.1673 4.06504 6.99
      vertex 23.3328 4.09124 0
      vertex 23.3328 4.09124 6.99
    endloop
  endfacet
  facet normal 0.156434 -0.987688 0
    outer loop
      vertex 23.1673 4.06504 6.99
      vertex 23.1673 4.06504 0
      vertex 23.3328 4.09124 0
    endloop
  endfacet
  facet normal 0.891007 -0.45399 0
    outer loop
      vertex 22.0383 3.15078 6.99
      vertex 22.1144 3.3 0
      vertex 22.1144 3.3 6.99
    endloop
  endfacet
  facet normal 0.891007 -0.45399 0
    outer loop
      vertex 22.0383 3.15078 6.99
      vertex 22.0383 3.15078 0
      vertex 22.1144 3.3 0
    endloop
  endfacet
  facet normal 0.777146 -0.62932 0
    outer loop
      vertex 22.2056 3.44046 6.99
      vertex 22.311 3.57061 0
      vertex 22.311 3.57061 6.99
    endloop
  endfacet
  facet normal 0.777146 -0.62932 0
    outer loop
      vertex 22.2056 3.44046 6.99
      vertex 22.2056 3.44046 0
      vertex 22.311 3.57061 0
    endloop
  endfacet
  facet normal 0.987688 -0.156434 0
    outer loop
      vertex 21.9088 2.66725 6.99
      vertex 21.935 2.83266 0
      vertex 21.935 2.83266 6.99
    endloop
  endfacet
  facet normal 0.987688 -0.156434 0
    outer loop
      vertex 21.9088 2.66725 6.99
      vertex 21.9088 2.66725 0
      vertex 21.935 2.83266 0
    endloop
  endfacet
  facet normal 0.156434 0.987688 0
    outer loop
      vertex 23.3328 0.908765 6.99
      vertex 23.3328 0.908765 0
      vertex 23.1673 0.934964 6.99
    endloop
  endfacet
  facet normal 0.156434 0.987688 0
    outer loop
      vertex 23.1673 0.934964 6.99
      vertex 23.3328 0.908765 0
      vertex 23.1673 0.934964 0
    endloop
  endfacet
  facet normal 0.777146 0.62932 -0
    outer loop
      vertex 22.2056 1.55954 0
      vertex 22.2056 1.55954 6.99
      vertex 22.311 1.42939 6.99
    endloop
  endfacet
  facet normal 0.777146 0.62932 -0
    outer loop
      vertex 22.311 1.42939 0
      vertex 22.2056 1.55954 0
      vertex 22.311 1.42939 6.99
    endloop
  endfacet
  facet normal -0.987688 0.156434 0
    outer loop
      vertex 25.0912 2.33275 6.99
      vertex 25.0912 2.33275 0
      vertex 25.065 2.16734 6.99
    endloop
  endfacet
  facet normal -0.987688 0.156434 0
    outer loop
      vertex 25.065 2.16734 6.99
      vertex 25.0912 2.33275 0
      vertex 25.065 2.16734 0
    endloop
  endfacet
  facet normal -0.777146 0.62932 0
    outer loop
      vertex 24.7944 1.55954 6.99
      vertex 24.7944 1.55954 0
      vertex 24.689 1.42939 6.99
    endloop
  endfacet
  facet normal -0.777146 0.62932 0
    outer loop
      vertex 24.689 1.42939 6.99
      vertex 24.7944 1.55954 0
      vertex 24.689 1.42939 0
    endloop
  endfacet
  facet normal -0.62932 0.777146 0
    outer loop
      vertex 24.5706 1.31097 6.99
      vertex 24.5706 1.31097 0
      vertex 24.4405 1.20557 6.99
    endloop
  endfacet
  facet normal -0.62932 0.777146 0
    outer loop
      vertex 24.4405 1.20557 6.99
      vertex 24.5706 1.31097 0
      vertex 24.4405 1.20557 0
    endloop
  endfacet
  facet normal -0.891007 0.45399 0
    outer loop
      vertex 24.9617 1.84922 6.99
      vertex 24.9617 1.84922 0
      vertex 24.8856 1.7 6.99
    endloop
  endfacet
  facet normal -0.891007 0.45399 0
    outer loop
      vertex 24.8856 1.7 6.99
      vertex 24.9617 1.84922 0
      vertex 24.8856 1.7 0
    endloop
  endfacet
  facet normal -0.838671 0.544639 0
    outer loop
      vertex 24.8856 1.7 6.99
      vertex 24.8856 1.7 0
      vertex 24.7944 1.55954 6.99
    endloop
  endfacet
  facet normal -0.838671 0.544639 0
    outer loop
      vertex 24.7944 1.55954 6.99
      vertex 24.8856 1.7 0
      vertex 24.7944 1.55954 0
    endloop
  endfacet
  facet normal 0.965926 -0.258819 0
    outer loop
      vertex 21.935 2.83266 6.99
      vertex 21.9783 2.99443 0
      vertex 21.9783 2.99443 6.99
    endloop
  endfacet
  facet normal 0.965926 -0.258819 0
    outer loop
      vertex 21.935 2.83266 6.99
      vertex 21.935 2.83266 0
      vertex 21.9783 2.99443 0
    endloop
  endfacet
  facet normal 0.258819 0.965926 0
    outer loop
      vertex 23.1673 0.934964 6.99
      vertex 23.1673 0.934964 0
      vertex 23.0056 0.97831 6.99
    endloop
  endfacet
  facet normal 0.258819 0.965926 0
    outer loop
      vertex 23.0056 0.97831 6.99
      vertex 23.1673 0.934964 0
      vertex 23.0056 0.97831 0
    endloop
  endfacet
  facet normal 0.358368 0.93358 0
    outer loop
      vertex 23.0056 0.97831 6.99
      vertex 23.0056 0.97831 0
      vertex 22.8492 1.03833 6.99
    endloop
  endfacet
  facet normal 0.358368 0.93358 0
    outer loop
      vertex 22.8492 1.03833 6.99
      vertex 23.0056 0.97831 0
      vertex 22.8492 1.03833 0
    endloop
  endfacet
  facet normal 0.45399 0.891007 0
    outer loop
      vertex 22.8492 1.03833 6.99
      vertex 22.8492 1.03833 0
      vertex 22.7 1.11436 6.99
    endloop
  endfacet
  facet normal 0.45399 0.891007 0
    outer loop
      vertex 22.7 1.11436 6.99
      vertex 22.8492 1.03833 0
      vertex 22.7 1.11436 0
    endloop
  endfacet
  facet normal 0.544639 0.838671 0
    outer loop
      vertex 22.7 1.11436 6.99
      vertex 22.7 1.11436 0
      vertex 22.5595 1.20557 6.99
    endloop
  endfacet
  facet normal 0.544639 0.838671 0
    outer loop
      vertex 22.5595 1.20557 6.99
      vertex 22.7 1.11436 0
      vertex 22.5595 1.20557 0
    endloop
  endfacet
  facet normal 0.99863 0.052336 -0
    outer loop
      vertex 46 2.5 0
      vertex 46 2.5 6.99
      vertex 46.0088 2.33275 6.99
    endloop
  endfacet
  facet normal 0.99863 0.052336 -0
    outer loop
      vertex 46.0088 2.33275 0
      vertex 46 2.5 0
      vertex 46.0088 2.33275 6.99
    endloop
  endfacet
  facet normal 0.052336 -0.99863 0
    outer loop
      vertex 47.4328 4.09124 6.99
      vertex 47.6 4.1 0
      vertex 47.6 4.1 6.99
    endloop
  endfacet
  facet normal 0.052336 -0.99863 0
    outer loop
      vertex 47.4328 4.09124 6.99
      vertex 47.4328 4.09124 0
      vertex 47.6 4.1 0
    endloop
  endfacet
  facet normal -0.156434 0.987688 0
    outer loop
      vertex 47.9327 0.934964 6.99
      vertex 47.9327 0.934964 0
      vertex 47.7672 0.908765 6.99
    endloop
  endfacet
  facet normal -0.156434 0.987688 0
    outer loop
      vertex 47.7672 0.908765 6.99
      vertex 47.9327 0.934964 0
      vertex 47.7672 0.908765 0
    endloop
  endfacet
  facet normal 0.93358 -0.358368 0
    outer loop
      vertex 46.0783 2.99443 6.99
      vertex 46.1383 3.15078 0
      vertex 46.1383 3.15078 6.99
    endloop
  endfacet
  facet normal 0.93358 -0.358368 0
    outer loop
      vertex 46.0783 2.99443 6.99
      vertex 46.0783 2.99443 0
      vertex 46.1383 3.15078 0
    endloop
  endfacet
  facet normal -0.99863 -0.052336 -0
    outer loop
      vertex 49.2 2.5 6.99
      vertex 49.1912 2.66725 0
      vertex 49.2 2.5 0
    endloop
  endfacet
  facet normal -0.99863 -0.052336 0
    outer loop
      vertex 49.2 2.5 6.99
      vertex 49.1912 2.66725 6.99
      vertex 49.1912 2.66725 0
    endloop
  endfacet
  facet normal -0.891007 -0.45399 -0
    outer loop
      vertex 49.0617 3.15078 6.99
      vertex 48.9856 3.3 0
      vertex 49.0617 3.15078 0
    endloop
  endfacet
  facet normal -0.891007 -0.45399 0
    outer loop
      vertex 49.0617 3.15078 6.99
      vertex 48.9856 3.3 6.99
      vertex 48.9856 3.3 0
    endloop
  endfacet
  facet normal 0.156434 0.987688 0
    outer loop
      vertex 47.4328 0.908765 6.99
      vertex 47.4328 0.908765 0
      vertex 47.2673 0.934964 6.99
    endloop
  endfacet
  facet normal 0.156434 0.987688 0
    outer loop
      vertex 47.2673 0.934964 6.99
      vertex 47.4328 0.908765 0
      vertex 47.2673 0.934964 0
    endloop
  endfacet
  facet normal 0.93358 0.358368 -0
    outer loop
      vertex 46.0783 2.00557 0
      vertex 46.0783 2.00557 6.99
      vertex 46.1383 1.84922 6.99
    endloop
  endfacet
  facet normal 0.93358 0.358368 -0
    outer loop
      vertex 46.1383 1.84922 0
      vertex 46.0783 2.00557 0
      vertex 46.1383 1.84922 6.99
    endloop
  endfacet
  facet normal -0.987688 0.156434 0
    outer loop
      vertex 49.1912 2.33275 6.99
      vertex 49.1912 2.33275 0
      vertex 49.165 2.16734 6.99
    endloop
  endfacet
  facet normal -0.987688 0.156434 0
    outer loop
      vertex 49.165 2.16734 6.99
      vertex 49.1912 2.33275 0
      vertex 49.165 2.16734 0
    endloop
  endfacet
  facet normal -0.258819 0.965926 0
    outer loop
      vertex 48.0944 0.97831 6.99
      vertex 48.0944 0.97831 0
      vertex 47.9327 0.934964 6.99
    endloop
  endfacet
  facet normal -0.258819 0.965926 0
    outer loop
      vertex 47.9327 0.934964 6.99
      vertex 48.0944 0.97831 0
      vertex 47.9327 0.934964 0
    endloop
  endfacet
  facet normal -0.62932 -0.777146 0
    outer loop
      vertex 48.5405 3.79443 6.99
      vertex 48.6706 3.68903 0
      vertex 48.6706 3.68903 6.99
    endloop
  endfacet
  facet normal -0.62932 -0.777146 -0
    outer loop
      vertex 48.5405 3.79443 6.99
      vertex 48.5405 3.79443 0
      vertex 48.6706 3.68903 0
    endloop
  endfacet
  facet normal -0.258819 -0.965926 0
    outer loop
      vertex 47.9327 4.06504 6.99
      vertex 48.0944 4.02169 0
      vertex 48.0944 4.02169 6.99
    endloop
  endfacet
  facet normal -0.258819 -0.965926 -0
    outer loop
      vertex 47.9327 4.06504 6.99
      vertex 47.9327 4.06504 0
      vertex 48.0944 4.02169 0
    endloop
  endfacet
  facet normal -0.156434 -0.987688 0
    outer loop
      vertex 47.7672 4.09124 6.99
      vertex 47.9327 4.06504 0
      vertex 47.9327 4.06504 6.99
    endloop
  endfacet
  facet normal -0.156434 -0.987688 -0
    outer loop
      vertex 47.7672 4.09124 6.99
      vertex 47.7672 4.09124 0
      vertex 47.9327 4.06504 0
    endloop
  endfacet
  facet normal -0.45399 -0.891007 0
    outer loop
      vertex 48.2508 3.96167 6.99
      vertex 48.4 3.88564 0
      vertex 48.4 3.88564 6.99
    endloop
  endfacet
  facet normal -0.45399 -0.891007 -0
    outer loop
      vertex 48.2508 3.96167 6.99
      vertex 48.2508 3.96167 0
      vertex 48.4 3.88564 0
    endloop
  endfacet
  facet normal -0.052336 0.99863 0
    outer loop
      vertex 47.7672 0.908765 6.99
      vertex 47.7672 0.908765 0
      vertex 47.6 0.9 6.99
    endloop
  endfacet
  facet normal -0.052336 0.99863 0
    outer loop
      vertex 47.6 0.9 6.99
      vertex 47.7672 0.908765 0
      vertex 47.6 0.9 0
    endloop
  endfacet
  facet normal 0.707107 0.707107 0
    outer loop
      vertex 46.5294 1.31097 6.99
      vertex 46.5294 1.31097 0
      vertex 46.411 1.42939 6.99
    endloop
  endfacet
  facet normal 0.707107 0.707107 0
    outer loop
      vertex 46.411 1.42939 6.99
      vertex 46.5294 1.31097 0
      vertex 46.411 1.42939 0
    endloop
  endfacet
  facet normal 0.99863 -0.052336 0
    outer loop
      vertex 46 2.5 6.99
      vertex 46.0088 2.66725 0
      vertex 46.0088 2.66725 6.99
    endloop
  endfacet
  facet normal 0.99863 -0.052336 0
    outer loop
      vertex 46 2.5 6.99
      vertex 46 2.5 0
      vertex 46.0088 2.66725 0
    endloop
  endfacet
  facet normal -0.838671 0.544639 0
    outer loop
      vertex 48.9856 1.7 6.99
      vertex 48.9856 1.7 0
      vertex 48.8944 1.55954 6.99
    endloop
  endfacet
  facet normal -0.838671 0.544639 0
    outer loop
      vertex 48.8944 1.55954 6.99
      vertex 48.9856 1.7 0
      vertex 48.8944 1.55954 0
    endloop
  endfacet
  facet normal -0.45399 0.891007 0
    outer loop
      vertex 48.4 1.11436 6.99
      vertex 48.4 1.11436 0
      vertex 48.2508 1.03833 6.99
    endloop
  endfacet
  facet normal -0.45399 0.891007 0
    outer loop
      vertex 48.2508 1.03833 6.99
      vertex 48.4 1.11436 0
      vertex 48.2508 1.03833 0
    endloop
  endfacet
  facet normal -0.965926 -0.258819 -0
    outer loop
      vertex 49.165 2.83266 6.99
      vertex 49.1217 2.99443 0
      vertex 49.165 2.83266 0
    endloop
  endfacet
  facet normal -0.965926 -0.258819 0
    outer loop
      vertex 49.165 2.83266 6.99
      vertex 49.1217 2.99443 6.99
      vertex 49.1217 2.99443 0
    endloop
  endfacet
  facet normal -0.987688 -0.156434 -0
    outer loop
      vertex 49.1912 2.66725 6.99
      vertex 49.165 2.83266 0
      vertex 49.1912 2.66725 0
    endloop
  endfacet
  facet normal -0.987688 -0.156434 0
    outer loop
      vertex 49.1912 2.66725 6.99
      vertex 49.165 2.83266 6.99
      vertex 49.165 2.83266 0
    endloop
  endfacet
  facet normal -0.052336 -0.99863 0
    outer loop
      vertex 47.6 4.1 6.99
      vertex 47.7672 4.09124 0
      vertex 47.7672 4.09124 6.99
    endloop
  endfacet
  facet normal -0.052336 -0.99863 -0
    outer loop
      vertex 47.6 4.1 6.99
      vertex 47.6 4.1 0
      vertex 47.7672 4.09124 0
    endloop
  endfacet
  facet normal -0.358368 -0.93358 0
    outer loop
      vertex 48.0944 4.02169 6.99
      vertex 48.2508 3.96167 0
      vertex 48.2508 3.96167 6.99
    endloop
  endfacet
  facet normal -0.358368 -0.93358 -0
    outer loop
      vertex 48.0944 4.02169 6.99
      vertex 48.0944 4.02169 0
      vertex 48.2508 3.96167 0
    endloop
  endfacet
  facet normal -0.544639 -0.838671 0
    outer loop
      vertex 48.4 3.88564 6.99
      vertex 48.5405 3.79443 0
      vertex 48.5405 3.79443 6.99
    endloop
  endfacet
  facet normal -0.544639 -0.838671 -0
    outer loop
      vertex 48.4 3.88564 6.99
      vertex 48.4 3.88564 0
      vertex 48.5405 3.79443 0
    endloop
  endfacet
  facet normal 0.45399 -0.891007 0
    outer loop
      vertex 46.8 3.88564 6.99
      vertex 46.9492 3.96167 0
      vertex 46.9492 3.96167 6.99
    endloop
  endfacet
  facet normal 0.45399 -0.891007 0
    outer loop
      vertex 46.8 3.88564 6.99
      vertex 46.8 3.88564 0
      vertex 46.9492 3.96167 0
    endloop
  endfacet
  facet normal 0.358368 -0.93358 0
    outer loop
      vertex 46.9492 3.96167 6.99
      vertex 47.1056 4.02169 0
      vertex 47.1056 4.02169 6.99
    endloop
  endfacet
  facet normal 0.358368 -0.93358 0
    outer loop
      vertex 46.9492 3.96167 6.99
      vertex 46.9492 3.96167 0
      vertex 47.1056 4.02169 0
    endloop
  endfacet
  facet normal 0.156434 -0.987688 0
    outer loop
      vertex 47.2673 4.06504 6.99
      vertex 47.4328 4.09124 0
      vertex 47.4328 4.09124 6.99
    endloop
  endfacet
  facet normal 0.156434 -0.987688 0
    outer loop
      vertex 47.2673 4.06504 6.99
      vertex 47.2673 4.06504 0
      vertex 47.4328 4.09124 0
    endloop
  endfacet
  facet normal 0.62932 0.777146 0
    outer loop
      vertex 46.6595 1.20557 6.99
      vertex 46.6595 1.20557 0
      vertex 46.5294 1.31097 6.99
    endloop
  endfacet
  facet normal 0.62932 0.777146 0
    outer loop
      vertex 46.5294 1.31097 6.99
      vertex 46.6595 1.20557 0
      vertex 46.5294 1.31097 0
    endloop
  endfacet
  facet normal 0.891007 0.45399 -0
    outer loop
      vertex 46.1383 1.84922 0
      vertex 46.1383 1.84922 6.99
      vertex 46.2144 1.7 6.99
    endloop
  endfacet
  facet normal 0.891007 0.45399 -0
    outer loop
      vertex 46.2144 1.7 0
      vertex 46.1383 1.84922 0
      vertex 46.2144 1.7 6.99
    endloop
  endfacet
  facet normal 0.965926 0.258819 -0
    outer loop
      vertex 46.035 2.16734 0
      vertex 46.035 2.16734 6.99
      vertex 46.0783 2.00557 6.99
    endloop
  endfacet
  facet normal 0.965926 0.258819 -0
    outer loop
      vertex 46.0783 2.00557 0
      vertex 46.035 2.16734 0
      vertex 46.0783 2.00557 6.99
    endloop
  endfacet
  facet normal 0.987688 0.156434 -0
    outer loop
      vertex 46.0088 2.33275 0
      vertex 46.0088 2.33275 6.99
      vertex 46.035 2.16734 6.99
    endloop
  endfacet
  facet normal 0.987688 0.156434 -0
    outer loop
      vertex 46.035 2.16734 0
      vertex 46.0088 2.33275 0
      vertex 46.035 2.16734 6.99
    endloop
  endfacet
  facet normal 0.838671 -0.544639 0
    outer loop
      vertex 46.2144 3.3 6.99
      vertex 46.3056 3.44046 0
      vertex 46.3056 3.44046 6.99
    endloop
  endfacet
  facet normal 0.838671 -0.544639 0
    outer loop
      vertex 46.2144 3.3 6.99
      vertex 46.2144 3.3 0
      vertex 46.3056 3.44046 0
    endloop
  endfacet
  facet normal 0.777146 -0.62932 0
    outer loop
      vertex 46.3056 3.44046 6.99
      vertex 46.411 3.57061 0
      vertex 46.411 3.57061 6.99
    endloop
  endfacet
  facet normal 0.777146 -0.62932 0
    outer loop
      vertex 46.3056 3.44046 6.99
      vertex 46.3056 3.44046 0
      vertex 46.411 3.57061 0
    endloop
  endfacet
  facet normal -0.707107 0.707107 0
    outer loop
      vertex 48.789 1.42939 6.99
      vertex 48.789 1.42939 0
      vertex 48.6706 1.31097 6.99
    endloop
  endfacet
  facet normal -0.707107 0.707107 0
    outer loop
      vertex 48.6706 1.31097 6.99
      vertex 48.789 1.42939 0
      vertex 48.6706 1.31097 0
    endloop
  endfacet
  facet normal -0.544639 0.838671 0
    outer loop
      vertex 48.5405 1.20557 6.99
      vertex 48.5405 1.20557 0
      vertex 48.4 1.11436 6.99
    endloop
  endfacet
  facet normal -0.544639 0.838671 0
    outer loop
      vertex 48.4 1.11436 6.99
      vertex 48.5405 1.20557 0
      vertex 48.4 1.11436 0
    endloop
  endfacet
  facet normal -0.62932 0.777146 0
    outer loop
      vertex 48.6706 1.31097 6.99
      vertex 48.6706 1.31097 0
      vertex 48.5405 1.20557 6.99
    endloop
  endfacet
  facet normal -0.62932 0.777146 0
    outer loop
      vertex 48.5405 1.20557 6.99
      vertex 48.6706 1.31097 0
      vertex 48.5405 1.20557 0
    endloop
  endfacet
  facet normal -0.99863 0.052336 0
    outer loop
      vertex 49.2 2.5 6.99
      vertex 49.2 2.5 0
      vertex 49.1912 2.33275 6.99
    endloop
  endfacet
  facet normal -0.99863 0.052336 0
    outer loop
      vertex 49.1912 2.33275 6.99
      vertex 49.2 2.5 0
      vertex 49.1912 2.33275 0
    endloop
  endfacet
  facet normal -0.358368 0.93358 0
    outer loop
      vertex 48.2508 1.03833 6.99
      vertex 48.2508 1.03833 0
      vertex 48.0944 0.97831 6.99
    endloop
  endfacet
  facet normal -0.358368 0.93358 0
    outer loop
      vertex 48.0944 0.97831 6.99
      vertex 48.2508 1.03833 0
      vertex 48.0944 0.97831 0
    endloop
  endfacet
  facet normal -0.93358 -0.358368 -0
    outer loop
      vertex 49.1217 2.99443 6.99
      vertex 49.0617 3.15078 0
      vertex 49.1217 2.99443 0
    endloop
  endfacet
  facet normal -0.93358 -0.358368 0
    outer loop
      vertex 49.1217 2.99443 6.99
      vertex 49.0617 3.15078 6.99
      vertex 49.0617 3.15078 0
    endloop
  endfacet
  facet normal -0.707107 -0.707107 0
    outer loop
      vertex 48.6706 3.68903 6.99
      vertex 48.789 3.57061 0
      vertex 48.789 3.57061 6.99
    endloop
  endfacet
  facet normal -0.707107 -0.707107 -0
    outer loop
      vertex 48.6706 3.68903 6.99
      vertex 48.6706 3.68903 0
      vertex 48.789 3.57061 0
    endloop
  endfacet
  facet normal -0.777146 -0.62932 -0
    outer loop
      vertex 48.8944 3.44046 6.99
      vertex 48.789 3.57061 0
      vertex 48.8944 3.44046 0
    endloop
  endfacet
  facet normal -0.777146 -0.62932 0
    outer loop
      vertex 48.8944 3.44046 6.99
      vertex 48.789 3.57061 6.99
      vertex 48.789 3.57061 0
    endloop
  endfacet
  facet normal -0.838671 -0.544639 -0
    outer loop
      vertex 48.9856 3.3 6.99
      vertex 48.8944 3.44046 0
      vertex 48.9856 3.3 0
    endloop
  endfacet
  facet normal -0.838671 -0.544639 0
    outer loop
      vertex 48.9856 3.3 6.99
      vertex 48.8944 3.44046 6.99
      vertex 48.8944 3.44046 0
    endloop
  endfacet
  facet normal 0.544639 -0.838671 0
    outer loop
      vertex 46.6595 3.79443 6.99
      vertex 46.8 3.88564 0
      vertex 46.8 3.88564 6.99
    endloop
  endfacet
  facet normal 0.544639 -0.838671 0
    outer loop
      vertex 46.6595 3.79443 6.99
      vertex 46.6595 3.79443 0
      vertex 46.8 3.88564 0
    endloop
  endfacet
  facet normal 0.707107 -0.707107 0
    outer loop
      vertex 46.411 3.57061 6.99
      vertex 46.5294 3.68903 0
      vertex 46.5294 3.68903 6.99
    endloop
  endfacet
  facet normal 0.707107 -0.707107 0
    outer loop
      vertex 46.411 3.57061 6.99
      vertex 46.411 3.57061 0
      vertex 46.5294 3.68903 0
    endloop
  endfacet
  facet normal 0.258819 -0.965926 0
    outer loop
      vertex 47.1056 4.02169 6.99
      vertex 47.2673 4.06504 0
      vertex 47.2673 4.06504 6.99
    endloop
  endfacet
  facet normal 0.258819 -0.965926 0
    outer loop
      vertex 47.1056 4.02169 6.99
      vertex 47.1056 4.02169 0
      vertex 47.2673 4.06504 0
    endloop
  endfacet
  facet normal 0.358368 0.93358 0
    outer loop
      vertex 47.1056 0.97831 6.99
      vertex 47.1056 0.97831 0
      vertex 46.9492 1.03833 6.99
    endloop
  endfacet
  facet normal 0.358368 0.93358 0
    outer loop
      vertex 46.9492 1.03833 6.99
      vertex 47.1056 0.97831 0
      vertex 46.9492 1.03833 0
    endloop
  endfacet
  facet normal 0.052336 0.99863 0
    outer loop
      vertex 47.6 0.9 6.99
      vertex 47.6 0.9 0
      vertex 47.4328 0.908765 6.99
    endloop
  endfacet
  facet normal 0.052336 0.99863 0
    outer loop
      vertex 47.4328 0.908765 6.99
      vertex 47.6 0.9 0
      vertex 47.4328 0.908765 0
    endloop
  endfacet
  facet normal 0.777146 0.62932 -0
    outer loop
      vertex 46.3056 1.55954 0
      vertex 46.3056 1.55954 6.99
      vertex 46.411 1.42939 6.99
    endloop
  endfacet
  facet normal 0.777146 0.62932 -0
    outer loop
      vertex 46.411 1.42939 0
      vertex 46.3056 1.55954 0
      vertex 46.411 1.42939 6.99
    endloop
  endfacet
  facet normal 0.838671 0.544639 -0
    outer loop
      vertex 46.2144 1.7 0
      vertex 46.2144 1.7 6.99
      vertex 46.3056 1.55954 6.99
    endloop
  endfacet
  facet normal 0.838671 0.544639 -0
    outer loop
      vertex 46.3056 1.55954 0
      vertex 46.2144 1.7 0
      vertex 46.3056 1.55954 6.99
    endloop
  endfacet
  facet normal 0.891007 -0.45399 0
    outer loop
      vertex 46.1383 3.15078 6.99
      vertex 46.2144 3.3 0
      vertex 46.2144 3.3 6.99
    endloop
  endfacet
  facet normal 0.891007 -0.45399 0
    outer loop
      vertex 46.1383 3.15078 6.99
      vertex 46.1383 3.15078 0
      vertex 46.2144 3.3 0
    endloop
  endfacet
  facet normal 0.965926 -0.258819 0
    outer loop
      vertex 46.035 2.83266 6.99
      vertex 46.0783 2.99443 0
      vertex 46.0783 2.99443 6.99
    endloop
  endfacet
  facet normal 0.965926 -0.258819 0
    outer loop
      vertex 46.035 2.83266 6.99
      vertex 46.035 2.83266 0
      vertex 46.0783 2.99443 0
    endloop
  endfacet
  facet normal -0.891007 0.45399 0
    outer loop
      vertex 49.0617 1.84922 6.99
      vertex 49.0617 1.84922 0
      vertex 48.9856 1.7 6.99
    endloop
  endfacet
  facet normal -0.891007 0.45399 0
    outer loop
      vertex 48.9856 1.7 6.99
      vertex 49.0617 1.84922 0
      vertex 48.9856 1.7 0
    endloop
  endfacet
  facet normal -0.777146 0.62932 0
    outer loop
      vertex 48.8944 1.55954 6.99
      vertex 48.8944 1.55954 0
      vertex 48.789 1.42939 6.99
    endloop
  endfacet
  facet normal -0.777146 0.62932 0
    outer loop
      vertex 48.789 1.42939 6.99
      vertex 48.8944 1.55954 0
      vertex 48.789 1.42939 0
    endloop
  endfacet
  facet normal 0.62932 -0.777146 0
    outer loop
      vertex 46.5294 3.68903 6.99
      vertex 46.6595 3.79443 0
      vertex 46.6595 3.79443 6.99
    endloop
  endfacet
  facet normal 0.62932 -0.777146 0
    outer loop
      vertex 46.5294 3.68903 6.99
      vertex 46.5294 3.68903 0
      vertex 46.6595 3.79443 0
    endloop
  endfacet
  facet normal 0.258819 0.965926 0
    outer loop
      vertex 47.2673 0.934964 6.99
      vertex 47.2673 0.934964 0
      vertex 47.1056 0.97831 6.99
    endloop
  endfacet
  facet normal 0.258819 0.965926 0
    outer loop
      vertex 47.1056 0.97831 6.99
      vertex 47.2673 0.934964 0
      vertex 47.1056 0.97831 0
    endloop
  endfacet
  facet normal 0.45399 0.891007 0
    outer loop
      vertex 46.9492 1.03833 6.99
      vertex 46.9492 1.03833 0
      vertex 46.8 1.11436 6.99
    endloop
  endfacet
  facet normal 0.45399 0.891007 0
    outer loop
      vertex 46.8 1.11436 6.99
      vertex 46.9492 1.03833 0
      vertex 46.8 1.11436 0
    endloop
  endfacet
  facet normal 0.544639 0.838671 0
    outer loop
      vertex 46.8 1.11436 6.99
      vertex 46.8 1.11436 0
      vertex 46.6595 1.20557 6.99
    endloop
  endfacet
  facet normal 0.544639 0.838671 0
    outer loop
      vertex 46.6595 1.20557 6.99
      vertex 46.8 1.11436 0
      vertex 46.6595 1.20557 0
    endloop
  endfacet
  facet normal 0.987688 -0.156434 0
    outer loop
      vertex 46.0088 2.66725 6.99
      vertex 46.035 2.83266 0
      vertex 46.035 2.83266 6.99
    endloop
  endfacet
  facet normal 0.987688 -0.156434 0
    outer loop
      vertex 46.0088 2.66725 6.99
      vertex 46.0088 2.66725 0
      vertex 46.035 2.83266 0
    endloop
  endfacet
  facet normal -0.93358 0.358368 0
    outer loop
      vertex 49.1217 2.00557 6.99
      vertex 49.1217 2.00557 0
      vertex 49.0617 1.84922 6.99
    endloop
  endfacet
  facet normal -0.93358 0.358368 0
    outer loop
      vertex 49.0617 1.84922 6.99
      vertex 49.1217 2.00557 0
      vertex 49.0617 1.84922 0
    endloop
  endfacet
  facet normal -0.965926 0.258819 0
    outer loop
      vertex 49.165 2.16734 6.99
      vertex 49.165 2.16734 0
      vertex 49.1217 2.00557 6.99
    endloop
  endfacet
  facet normal -0.965926 0.258819 0
    outer loop
      vertex 49.1217 2.00557 6.99
      vertex 49.165 2.16734 0
      vertex 49.1217 2.00557 0
    endloop
  endfacet
endsolid OpenSCAD_Model
