solid OpenSCAD_Model
  facet normal 0 0 -1
    outer loop
      vertex -4.84292 -6.24345 -5
      vertex -4.96057 -5.62667 -5
      vertex -5 -5 -5
    endloop
  endfacet
  facet normal 0 0 -1
    outer loop
      vertex -4.84292 -6.24345 -5
      vertex -5 -5 -5
      vertex -4.38153 -7.40877 -5
    endloop
  endfacet
  facet normal 0 0 -1
    outer loop
      vertex -4.84292 -6.24345 -5
      vertex -4.38153 -7.40877 -5
      vertex -4.64888 -6.84062 -5
    endloop
  endfacet
  facet normal 0 0 -1
    outer loop
      vertex -4.38153 -7.40877 -5
      vertex -3.64484 -8.42274 -5
      vertex -4.04508 -7.93893 -5
    endloop
  endfacet
  facet normal 0 0 -1
    outer loop
      vertex -4.38153 -7.40877 -5
      vertex -5 -5 -5
      vertex -3.64484 -8.42274 -5
    endloop
  endfacet
  facet normal 0 0 -1
    outer loop
      vertex -3.64484 -8.42274 -5
      vertex -2.67913 -9.22164 -5
      vertex -3.18712 -8.85257 -5
    endloop
  endfacet
  facet normal 0 0 -1
    outer loop
      vertex -3.64484 -8.42274 -5
      vertex 2.1289 -9.52414 -5
      vertex -2.67913 -9.22164 -5
    endloop
  endfacet
  facet normal -0 0 -1
    outer loop
      vertex 1.54508 -9.75528 -5
      vertex 0.936907 -9.91144 -5
      vertex 2.1289 -9.52414 -5
    endloop
  endfacet
  facet normal 0 0 -1
    outer loop
      vertex -2.1289 -9.52414 -5
      vertex -0.936907 -9.91144 -5
      vertex -1.54508 -9.75528 -5
    endloop
  endfacet
  facet normal 0 0 -1
    outer loop
      vertex 0.313953 -9.99013 -5
      vertex -0.313953 -9.99013 -5
      vertex -0.936907 -9.91144 -5
    endloop
  endfacet
  facet normal -0 0 -1
    outer loop
      vertex 0.936907 -9.91144 -5
      vertex 0.313953 -9.99013 -5
      vertex -0.936907 -9.91144 -5
    endloop
  endfacet
  facet normal 0 0 -1
    outer loop
      vertex -2.1289 -9.52414 -5
      vertex 0.936907 -9.91144 -5
      vertex -0.936907 -9.91144 -5
    endloop
  endfacet
  facet normal -0 0 -1
    outer loop
      vertex 2.1289 -9.52414 -5
      vertex 0.936907 -9.91144 -5
      vertex -2.1289 -9.52414 -5
    endloop
  endfacet
  facet normal 0 0 -1
    outer loop
      vertex -2.67913 -9.22164 -5
      vertex 2.1289 -9.52414 -5
      vertex -2.1289 -9.52414 -5
    endloop
  endfacet
  facet normal 0 0 -1
    outer loop
      vertex -3.64484 -8.42274 -5
      vertex -5 -5 -5
      vertex 2.1289 -9.52414 -5
    endloop
  endfacet
  facet normal 0 0 -1
    outer loop
      vertex 2.1289 -9.52414 -5
      vertex 3.18712 -8.85257 -5
      vertex 2.67913 -9.22164 -5
    endloop
  endfacet
  facet normal 0 0 -1
    outer loop
      vertex 2.1289 -9.52414 -5
      vertex 3.64484 -8.42274 -5
      vertex 3.18712 -8.85257 -5
    endloop
  endfacet
  facet normal 0 0 -1
    outer loop
      vertex 2.1289 -9.52414 -5
      vertex 4.04508 -7.93893 -5
      vertex 3.64484 -8.42274 -5
    endloop
  endfacet
  facet normal 0 0 -1
    outer loop
      vertex 2.1289 -9.52414 -5
      vertex 4.38153 -7.40877 -5
      vertex 4.04508 -7.93893 -5
    endloop
  endfacet
  facet normal 0 0 -1
    outer loop
      vertex 4.84292 -6.24345 -5
      vertex 4.64888 -6.84062 -5
      vertex 4.38153 -7.40877 -5
    endloop
  endfacet
  facet normal 0 0 -1
    outer loop
      vertex 2.1289 -9.52414 -5
      vertex 4.84292 -6.24345 -5
      vertex 4.38153 -7.40877 -5
    endloop
  endfacet
  facet normal 0 0 -1
    outer loop
      vertex 2.1289 -9.52414 -5
      vertex -5 -5 -5
      vertex 4.84292 -6.24345 -5
    endloop
  endfacet
  facet normal 0 0 -1
    outer loop
      vertex 4.84292 -6.24345 -5
      vertex -5 -5 -5
      vertex 4.96057 -5.62667 -5
    endloop
  endfacet
  facet normal 0 0 -1
    outer loop
      vertex 4.96057 -5.62667 -5
      vertex -5 -5 -5
      vertex 5 -5 -5
    endloop
  endfacet
  facet normal 0 0 -1
    outer loop
      vertex 5 -5 -5
      vertex -5 -5 -5
      vertex 5 5 -5
    endloop
  endfacet
  facet normal -0 0 -1
    outer loop
      vertex 5 5 -5
      vertex -5 -5 -5
      vertex -5 5 -5
    endloop
  endfacet
  facet normal -0 -0 -1
    outer loop
      vertex 4.96057 5.62666 -5
      vertex 5 5 -5
      vertex 4.84291 6.24344 -5
    endloop
  endfacet
  facet normal 0 -0 -1
    outer loop
      vertex 4.84291 6.24344 -5
      vertex 5 5 -5
      vertex -5 5 -5
    endloop
  endfacet
  facet normal 0 0 -1
    outer loop
      vertex 4.64888 6.84062 -5
      vertex 4.04507 7.93892 -5
      vertex 4.38153 7.40877 -5
    endloop
  endfacet
  facet normal -0 -0 -1
    outer loop
      vertex 4.64888 6.84062 -5
      vertex 4.84291 6.24344 -5
      vertex 4.04507 7.93892 -5
    endloop
  endfacet
  facet normal -0 -0 -1
    outer loop
      vertex 4.04507 7.93892 -5
      vertex 4.84291 6.24344 -5
      vertex 3.53552 8.53552 -5
    endloop
  endfacet
  facet normal -0 -0 -1
    outer loop
      vertex 3.64484 8.42273 -5
      vertex 4.04507 7.93892 -5
      vertex 3.53552 8.53552 -5
    endloop
  endfacet
  facet normal -0 0 -1
    outer loop
      vertex 3.53552 8.53552 -5
      vertex -4.84291 6.24344 -5
      vertex -3.53552 8.53552 -5
    endloop
  endfacet
  facet normal -0 0 -1
    outer loop
      vertex 2.07104 10 -5
      vertex -3.53552 8.53552 -5
      vertex -2.07104 10 -5
    endloop
  endfacet
  facet normal 0 -0 -1
    outer loop
      vertex 2.07104 10 -5
      vertex 3.53552 8.53552 -5
      vertex -3.53552 8.53552 -5
    endloop
  endfacet
  facet normal 0 -0 -1
    outer loop
      vertex 3.53552 8.53552 -5
      vertex 4.84291 6.24344 -5
      vertex -4.84291 6.24344 -5
    endloop
  endfacet
  facet normal 0 -0 -1
    outer loop
      vertex -3.64484 8.42273 -5
      vertex -3.53552 8.53552 -5
      vertex -4.04507 7.93892 -5
    endloop
  endfacet
  facet normal 0 -0 -1
    outer loop
      vertex -4.04507 7.93892 -5
      vertex -3.53552 8.53552 -5
      vertex -4.84291 6.24344 -5
    endloop
  endfacet
  facet normal 0 -0 -1
    outer loop
      vertex -4.38153 7.40877 -5
      vertex -4.04507 7.93892 -5
      vertex -4.64888 6.84062 -5
    endloop
  endfacet
  facet normal 0 -0 -1
    outer loop
      vertex -4.64888 6.84062 -5
      vertex -4.04507 7.93892 -5
      vertex -4.84291 6.24344 -5
    endloop
  endfacet
  facet normal 0 -0 -1
    outer loop
      vertex -4.84291 6.24344 -5
      vertex 4.84291 6.24344 -5
      vertex -5 5 -5
    endloop
  endfacet
  facet normal 0 -0 -1
    outer loop
      vertex -4.96057 5.62666 -5
      vertex -4.84291 6.24344 -5
      vertex -5 5 -5
    endloop
  endfacet
  facet normal 0 0 1
    outer loop
      vertex -4.84292 -6.24345 5
      vertex -5 -5 5
      vertex -4.96057 -5.62667 5
    endloop
  endfacet
  facet normal -0 -0 1
    outer loop
      vertex -4.84292 -6.24345 5
      vertex -4.38153 -7.40877 5
      vertex -5 -5 5
    endloop
  endfacet
  facet normal 0 0 1
    outer loop
      vertex -4.84292 -6.24345 5
      vertex -4.64888 -6.84062 5
      vertex -4.38153 -7.40877 5
    endloop
  endfacet
  facet normal 0 0 1
    outer loop
      vertex -4.38153 -7.40877 5
      vertex -4.04508 -7.93893 5
      vertex -3.64484 -8.42274 5
    endloop
  endfacet
  facet normal -0 -0 1
    outer loop
      vertex -4.38153 -7.40877 5
      vertex -3.64484 -8.42274 5
      vertex -5 -5 5
    endloop
  endfacet
  facet normal 0 0 1
    outer loop
      vertex -3.64484 -8.42274 5
      vertex -3.18712 -8.85257 5
      vertex -2.67913 -9.22164 5
    endloop
  endfacet
  facet normal 0 0 1
    outer loop
      vertex -3.64484 -8.42274 5
      vertex -2.67913 -9.22164 5
      vertex 2.1289 -9.52414 5
    endloop
  endfacet
  facet normal 0 -0 1
    outer loop
      vertex 1.54508 -9.75528 5
      vertex 2.1289 -9.52414 5
      vertex 0.936907 -9.91144 5
    endloop
  endfacet
  facet normal 0 0 1
    outer loop
      vertex -2.1289 -9.52414 5
      vertex -1.54508 -9.75528 5
      vertex -0.936907 -9.91144 5
    endloop
  endfacet
  facet normal 0 0 1
    outer loop
      vertex 0.313953 -9.99013 5
      vertex -0.936907 -9.91144 5
      vertex -0.313953 -9.99013 5
    endloop
  endfacet
  facet normal 0 0 1
    outer loop
      vertex 0.936907 -9.91144 5
      vertex -0.936907 -9.91144 5
      vertex 0.313953 -9.99013 5
    endloop
  endfacet
  facet normal 0 0 1
    outer loop
      vertex -2.1289 -9.52414 5
      vertex -0.936907 -9.91144 5
      vertex 0.936907 -9.91144 5
    endloop
  endfacet
  facet normal 0 0 1
    outer loop
      vertex 2.1289 -9.52414 5
      vertex -2.1289 -9.52414 5
      vertex 0.936907 -9.91144 5
    endloop
  endfacet
  facet normal 0 0 1
    outer loop
      vertex -2.67913 -9.22164 5
      vertex -2.1289 -9.52414 5
      vertex 2.1289 -9.52414 5
    endloop
  endfacet
  facet normal -0 -0 1
    outer loop
      vertex -3.64484 -8.42274 5
      vertex 2.1289 -9.52414 5
      vertex -5 -5 5
    endloop
  endfacet
  facet normal 0 0 1
    outer loop
      vertex 2.1289 -9.52414 5
      vertex 2.67913 -9.22164 5
      vertex 3.18712 -8.85257 5
    endloop
  endfacet
  facet normal 0 0 1
    outer loop
      vertex 2.1289 -9.52414 5
      vertex 3.18712 -8.85257 5
      vertex 3.64484 -8.42274 5
    endloop
  endfacet
  facet normal 0 0 1
    outer loop
      vertex 2.1289 -9.52414 5
      vertex 3.64484 -8.42274 5
      vertex 4.04508 -7.93893 5
    endloop
  endfacet
  facet normal 0 0 1
    outer loop
      vertex 2.1289 -9.52414 5
      vertex 4.04508 -7.93893 5
      vertex 4.38153 -7.40877 5
    endloop
  endfacet
  facet normal 0 0 1
    outer loop
      vertex 4.84292 -6.24345 5
      vertex 4.38153 -7.40877 5
      vertex 4.64888 -6.84062 5
    endloop
  endfacet
  facet normal 0 0 1
    outer loop
      vertex 2.1289 -9.52414 5
      vertex 4.38153 -7.40877 5
      vertex 4.84292 -6.24345 5
    endloop
  endfacet
  facet normal 0 -0 1
    outer loop
      vertex 2.1289 -9.52414 5
      vertex 4.84292 -6.24345 5
      vertex -5 -5 5
    endloop
  endfacet
  facet normal 0 -0 1
    outer loop
      vertex 4.84292 -6.24345 5
      vertex 4.96057 -5.62667 5
      vertex -5 -5 5
    endloop
  endfacet
  facet normal 0 -0 1
    outer loop
      vertex 4.96057 -5.62667 5
      vertex 5 -5 5
      vertex -5 -5 5
    endloop
  endfacet
  facet normal 0 -0 1
    outer loop
      vertex 5 -5 5
      vertex 5 5 5
      vertex -5 -5 5
    endloop
  endfacet
  facet normal 0 0 1
    outer loop
      vertex 5 5 5
      vertex -5 5 5
      vertex -5 -5 5
    endloop
  endfacet
  facet normal 0 0 1
    outer loop
      vertex 4.96057 5.62666 5
      vertex 4.84291 6.24344 5
      vertex 5 5 5
    endloop
  endfacet
  facet normal 0 0 1
    outer loop
      vertex 4.84291 6.24344 5
      vertex -5 5 5
      vertex 5 5 5
    endloop
  endfacet
  facet normal 0 0 1
    outer loop
      vertex 4.64888 6.84062 5
      vertex 4.38153 7.40877 5
      vertex 4.04507 7.93892 5
    endloop
  endfacet
  facet normal 0 0 1
    outer loop
      vertex 4.64888 6.84062 5
      vertex 4.04507 7.93892 5
      vertex 4.84291 6.24344 5
    endloop
  endfacet
  facet normal 0 0 1
    outer loop
      vertex 4.04507 7.93892 5
      vertex 3.53552 8.53552 5
      vertex 4.84291 6.24344 5
    endloop
  endfacet
  facet normal 0 0 1
    outer loop
      vertex 3.64484 8.42273 5
      vertex 3.53552 8.53552 5
      vertex 4.04507 7.93892 5
    endloop
  endfacet
  facet normal 0 0 1
    outer loop
      vertex 3.53552 8.53552 5
      vertex -3.53552 8.53552 5
      vertex -4.84291 6.24344 5
    endloop
  endfacet
  facet normal 0 0 1
    outer loop
      vertex 2.07104 10 5
      vertex -2.07104 10 5
      vertex -3.53552 8.53552 5
    endloop
  endfacet
  facet normal 0 0 1
    outer loop
      vertex 2.07104 10 5
      vertex -3.53552 8.53552 5
      vertex 3.53552 8.53552 5
    endloop
  endfacet
  facet normal 0 0 1
    outer loop
      vertex 3.53552 8.53552 5
      vertex -4.84291 6.24344 5
      vertex 4.84291 6.24344 5
    endloop
  endfacet
  facet normal -0 0 1
    outer loop
      vertex -3.64484 8.42273 5
      vertex -4.04507 7.93892 5
      vertex -3.53552 8.53552 5
    endloop
  endfacet
  facet normal -0 0 1
    outer loop
      vertex -4.04507 7.93892 5
      vertex -4.84291 6.24344 5
      vertex -3.53552 8.53552 5
    endloop
  endfacet
  facet normal -0 0 1
    outer loop
      vertex -4.38153 7.40877 5
      vertex -4.64888 6.84062 5
      vertex -4.04507 7.93892 5
    endloop
  endfacet
  facet normal -0 0 1
    outer loop
      vertex -4.64888 6.84062 5
      vertex -4.84291 6.24344 5
      vertex -4.04507 7.93892 5
    endloop
  endfacet
  facet normal -0 0 1
    outer loop
      vertex -4.84291 6.24344 5
      vertex -5 5 5
      vertex 4.84291 6.24344 5
    endloop
  endfacet
  facet normal -0 0 1
    outer loop
      vertex -4.96057 5.62666 5
      vertex -5 5 5
      vertex -4.84291 6.24344 5
    endloop
  endfacet
  facet normal -0.998027 -0.0627905 0
    outer loop
      vertex -5 -5 -5
      vertex -4.96057 -5.62667 -5
      vertex -5 -5 5
    endloop
  endfacet
  facet normal -0.998027 -0.0627905 0
    outer loop
      vertex -5 -5 5
      vertex -4.96057 -5.62667 -5
      vertex -4.96057 -5.62667 5
    endloop
  endfacet
  facet normal -0.982287 -0.187381 0
    outer loop
      vertex -4.96057 -5.62667 -5
      vertex -4.84292 -6.24345 -5
      vertex -4.96057 -5.62667 5
    endloop
  endfacet
  facet normal -0.982287 -0.187381 0
    outer loop
      vertex -4.96057 -5.62667 5
      vertex -4.84292 -6.24345 -5
      vertex -4.84292 -6.24345 5
    endloop
  endfacet
  facet normal -0.951057 -0.309017 0
    outer loop
      vertex -4.84292 -6.24345 -5
      vertex -4.64888 -6.84062 -5
      vertex -4.84292 -6.24345 5
    endloop
  endfacet
  facet normal -0.951057 -0.309017 0
    outer loop
      vertex -4.84292 -6.24345 5
      vertex -4.64888 -6.84062 -5
      vertex -4.64888 -6.84062 5
    endloop
  endfacet
  facet normal -0.904827 -0.425779 0
    outer loop
      vertex -4.64888 -6.84062 -5
      vertex -4.38153 -7.40877 -5
      vertex -4.64888 -6.84062 5
    endloop
  endfacet
  facet normal -0.904827 -0.425779 0
    outer loop
      vertex -4.64888 -6.84062 5
      vertex -4.38153 -7.40877 -5
      vertex -4.38153 -7.40877 5
    endloop
  endfacet
  facet normal -0.844328 -0.535827 0
    outer loop
      vertex -4.38153 -7.40877 -5
      vertex -4.04508 -7.93893 -5
      vertex -4.38153 -7.40877 5
    endloop
  endfacet
  facet normal -0.844328 -0.535827 0
    outer loop
      vertex -4.38153 -7.40877 5
      vertex -4.04508 -7.93893 -5
      vertex -4.04508 -7.93893 5
    endloop
  endfacet
  facet normal -0.770513 -0.637424 0
    outer loop
      vertex -4.04508 -7.93893 -5
      vertex -3.64484 -8.42274 -5
      vertex -4.04508 -7.93893 5
    endloop
  endfacet
  facet normal -0.770513 -0.637424 0
    outer loop
      vertex -4.04508 -7.93893 5
      vertex -3.64484 -8.42274 -5
      vertex -3.64484 -8.42274 5
    endloop
  endfacet
  facet normal -0.684547 -0.728969 0
    outer loop
      vertex -3.18712 -8.85257 -5
      vertex -3.64484 -8.42274 5
      vertex -3.64484 -8.42274 -5
    endloop
  endfacet
  facet normal -0.684547 -0.728969 0
    outer loop
      vertex -3.18712 -8.85257 -5
      vertex -3.18712 -8.85257 5
      vertex -3.64484 -8.42274 5
    endloop
  endfacet
  facet normal -0.587785 -0.809017 0
    outer loop
      vertex -2.67913 -9.22164 -5
      vertex -3.18712 -8.85257 5
      vertex -3.18712 -8.85257 -5
    endloop
  endfacet
  facet normal -0.587785 -0.809017 0
    outer loop
      vertex -2.67913 -9.22164 -5
      vertex -2.67913 -9.22164 5
      vertex -3.18712 -8.85257 5
    endloop
  endfacet
  facet normal -0.481754 -0.876307 0
    outer loop
      vertex -2.1289 -9.52414 -5
      vertex -2.67913 -9.22164 5
      vertex -2.67913 -9.22164 -5
    endloop
  endfacet
  facet normal -0.481754 -0.876307 0
    outer loop
      vertex -2.1289 -9.52414 -5
      vertex -2.1289 -9.52414 5
      vertex -2.67913 -9.22164 5
    endloop
  endfacet
  facet normal -0.368125 -0.929776 0
    outer loop
      vertex -1.54508 -9.75528 -5
      vertex -2.1289 -9.52414 5
      vertex -2.1289 -9.52414 -5
    endloop
  endfacet
  facet normal -0.368125 -0.929776 0
    outer loop
      vertex -1.54508 -9.75528 -5
      vertex -1.54508 -9.75528 5
      vertex -2.1289 -9.52414 5
    endloop
  endfacet
  facet normal -0.24869 -0.968583 0
    outer loop
      vertex -0.936907 -9.91144 -5
      vertex -1.54508 -9.75528 5
      vertex -1.54508 -9.75528 -5
    endloop
  endfacet
  facet normal -0.24869 -0.968583 0
    outer loop
      vertex -0.936907 -9.91144 -5
      vertex -0.936907 -9.91144 5
      vertex -1.54508 -9.75528 5
    endloop
  endfacet
  facet normal -0.125333 -0.992115 0
    outer loop
      vertex -0.313953 -9.99013 -5
      vertex -0.936907 -9.91144 5
      vertex -0.936907 -9.91144 -5
    endloop
  endfacet
  facet normal -0.125333 -0.992115 0
    outer loop
      vertex -0.313953 -9.99013 -5
      vertex -0.313953 -9.99013 5
      vertex -0.936907 -9.91144 5
    endloop
  endfacet
  facet normal 0 -1 0
    outer loop
      vertex 0.313953 -9.99013 -5
      vertex -0.313953 -9.99013 5
      vertex -0.313953 -9.99013 -5
    endloop
  endfacet
  facet normal 0 -1 0
    outer loop
      vertex 0.313953 -9.99013 -5
      vertex 0.313953 -9.99013 5
      vertex -0.313953 -9.99013 5
    endloop
  endfacet
  facet normal 0.125333 -0.992115 0
    outer loop
      vertex 0.936907 -9.91144 -5
      vertex 0.313953 -9.99013 5
      vertex 0.313953 -9.99013 -5
    endloop
  endfacet
  facet normal 0.125333 -0.992115 0
    outer loop
      vertex 0.936907 -9.91144 -5
      vertex 0.936907 -9.91144 5
      vertex 0.313953 -9.99013 5
    endloop
  endfacet
  facet normal 0.24869 -0.968583 0
    outer loop
      vertex 1.54508 -9.75528 -5
      vertex 0.936907 -9.91144 5
      vertex 0.936907 -9.91144 -5
    endloop
  endfacet
  facet normal 0.24869 -0.968583 0
    outer loop
      vertex 1.54508 -9.75528 -5
      vertex 1.54508 -9.75528 5
      vertex 0.936907 -9.91144 5
    endloop
  endfacet
  facet normal 0.368125 -0.929776 0
    outer loop
      vertex 2.1289 -9.52414 -5
      vertex 1.54508 -9.75528 5
      vertex 1.54508 -9.75528 -5
    endloop
  endfacet
  facet normal 0.368125 -0.929776 0
    outer loop
      vertex 2.1289 -9.52414 -5
      vertex 2.1289 -9.52414 5
      vertex 1.54508 -9.75528 5
    endloop
  endfacet
  facet normal 0.481754 -0.876307 0
    outer loop
      vertex 2.67913 -9.22164 -5
      vertex 2.1289 -9.52414 5
      vertex 2.1289 -9.52414 -5
    endloop
  endfacet
  facet normal 0.481754 -0.876307 0
    outer loop
      vertex 2.67913 -9.22164 -5
      vertex 2.67913 -9.22164 5
      vertex 2.1289 -9.52414 5
    endloop
  endfacet
  facet normal 0.587785 -0.809017 0
    outer loop
      vertex 3.18712 -8.85257 -5
      vertex 2.67913 -9.22164 5
      vertex 2.67913 -9.22164 -5
    endloop
  endfacet
  facet normal 0.587785 -0.809017 0
    outer loop
      vertex 3.18712 -8.85257 -5
      vertex 3.18712 -8.85257 5
      vertex 2.67913 -9.22164 5
    endloop
  endfacet
  facet normal 0.684547 -0.728969 0
    outer loop
      vertex 3.64484 -8.42274 -5
      vertex 3.18712 -8.85257 5
      vertex 3.18712 -8.85257 -5
    endloop
  endfacet
  facet normal 0.684547 -0.728969 0
    outer loop
      vertex 3.64484 -8.42274 -5
      vertex 3.64484 -8.42274 5
      vertex 3.18712 -8.85257 5
    endloop
  endfacet
  facet normal 0.770513 -0.637424 0
    outer loop
      vertex 4.04508 -7.93893 -5
      vertex 3.64484 -8.42274 5
      vertex 3.64484 -8.42274 -5
    endloop
  endfacet
  facet normal 0.770513 -0.637424 0
    outer loop
      vertex 4.04508 -7.93893 -5
      vertex 4.04508 -7.93893 5
      vertex 3.64484 -8.42274 5
    endloop
  endfacet
  facet normal 0.844328 -0.535827 0
    outer loop
      vertex 4.38153 -7.40877 -5
      vertex 4.04508 -7.93893 5
      vertex 4.04508 -7.93893 -5
    endloop
  endfacet
  facet normal 0.844328 -0.535827 0
    outer loop
      vertex 4.38153 -7.40877 -5
      vertex 4.38153 -7.40877 5
      vertex 4.04508 -7.93893 5
    endloop
  endfacet
  facet normal 0.904827 -0.425779 0
    outer loop
      vertex 4.64888 -6.84062 -5
      vertex 4.38153 -7.40877 5
      vertex 4.38153 -7.40877 -5
    endloop
  endfacet
  facet normal 0.904827 -0.425779 0
    outer loop
      vertex 4.64888 -6.84062 -5
      vertex 4.64888 -6.84062 5
      vertex 4.38153 -7.40877 5
    endloop
  endfacet
  facet normal 0.951057 -0.309017 0
    outer loop
      vertex 4.84292 -6.24345 -5
      vertex 4.64888 -6.84062 5
      vertex 4.64888 -6.84062 -5
    endloop
  endfacet
  facet normal 0.951057 -0.309017 0
    outer loop
      vertex 4.84292 -6.24345 -5
      vertex 4.84292 -6.24345 5
      vertex 4.64888 -6.84062 5
    endloop
  endfacet
  facet normal 0.982287 -0.187381 0
    outer loop
      vertex 4.96057 -5.62667 -5
      vertex 4.84292 -6.24345 5
      vertex 4.84292 -6.24345 -5
    endloop
  endfacet
  facet normal 0.982287 -0.187381 0
    outer loop
      vertex 4.96057 -5.62667 -5
      vertex 4.96057 -5.62667 5
      vertex 4.84292 -6.24345 5
    endloop
  endfacet
  facet normal 0.998027 -0.0627905 0
    outer loop
      vertex 5 -5 -5
      vertex 4.96057 -5.62667 5
      vertex 4.96057 -5.62667 -5
    endloop
  endfacet
  facet normal 0.998027 -0.0627905 0
    outer loop
      vertex 5 -5 -5
      vertex 5 -5 5
      vertex 4.96057 -5.62667 5
    endloop
  endfacet
  facet normal 1 0 0
    outer loop
      vertex 5 5 -5
      vertex 5 -5 5
      vertex 5 -5 -5
    endloop
  endfacet
  facet normal 1 0 -0
    outer loop
      vertex 5 5 -5
      vertex 5 5 5
      vertex 5 -5 5
    endloop
  endfacet
  facet normal 0.998026 0.0627943 0
    outer loop
      vertex 4.96057 5.62666 -5
      vertex 5 5 5
      vertex 5 5 -5
    endloop
  endfacet
  facet normal 0.998026 0.0627943 -0
    outer loop
      vertex 4.96057 5.62666 -5
      vertex 4.96057 5.62666 5
      vertex 5 5 5
    endloop
  endfacet
  facet normal 0.982286 0.187388 0
    outer loop
      vertex 4.84291 6.24344 -5
      vertex 4.96057 5.62666 5
      vertex 4.96057 5.62666 -5
    endloop
  endfacet
  facet normal 0.982286 0.187388 -0
    outer loop
      vertex 4.84291 6.24344 -5
      vertex 4.84291 6.24344 5
      vertex 4.96057 5.62666 5
    endloop
  endfacet
  facet normal 0.951059 0.309009 0
    outer loop
      vertex 4.64888 6.84062 -5
      vertex 4.84291 6.24344 5
      vertex 4.84291 6.24344 -5
    endloop
  endfacet
  facet normal 0.951059 0.309009 -0
    outer loop
      vertex 4.64888 6.84062 -5
      vertex 4.64888 6.84062 5
      vertex 4.84291 6.24344 5
    endloop
  endfacet
  facet normal 0.904827 0.425779 0
    outer loop
      vertex 4.38153 7.40877 -5
      vertex 4.64888 6.84062 5
      vertex 4.64888 6.84062 -5
    endloop
  endfacet
  facet normal 0.904827 0.425779 -0
    outer loop
      vertex 4.38153 7.40877 -5
      vertex 4.38153 7.40877 5
      vertex 4.64888 6.84062 5
    endloop
  endfacet
  facet normal 0.844319 0.53584 0
    outer loop
      vertex 4.04507 7.93892 -5
      vertex 4.38153 7.40877 5
      vertex 4.38153 7.40877 -5
    endloop
  endfacet
  facet normal 0.844319 0.53584 -0
    outer loop
      vertex 4.04507 7.93892 -5
      vertex 4.04507 7.93892 5
      vertex 4.38153 7.40877 5
    endloop
  endfacet
  facet normal 0.770517 0.637419 0
    outer loop
      vertex 3.64484 8.42273 -5
      vertex 4.04507 7.93892 5
      vertex 4.04507 7.93892 -5
    endloop
  endfacet
  facet normal 0.770517 0.637419 -0
    outer loop
      vertex 3.64484 8.42273 -5
      vertex 3.64484 8.42273 5
      vertex 4.04507 7.93892 5
    endloop
  endfacet
  facet normal 0.718095 0.695946 0
    outer loop
      vertex 3.53552 8.53552 -5
      vertex 3.64484 8.42273 5
      vertex 3.64484 8.42273 -5
    endloop
  endfacet
  facet normal 0.718095 0.695946 -0
    outer loop
      vertex 3.53552 8.53552 -5
      vertex 3.53552 8.53552 5
      vertex 3.64484 8.42273 5
    endloop
  endfacet
  facet normal 0.707107 0.707107 0
    outer loop
      vertex 2.07104 10 -5
      vertex 3.53552 8.53552 5
      vertex 3.53552 8.53552 -5
    endloop
  endfacet
  facet normal 0.707107 0.707107 -0
    outer loop
      vertex 2.07104 10 -5
      vertex 2.07104 10 5
      vertex 3.53552 8.53552 5
    endloop
  endfacet
  facet normal 0 1 -0
    outer loop
      vertex 2.07104 10 -5
      vertex -2.07104 10 -5
      vertex 2.07104 10 5
    endloop
  endfacet
  facet normal 0 1 0
    outer loop
      vertex 2.07104 10 5
      vertex -2.07104 10 -5
      vertex -2.07104 10 5
    endloop
  endfacet
  facet normal -0.707107 0.707107 0
    outer loop
      vertex -2.07104 10 -5
      vertex -3.53552 8.53552 -5
      vertex -2.07104 10 5
    endloop
  endfacet
  facet normal -0.707107 0.707107 0
    outer loop
      vertex -2.07104 10 5
      vertex -3.53552 8.53552 -5
      vertex -3.53552 8.53552 5
    endloop
  endfacet
  facet normal -0.718095 0.695946 0
    outer loop
      vertex -3.53552 8.53552 -5
      vertex -3.64484 8.42273 -5
      vertex -3.53552 8.53552 5
    endloop
  endfacet
  facet normal -0.718095 0.695946 0
    outer loop
      vertex -3.53552 8.53552 5
      vertex -3.64484 8.42273 -5
      vertex -3.64484 8.42273 5
    endloop
  endfacet
  facet normal -0.770517 0.637419 0
    outer loop
      vertex -3.64484 8.42273 -5
      vertex -4.04507 7.93892 -5
      vertex -3.64484 8.42273 5
    endloop
  endfacet
  facet normal -0.770517 0.637419 0
    outer loop
      vertex -3.64484 8.42273 5
      vertex -4.04507 7.93892 -5
      vertex -4.04507 7.93892 5
    endloop
  endfacet
  facet normal -0.844319 0.53584 0
    outer loop
      vertex -4.04507 7.93892 -5
      vertex -4.38153 7.40877 -5
      vertex -4.04507 7.93892 5
    endloop
  endfacet
  facet normal -0.844319 0.53584 0
    outer loop
      vertex -4.04507 7.93892 5
      vertex -4.38153 7.40877 -5
      vertex -4.38153 7.40877 5
    endloop
  endfacet
  facet normal -0.904827 0.425779 0
    outer loop
      vertex -4.38153 7.40877 -5
      vertex -4.64888 6.84062 -5
      vertex -4.38153 7.40877 5
    endloop
  endfacet
  facet normal -0.904827 0.425779 0
    outer loop
      vertex -4.38153 7.40877 5
      vertex -4.64888 6.84062 -5
      vertex -4.64888 6.84062 5
    endloop
  endfacet
  facet normal -0.951059 0.309009 0
    outer loop
      vertex -4.64888 6.84062 -5
      vertex -4.84291 6.24344 -5
      vertex -4.64888 6.84062 5
    endloop
  endfacet
  facet normal -0.951059 0.309009 0
    outer loop
      vertex -4.64888 6.84062 5
      vertex -4.84291 6.24344 -5
      vertex -4.84291 6.24344 5
    endloop
  endfacet
  facet normal -0.982286 0.187388 0
    outer loop
      vertex -4.84291 6.24344 -5
      vertex -4.96057 5.62666 -5
      vertex -4.84291 6.24344 5
    endloop
  endfacet
  facet normal -0.982286 0.187388 0
    outer loop
      vertex -4.84291 6.24344 5
      vertex -4.96057 5.62666 -5
      vertex -4.96057 5.62666 5
    endloop
  endfacet
  facet normal -0.998026 0.0627943 0
    outer loop
      vertex -4.96057 5.62666 -5
      vertex -5 5 -5
      vertex -4.96057 5.62666 5
    endloop
  endfacet
  facet normal -0.998026 0.0627943 0
    outer loop
      vertex -4.96057 5.62666 5
      vertex -5 5 -5
      vertex -5 5 5
    endloop
  endfacet
  facet normal -1 0 0
    outer loop
      vertex -5 5 -5
      vertex -5 -5 -5
      vertex -5 5 5
    endloop
  endfacet
  facet normal -1 -0 0
    outer loop
      vertex -5 5 5
      vertex -5 -5 -5
      vertex -5 -5 5
    endloop
  endfacet
endsolid OpenSCAD_Model
