solid OpenSCAD_Model
  facet normal 0.346604 -0.393145 0.851647
    outer loop
      vertex 33.5428 -32.7195 2.3
      vertex 31.2338 -34.7551 2.3
      vertex 34.2274 -36.4484 0.299999
    endloop
  endfacet
  facet normal 0.312807 -0.403268 0.859958
    outer loop
      vertex 31.2338 -34.7551 2.3
      vertex 29.3893 -40.4509 0.299999
      vertex 31.8712 -38.5257 0.299999
    endloop
  endfacet
  facet normal -0.562083 -0.827081 0
    outer loop
      vertex -29.3893 -40.4509 0
      vertex -26.7913 -42.2164 0.299999
      vertex -29.3893 -40.4509 0.299999
    endloop
  endfacet
  facet normal -0.562083 -0.827081 -0
    outer loop
      vertex -26.7913 -42.2164 0.299999
      vertex -29.3893 -40.4509 0
      vertex -26.7913 -42.2164 0
    endloop
  endfacet
  facet normal -0.338738 -0.940881 0
    outer loop
      vertex -18.4062 -46.4888 0
      vertex -15.4508 -47.5528 0.299999
      vertex -18.4062 -46.4888 0.299999
    endloop
  endfacet
  facet normal -0.338738 -0.940881 -0
    outer loop
      vertex -15.4508 -47.5528 0.299999
      vertex -18.4062 -46.4888 0
      vertex -15.4508 -47.5528 0
    endloop
  endfacet
  facet normal 0.752069 -0.168107 0.637285
    outer loop
      vertex 49.1144 -9.36907 0.299999
      vertex 47.4606 -9.1858 2.3
      vertex 48.4292 -12.4345 0.299999
    endloop
  endfacet
  facet normal 0.87694 -0.0275589 0.479809
    outer loop
      vertex 50 0 0.299999
      vertex 49.4404 0 1.32273
      vertex 49.9013 -3.13953 0.299999
    endloop
  endfacet
  facet normal 0.70733 -0.205498 0.676354
    outer loop
      vertex 48.4292 -12.4345 0.299999
      vertex 47.4606 -9.1858 2.3
      vertex 47.5528 -15.4508 0.299999
    endloop
  endfacet
  facet normal 0.827081 -0.562083 0
    outer loop
      vertex 40.4509 -29.3893 0.299999
      vertex 42.2164 -26.7913 0
      vertex 42.2164 -26.7913 0.299999
    endloop
  endfacet
  facet normal 0.827081 -0.562083 0
    outer loop
      vertex 42.2164 -26.7913 0
      vertex 40.4509 -29.3893 0.299999
      vertex 40.4509 -29.3893 0
    endloop
  endfacet
  facet normal -0.707107 -0.707107 0
    outer loop
      vertex -34.2274 -36.4484 0
      vertex -36.4484 -34.2274 0.299999
      vertex -36.4484 -34.2274 0
    endloop
  endfacet
  facet normal -0.707107 -0.707107 0
    outer loop
      vertex -36.4484 -34.2274 0.299999
      vertex -34.2274 -36.4484 0
      vertex -34.2274 -36.4484 0.299999
    endloop
  endfacet
  facet normal 0.999507 -0.0314107 0
    outer loop
      vertex 49.9013 -3.13953 0.299999
      vertex 50 0 0
      vertex 50 0 0.299999
    endloop
  endfacet
  facet normal 0.999507 -0.0314107 0
    outer loop
      vertex 50 0 0
      vertex 49.9013 -3.13953 0.299999
      vertex 49.9013 -3.13953 0
    endloop
  endfacet
  facet normal 0.790154 -0.612908 0
    outer loop
      vertex 38.5257 -31.8712 0.299999
      vertex 40.4509 -29.3893 0
      vertex 40.4509 -29.3893 0.299999
    endloop
  endfacet
  facet normal 0.790154 -0.612908 0
    outer loop
      vertex 40.4509 -29.3893 0
      vertex 38.5257 -31.8712 0.299999
      vertex 38.5257 -31.8712 0
    endloop
  endfacet
  facet normal -0.796069 -0.126086 0.591926
    outer loop
      vertex -48.1321 -6.18168 2.3
      vertex -49.6057 -6.26666 0.299999
      vertex -49.1144 -9.36907 0.299999
    endloop
  endfacet
  facet normal 0.280031 -0.412054 0.86706
    outer loop
      vertex 29.3893 -40.4509 0.299999
      vertex 26.2555 -38.3721 2.3
      vertex 26.7913 -42.2164 0.299999
    endloop
  endfacet
  facet normal 0.612908 -0.790154 0
    outer loop
      vertex 29.3893 -40.4509 0
      vertex 31.8712 -38.5257 0.299999
      vertex 29.3893 -40.4509 0.299999
    endloop
  endfacet
  facet normal 0.612908 -0.790154 0
    outer loop
      vertex 31.8712 -38.5257 0.299999
      vertex 29.3893 -40.4509 0
      vertex 31.8712 -38.5257 0
    endloop
  endfacet
  facet normal 0.618741 -0.267753 0.738558
    outer loop
      vertex 45.559 -15.0381 2.3
      vertex 44.3365 -17.8632 2.3
      vertex 45.2414 -21.289 0.299999
    endloop
  endfacet
  facet normal 0.575845 -0.293408 0.763096
    outer loop
      vertex 44.3365 -17.8632 2.3
      vertex 42.939 -20.6059 2.3
      vertex 43.8153 -24.0877 0.299999
    endloop
  endfacet
  facet normal 0.995562 -0.0941082 0
    outer loop
      vertex 49.6057 -6.26666 0.299999
      vertex 49.9013 -3.13953 0
      vertex 49.9013 -3.13953 0.299999
    endloop
  endfacet
  facet normal 0.995562 -0.0941082 0
    outer loop
      vertex 49.9013 -3.13953 0
      vertex 49.6057 -6.26666 0.299999
      vertex 49.6057 -6.26666 0
    endloop
  endfacet
  facet normal -0.752069 -0.168107 0.637285
    outer loop
      vertex -48.1321 -6.18168 2.3
      vertex -49.1144 -9.36907 0.299999
      vertex -47.4606 -9.1858 2.3
    endloop
  endfacet
  facet normal -0.995562 -0.0941082 0
    outer loop
      vertex -49.6057 -6.26666 0
      vertex -49.9013 -3.13953 0.299999
      vertex -49.9013 -3.13953 0
    endloop
  endfacet
  facet normal -0.995562 -0.0941082 0
    outer loop
      vertex -49.9013 -3.13953 0.299999
      vertex -49.6057 -6.26666 0
      vertex -49.6057 -6.26666 0.299999
    endloop
  endfacet
  facet normal -0.0704872 -0.445036 0.892734
    outer loop
      vertex -6.14133 -45.6136 2.3
      vertex -9.18168 -45.1321 2.3
      vertex -6.26666 -49.6057 0.299999
    endloop
  endfacet
  facet normal 0.127817 -0.439949 0.88888
    outer loop
      vertex 15.1418 -43.6018 2.3
      vertex 12.1858 -44.4606 2.3
      vertex 15.4508 -47.5528 0.299999
    endloop
  endfacet
  facet normal 0.750112 -0.661311 0
    outer loop
      vertex 36.4484 -34.2274 0.299999
      vertex 38.5257 -31.8712 0
      vertex 38.5257 -31.8712 0.299999
    endloop
  endfacet
  facet normal 0.750112 -0.661311 0
    outer loop
      vertex 38.5257 -31.8712 0
      vertex 36.4484 -34.2274 0.299999
      vertex 36.4484 -34.2274 0
    endloop
  endfacet
  facet normal 0.455145 -0.353045 0.817437
    outer loop
      vertex 39.6418 -25.8015 2.3
      vertex 37.7551 -28.2338 2.3
      vertex 40.4509 -29.3893 0.299999
    endloop
  endfacet
  facet normal 0.87694 -0.0275522 0.479809
    outer loop
      vertex 48.9033 -0.0767345 2.3
      vertex 49.4404 0 1.32273
      vertex 48.9057 0 2.3
    endloop
  endfacet
  facet normal 0.87694 -0.0275588 0.479809
    outer loop
      vertex 49.4404 0 1.32273
      vertex 48.9033 -0.0767345 2.3
      vertex 49.9013 -3.13953 0.299999
    endloop
  endfacet
  facet normal 0.975917 -0.218143 0
    outer loop
      vertex 48.4292 -12.4345 0.299999
      vertex 49.1144 -9.36907 0
      vertex 49.1144 -9.36907 0.299999
    endloop
  endfacet
  facet normal 0.975917 -0.218143 0
    outer loop
      vertex 49.1144 -9.36907 0
      vertex 48.4292 -12.4345 0.299999
      vertex 48.4292 -12.4345 0
    endloop
  endfacet
  facet normal 0.960294 -0.278991 0
    outer loop
      vertex 47.5528 -15.4508 0.299999
      vertex 48.4292 -12.4345 0
      vertex 48.4292 -12.4345 0.299999
    endloop
  endfacet
  facet normal 0.960294 -0.278991 0
    outer loop
      vertex 48.4292 -12.4345 0
      vertex 47.5528 -15.4508 0.299999
      vertex 47.5528 -15.4508 0
    endloop
  endfacet
  facet normal -0.662694 -0.238584 0.70987
    outer loop
      vertex -46.6018 -12.1418 2.3
      vertex -47.5528 -15.4508 0.299999
      vertex -45.559 -15.0381 2.3
    endloop
  endfacet
  facet normal -0.917755 -0.397148 0
    outer loop
      vertex -45.2414 -21.289 0
      vertex -46.4888 -18.4062 0.299999
      vertex -46.4888 -18.4062 0
    endloop
  endfacet
  facet normal -0.917755 -0.397148 0
    outer loop
      vertex -46.4888 -18.4062 0.299999
      vertex -45.2414 -21.289 0
      vertex -45.2414 -21.289 0.299999
    endloop
  endfacet
  facet normal -0.186786 -0.431636 0.882497
    outer loop
      vertex -18.0381 -42.559 2.3
      vertex -21.289 -45.2414 0.299999
      vertex -18.4062 -46.4888 0.299999
    endloop
  endfacet
  facet normal -0.157049 -0.436219 0.886029
    outer loop
      vertex -15.1418 -43.6018 2.3
      vertex -18.0381 -42.559 2.3
      vertex -15.4508 -47.5528 0.299999
    endloop
  endfacet
  facet normal -0.218143 -0.975917 0
    outer loop
      vertex -12.4345 -48.4292 0
      vertex -9.36907 -49.1144 0.299999
      vertex -12.4345 -48.4292 0.299999
    endloop
  endfacet
  facet normal -0.218143 -0.975917 -0
    outer loop
      vertex -9.36907 -49.1144 0.299999
      vertex -12.4345 -48.4292 0
      vertex -9.36907 -49.1144 0
    endloop
  endfacet
  facet normal -0.0704871 -0.445036 0.892734
    outer loop
      vertex -9.18168 -45.1321 2.3
      vertex -9.36907 -49.1144 0.299999
      vertex -6.26666 -49.6057 0.299999
    endloop
  endfacet
  facet normal 0.0941082 -0.995562 0
    outer loop
      vertex 3.13953 -49.9013 0
      vertex 6.26666 -49.6057 0.299999
      vertex 3.13953 -49.9013 0.299999
    endloop
  endfacet
  facet normal 0.0941082 -0.995562 0
    outer loop
      vertex 6.26666 -49.6057 0.299999
      vertex 3.13953 -49.9013 0
      vertex 6.26666 -49.6057 0
    endloop
  endfacet
  facet normal -0.127817 -0.439949 0.88888
    outer loop
      vertex -12.1858 -44.4606 2.3
      vertex -15.4508 -47.5528 0.299999
      vertex -12.4345 -48.4292 0.299999
    endloop
  endfacet
  facet normal 0.217127 -0.426135 0.878217
    outer loop
      vertex 23.6059 -39.939 2.3
      vertex 20.8632 -41.3365 2.3
      vertex 24.0877 -43.8153 0.299999
    endloop
  endfacet
  facet normal 0.509042 -0.860742 0
    outer loop
      vertex 24.0877 -43.8153 0
      vertex 26.7913 -42.2164 0.299999
      vertex 24.0877 -43.8153 0.299999
    endloop
  endfacet
  facet normal 0.509042 -0.860742 0
    outer loop
      vertex 26.7913 -42.2164 0.299999
      vertex 24.0877 -43.8153 0
      vertex 26.7913 -42.2164 0
    endloop
  endfacet
  facet normal 0.707107 -0.707107 0
    outer loop
      vertex 34.2274 -36.4484 0.299999
      vertex 36.4484 -34.2274 0
      vertex 36.4484 -34.2274 0.299999
    endloop
  endfacet
  facet normal 0.707107 -0.707107 0
    outer loop
      vertex 36.4484 -34.2274 0
      vertex 34.2274 -36.4484 0.299999
      vertex 34.2274 -36.4484 0
    endloop
  endfacet
  facet normal 0.346604 -0.393146 0.851647
    outer loop
      vertex 34.2274 -36.4484 0.299999
      vertex 31.2338 -34.7551 2.3
      vertex 31.8712 -38.5257 0.299999
    endloop
  endfacet
  facet normal 0.417682 -0.368236 0.830629
    outer loop
      vertex 37.7551 -28.2338 2.3
      vertex 36.4484 -34.2274 0.299999
      vertex 38.5257 -31.8712 0.299999
    endloop
  endfacet
  facet normal 0.493982 -0.33571 0.802048
    outer loop
      vertex 41.3721 -23.2555 2.3
      vertex 40.4509 -29.3893 0.299999
      vertex 42.2164 -26.7913 0.299999
    endloop
  endfacet
  facet normal 0.493981 -0.33571 0.802048
    outer loop
      vertex 41.3721 -23.2555 2.3
      vertex 39.6418 -25.8015 2.3
      vertex 40.4509 -29.3893 0.299999
    endloop
  endfacet
  facet normal 0 0 -1
    outer loop
      vertex 49.6057 -6.26666 0
      vertex 50 0 0
      vertex 49.9013 -3.13953 0
    endloop
  endfacet
  facet normal 0 0 -1
    outer loop
      vertex 49.1144 -9.36907 0
      vertex 50 0 0
      vertex 49.6057 -6.26666 0
    endloop
  endfacet
  facet normal 0 0 -1
    outer loop
      vertex 48.4292 -12.4345 0
      vertex 50 0 0
      vertex 49.1144 -9.36907 0
    endloop
  endfacet
  facet normal 0 0 -1
    outer loop
      vertex 47.5528 -15.4508 0
      vertex 50 0 0
      vertex 48.4292 -12.4345 0
    endloop
  endfacet
  facet normal 0 0 -1
    outer loop
      vertex 46.4888 -18.4062 0
      vertex 50 0 0
      vertex 47.5528 -15.4508 0
    endloop
  endfacet
  facet normal 0 0 -1
    outer loop
      vertex 45.2414 -21.289 0
      vertex 50 0 0
      vertex 46.4888 -18.4062 0
    endloop
  endfacet
  facet normal 0 0 -1
    outer loop
      vertex 43.8153 -24.0877 0
      vertex 50 0 0
      vertex 45.2414 -21.289 0
    endloop
  endfacet
  facet normal 0 0 -1
    outer loop
      vertex 42.2164 -26.7913 0
      vertex 50 0 0
      vertex 43.8153 -24.0877 0
    endloop
  endfacet
  facet normal 0 0 -1
    outer loop
      vertex 40.4509 -29.3893 0
      vertex 50 0 0
      vertex 42.2164 -26.7913 0
    endloop
  endfacet
  facet normal 0 0 -1
    outer loop
      vertex 38.5257 -31.8712 0
      vertex 50 0 0
      vertex 40.4509 -29.3893 0
    endloop
  endfacet
  facet normal 0 0 -1
    outer loop
      vertex 36.4484 -34.2274 0
      vertex 50 0 0
      vertex 38.5257 -31.8712 0
    endloop
  endfacet
  facet normal 0 0 -1
    outer loop
      vertex 34.2274 -36.4484 0
      vertex 50 0 0
      vertex 36.4484 -34.2274 0
    endloop
  endfacet
  facet normal 0 0 -1
    outer loop
      vertex 31.8712 -38.5257 0
      vertex 50 0 0
      vertex 34.2274 -36.4484 0
    endloop
  endfacet
  facet normal 0 0 -1
    outer loop
      vertex 29.3893 -40.4509 0
      vertex 50 0 0
      vertex 31.8712 -38.5257 0
    endloop
  endfacet
  facet normal 0 0 -1
    outer loop
      vertex 26.7913 -42.2164 0
      vertex 50 0 0
      vertex 29.3893 -40.4509 0
    endloop
  endfacet
  facet normal 0 0 -1
    outer loop
      vertex 24.0877 -43.8153 0
      vertex 50 0 0
      vertex 26.7913 -42.2164 0
    endloop
  endfacet
  facet normal 0 0 -1
    outer loop
      vertex 21.289 -45.2414 0
      vertex 50 0 0
      vertex 24.0877 -43.8153 0
    endloop
  endfacet
  facet normal 0 0 -1
    outer loop
      vertex 18.4062 -46.4888 0
      vertex 50 0 0
      vertex 21.289 -45.2414 0
    endloop
  endfacet
  facet normal 0 0 -1
    outer loop
      vertex 15.4508 -47.5528 0
      vertex 50 0 0
      vertex 18.4062 -46.4888 0
    endloop
  endfacet
  facet normal 0 0 -1
    outer loop
      vertex 12.4345 -48.4292 0
      vertex 50 0 0
      vertex 15.4508 -47.5528 0
    endloop
  endfacet
  facet normal 0 0 -1
    outer loop
      vertex 9.36907 -49.1144 0
      vertex 50 0 0
      vertex 12.4345 -48.4292 0
    endloop
  endfacet
  facet normal 0 0 -1
    outer loop
      vertex 6.26666 -49.6057 0
      vertex 50 0 0
      vertex 9.36907 -49.1144 0
    endloop
  endfacet
  facet normal 0 0 -1
    outer loop
      vertex 3.13953 -49.9013 0
      vertex 50 0 0
      vertex 6.26666 -49.6057 0
    endloop
  endfacet
  facet normal 0 0 -1
    outer loop
      vertex 0 -50 0
      vertex 50 0 0
      vertex 3.13953 -49.9013 0
    endloop
  endfacet
  facet normal 0 0 -1
    outer loop
      vertex -3.13953 -49.9013 0
      vertex 50 0 0
      vertex 0 -50 0
    endloop
  endfacet
  facet normal 0 0 -1
    outer loop
      vertex -6.26666 -49.6057 0
      vertex 50 0 0
      vertex -3.13953 -49.9013 0
    endloop
  endfacet
  facet normal 0 0 -1
    outer loop
      vertex -9.36907 -49.1144 0
      vertex 50 0 0
      vertex -6.26666 -49.6057 0
    endloop
  endfacet
  facet normal 0 0 -1
    outer loop
      vertex -12.4345 -48.4292 0
      vertex 50 0 0
      vertex -9.36907 -49.1144 0
    endloop
  endfacet
  facet normal 0 0 -1
    outer loop
      vertex -15.4508 -47.5528 0
      vertex 50 0 0
      vertex -12.4345 -48.4292 0
    endloop
  endfacet
  facet normal 0 0 -1
    outer loop
      vertex -18.4062 -46.4888 0
      vertex 50 0 0
      vertex -15.4508 -47.5528 0
    endloop
  endfacet
  facet normal 0 0 -1
    outer loop
      vertex -21.289 -45.2414 0
      vertex 50 0 0
      vertex -18.4062 -46.4888 0
    endloop
  endfacet
  facet normal 0 0 -1
    outer loop
      vertex -24.0877 -43.8153 0
      vertex 50 0 0
      vertex -21.289 -45.2414 0
    endloop
  endfacet
  facet normal 0 0 -1
    outer loop
      vertex -26.7913 -42.2164 0
      vertex 50 0 0
      vertex -24.0877 -43.8153 0
    endloop
  endfacet
  facet normal 0 0 -1
    outer loop
      vertex -29.3893 -40.4509 0
      vertex 50 0 0
      vertex -26.7913 -42.2164 0
    endloop
  endfacet
  facet normal 0 0 -1
    outer loop
      vertex -31.8712 -38.5257 0
      vertex 50 0 0
      vertex -29.3893 -40.4509 0
    endloop
  endfacet
  facet normal 0 0 -1
    outer loop
      vertex -34.2274 -36.4484 0
      vertex 50 0 0
      vertex -31.8712 -38.5257 0
    endloop
  endfacet
  facet normal 0 0 -1
    outer loop
      vertex -36.4484 -34.2274 0
      vertex 50 0 0
      vertex -34.2274 -36.4484 0
    endloop
  endfacet
  facet normal 0 0 -1
    outer loop
      vertex -38.5257 -31.8712 0
      vertex 50 0 0
      vertex -36.4484 -34.2274 0
    endloop
  endfacet
  facet normal 0 0 -1
    outer loop
      vertex -40.4509 -29.3893 0
      vertex 50 0 0
      vertex -38.5257 -31.8712 0
    endloop
  endfacet
  facet normal 0 0 -1
    outer loop
      vertex -42.2164 -26.7913 0
      vertex 50 0 0
      vertex -40.4509 -29.3893 0
    endloop
  endfacet
  facet normal 0 0 -1
    outer loop
      vertex -43.8153 -24.0877 0
      vertex 50 0 0
      vertex -42.2164 -26.7913 0
    endloop
  endfacet
  facet normal 0 0 -1
    outer loop
      vertex -45.2414 -21.289 0
      vertex 50 0 0
      vertex -43.8153 -24.0877 0
    endloop
  endfacet
  facet normal 0 0 -1
    outer loop
      vertex -46.4888 -18.4062 0
      vertex 50 0 0
      vertex -45.2414 -21.289 0
    endloop
  endfacet
  facet normal 0 0 -1
    outer loop
      vertex -47.5528 -15.4508 0
      vertex 50 0 0
      vertex -46.4888 -18.4062 0
    endloop
  endfacet
  facet normal 0 0 -1
    outer loop
      vertex -48.4292 -12.4345 0
      vertex 50 0 0
      vertex -47.5528 -15.4508 0
    endloop
  endfacet
  facet normal 0 0 -1
    outer loop
      vertex -49.1144 -9.36907 0
      vertex 50 0 0
      vertex -48.4292 -12.4345 0
    endloop
  endfacet
  facet normal 0 0 -1
    outer loop
      vertex -49.6057 -6.26666 0
      vertex 50 0 0
      vertex -49.1144 -9.36907 0
    endloop
  endfacet
  facet normal 0 0 -1
    outer loop
      vertex -49.9013 -3.13953 0
      vertex 50 0 0
      vertex -49.6057 -6.26666 0
    endloop
  endfacet
  facet normal -0 0 -1
    outer loop
      vertex 50 0 0
      vertex -49.9013 -3.13953 0
      vertex -50 0 0
    endloop
  endfacet
  facet normal -0.838185 -0.0792316 0.539601
    outer loop
      vertex -48.9033 -0.0767345 2.3
      vertex -49.9013 -3.13953 0.299999
      vertex -49.6057 -6.26666 0.299999
    endloop
  endfacet
  facet normal -0.70733 -0.205498 0.676354
    outer loop
      vertex -47.4606 -9.1858 2.3
      vertex -48.4292 -12.4345 0.299999
      vertex -47.5528 -15.4508 0.299999
    endloop
  endfacet
  facet normal -0.752069 -0.168107 0.637285
    outer loop
      vertex -47.4606 -9.1858 2.3
      vertex -49.1144 -9.36907 0.299999
      vertex -48.4292 -12.4345 0.299999
    endloop
  endfacet
  facet normal -0.493982 -0.33571 0.802048
    outer loop
      vertex -41.3721 -23.2555 2.3
      vertex -42.2164 -26.7913 0.299999
      vertex -40.4509 -29.3893 0.299999
    endloop
  endfacet
  facet normal -0.975917 -0.218143 0
    outer loop
      vertex -48.4292 -12.4345 0
      vertex -49.1144 -9.36907 0.299999
      vertex -49.1144 -9.36907 0
    endloop
  endfacet
  facet normal -0.975917 -0.218143 0
    outer loop
      vertex -49.1144 -9.36907 0.299999
      vertex -48.4292 -12.4345 0
      vertex -48.4292 -12.4345 0.299999
    endloop
  endfacet
  facet normal -0.45399 -0.891007 0
    outer loop
      vertex -24.0877 -43.8153 0
      vertex -21.289 -45.2414 0.299999
      vertex -24.0877 -43.8153 0.299999
    endloop
  endfacet
  facet normal -0.45399 -0.891007 -0
    outer loop
      vertex -21.289 -45.2414 0.299999
      vertex -24.0877 -43.8153 0
      vertex -21.289 -45.2414 0
    endloop
  endfacet
  facet normal -0.217127 -0.426135 0.878217
    outer loop
      vertex -23.6059 -39.939 2.3
      vertex -24.0877 -43.8153 0.299999
      vertex -20.8632 -41.3365 2.3
    endloop
  endfacet
  facet normal -0.312807 -0.403268 0.859958
    outer loop
      vertex -31.2338 -34.7551 2.3
      vertex -31.8712 -38.5257 0.299999
      vertex -29.3893 -40.4509 0.299999
    endloop
  endfacet
  facet normal -0.248174 -0.419639 0.873105
    outer loop
      vertex -26.2555 -38.3721 2.3
      vertex -26.7913 -42.2164 0.299999
      vertex -24.0877 -43.8153 0.299999
    endloop
  endfacet
  facet normal -0.0989941 -0.442875 0.891102
    outer loop
      vertex -12.1858 -44.4606 2.3
      vertex -12.4345 -48.4292 0.299999
      vertex -9.36907 -49.1144 0.299999
    endloop
  endfacet
  facet normal -0.157049 -0.43622 0.886029
    outer loop
      vertex -18.0381 -42.559 2.3
      vertex -18.4062 -46.4888 0.299999
      vertex -15.4508 -47.5528 0.299999
    endloop
  endfacet
  facet normal -0.156435 -0.987688 0
    outer loop
      vertex -9.36907 -49.1144 0
      vertex -6.26666 -49.6057 0.299999
      vertex -9.36907 -49.1144 0.299999
    endloop
  endfacet
  facet normal -0.156435 -0.987688 -0
    outer loop
      vertex -6.26666 -49.6057 0.299999
      vertex -9.36907 -49.1144 0
      vertex -6.26666 -49.6057 0
    endloop
  endfacet
  facet normal 0.0314107 -0.999507 0
    outer loop
      vertex 0 -50 0
      vertex 3.13953 -49.9013 0.299999
      vertex 0 -50 0.299999
    endloop
  endfacet
  facet normal 0.0314107 -0.999507 0
    outer loop
      vertex 3.13953 -49.9013 0.299999
      vertex 0 -50 0
      vertex 3.13953 -49.9013 0
    endloop
  endfacet
  facet normal -0.0140528 -0.447169 0.894339
    outer loop
      vertex 0 -46 2.3
      vertex -3.13953 -49.9013 0.299999
      vertex 0 -50 0.299999
    endloop
  endfacet
  facet normal -0.0989937 -0.442875 0.891102
    outer loop
      vertex -9.18168 -45.1321 2.3
      vertex -12.1858 -44.4606 2.3
      vertex -9.36907 -49.1144 0.299999
    endloop
  endfacet
  facet normal -0.0422028 -0.446461 0.893807
    outer loop
      vertex -6.14133 -45.6136 2.3
      vertex -6.26666 -49.6057 0.299999
      vertex -3.07673 -45.9033 2.3
    endloop
  endfacet
  facet normal 0.248174 -0.419639 0.873105
    outer loop
      vertex 26.2555 -38.3721 2.3
      vertex 24.0877 -43.8153 0.299999
      vertex 26.7913 -42.2164 0.299999
    endloop
  endfacet
  facet normal 0.0140528 -0.447169 0.894339
    outer loop
      vertex 0 -46 2.3
      vertex 0 -50 0.299999
      vertex 3.13953 -49.9013 0.299999
    endloop
  endfacet
  facet normal 0.157049 -0.43622 0.886029
    outer loop
      vertex 18.0381 -42.559 2.3
      vertex 15.4508 -47.5528 0.299999
      vertex 18.4062 -46.4888 0.299999
    endloop
  endfacet
  facet normal 0.562083 -0.827081 0
    outer loop
      vertex 26.7913 -42.2164 0
      vertex 29.3893 -40.4509 0.299999
      vertex 26.7913 -42.2164 0.299999
    endloop
  endfacet
  facet normal 0.562083 -0.827081 0
    outer loop
      vertex 29.3893 -40.4509 0.299999
      vertex 26.7913 -42.2164 0
      vertex 29.3893 -40.4509 0
    endloop
  endfacet
  facet normal 0.45399 -0.891007 0
    outer loop
      vertex 21.289 -45.2414 0
      vertex 24.0877 -43.8153 0.299999
      vertex 21.289 -45.2414 0.299999
    endloop
  endfacet
  facet normal 0.45399 -0.891007 0
    outer loop
      vertex 24.0877 -43.8153 0.299999
      vertex 21.289 -45.2414 0
      vertex 24.0877 -43.8153 0
    endloop
  endfacet
  facet normal 0.186786 -0.431636 0.882497
    outer loop
      vertex 20.8632 -41.3365 2.3
      vertex 18.0381 -42.559 2.3
      vertex 21.289 -45.2414 0.299999
    endloop
  endfacet
  facet normal 0.661311 -0.750112 0
    outer loop
      vertex 31.8712 -38.5257 0
      vertex 34.2274 -36.4484 0.299999
      vertex 31.8712 -38.5257 0.299999
    endloop
  endfacet
  facet normal 0.661311 -0.750112 0
    outer loop
      vertex 34.2274 -36.4484 0.299999
      vertex 31.8712 -38.5257 0
      vertex 34.2274 -36.4484 0
    endloop
  endfacet
  facet normal 0.38153 -0.38153 0.841944
    outer loop
      vertex 33.5428 -32.7195 2.3
      vertex 36.4484 -34.2274 0.299999
      vertex 35.7195 -30.5428 2.3
    endloop
  endfacet
  facet normal 0.38153 -0.38153 0.841944
    outer loop
      vertex 36.4484 -34.2274 0.299999
      vertex 33.5428 -32.7195 2.3
      vertex 34.2274 -36.4484 0.299999
    endloop
  endfacet
  facet normal 0.417681 -0.368236 0.830629
    outer loop
      vertex 37.7551 -28.2338 2.3
      vertex 35.7195 -30.5428 2.3
      vertex 36.4484 -34.2274 0.299999
    endloop
  endfacet
  facet normal 0.891007 -0.45399 0
    outer loop
      vertex 43.8153 -24.0877 0.299999
      vertex 45.2414 -21.289 0
      vertex 45.2414 -21.289 0.299999
    endloop
  endfacet
  facet normal 0.891007 -0.45399 0
    outer loop
      vertex 45.2414 -21.289 0
      vertex 43.8153 -24.0877 0.299999
      vertex 43.8153 -24.0877 0
    endloop
  endfacet
  facet normal 0.860742 -0.509042 0
    outer loop
      vertex 42.2164 -26.7913 0.299999
      vertex 43.8153 -24.0877 0
      vertex 43.8153 -24.0877 0.299999
    endloop
  endfacet
  facet normal 0.860742 -0.509042 0
    outer loop
      vertex 43.8153 -24.0877 0
      vertex 42.2164 -26.7913 0.299999
      vertex 42.2164 -26.7913 0
    endloop
  endfacet
  facet normal 0.940881 -0.338738 0
    outer loop
      vertex 46.4888 -18.4062 0.299999
      vertex 47.5528 -15.4508 0
      vertex 47.5528 -15.4508 0.299999
    endloop
  endfacet
  facet normal 0.940881 -0.338738 0
    outer loop
      vertex 47.5528 -15.4508 0
      vertex 46.4888 -18.4062 0.299999
      vertex 46.4888 -18.4062 0
    endloop
  endfacet
  facet normal 0.662694 -0.238584 0.70987
    outer loop
      vertex 46.6018 -12.1418 2.3
      vertex 45.559 -15.0381 2.3
      vertex 47.5528 -15.4508 0.299999
    endloop
  endfacet
  facet normal 0.575846 -0.293408 0.763095
    outer loop
      vertex 44.3365 -17.8632 2.3
      vertex 43.8153 -24.0877 0.299999
      vertex 45.2414 -21.289 0.299999
    endloop
  endfacet
  facet normal 0.455144 -0.353046 0.817436
    outer loop
      vertex 40.4509 -29.3893 0.299999
      vertex 37.7551 -28.2338 2.3
      vertex 38.5257 -31.8712 0.299999
    endloop
  endfacet
  facet normal 0.534224 -0.315939 0.784084
    outer loop
      vertex 43.8153 -24.0877 0.299999
      vertex 41.3721 -23.2555 2.3
      vertex 42.2164 -26.7913 0.299999
    endloop
  endfacet
  facet normal 0.534224 -0.315939 0.784084
    outer loop
      vertex 42.939 -20.6059 2.3
      vertex 41.3721 -23.2555 2.3
      vertex 43.8153 -24.0877 0.299999
    endloop
  endfacet
  facet normal 0.662693 -0.238585 0.70987
    outer loop
      vertex 47.5528 -15.4508 0.299999
      vertex 45.559 -15.0381 2.3
      vertex 46.4888 -18.4062 0.299999
    endloop
  endfacet
  facet normal 0.987688 -0.156435 0
    outer loop
      vertex 49.1144 -9.36907 0.299999
      vertex 49.6057 -6.26666 0
      vertex 49.6057 -6.26666 0.299999
    endloop
  endfacet
  facet normal 0.987688 -0.156435 0
    outer loop
      vertex 49.6057 -6.26666 0
      vertex 49.1144 -9.36907 0.299999
      vertex 49.1144 -9.36907 0
    endloop
  endfacet
  facet normal 0 0 1
    outer loop
      vertex 48.9057 0 2.3
      vertex 48.6136 -3.14133 2.3
      vertex 48.9033 -0.0767345 2.3
    endloop
  endfacet
  facet normal 0 0 1
    outer loop
      vertex 48.9057 0 2.3
      vertex 48.1321 -6.18168 2.3
      vertex 48.6136 -3.14133 2.3
    endloop
  endfacet
  facet normal 0 0 1
    outer loop
      vertex 48.9057 0 2.3
      vertex 47.4606 -9.1858 2.3
      vertex 48.1321 -6.18168 2.3
    endloop
  endfacet
  facet normal 0 0 1
    outer loop
      vertex 48.9057 0 2.3
      vertex 46.6018 -12.1418 2.3
      vertex 47.4606 -9.1858 2.3
    endloop
  endfacet
  facet normal 0 0 1
    outer loop
      vertex 48.9057 0 2.3
      vertex 45.559 -15.0381 2.3
      vertex 46.6018 -12.1418 2.3
    endloop
  endfacet
  facet normal 0 0 1
    outer loop
      vertex 48.9057 0 2.3
      vertex 44.3365 -17.8632 2.3
      vertex 45.559 -15.0381 2.3
    endloop
  endfacet
  facet normal 0 0 1
    outer loop
      vertex 48.9057 0 2.3
      vertex 42.939 -20.6059 2.3
      vertex 44.3365 -17.8632 2.3
    endloop
  endfacet
  facet normal 0 0 1
    outer loop
      vertex 48.9057 0 2.3
      vertex 41.3721 -23.2555 2.3
      vertex 42.939 -20.6059 2.3
    endloop
  endfacet
  facet normal 0 0 1
    outer loop
      vertex 48.9057 0 2.3
      vertex 39.6418 -25.8015 2.3
      vertex 41.3721 -23.2555 2.3
    endloop
  endfacet
  facet normal 0 0 1
    outer loop
      vertex 48.9057 0 2.3
      vertex 37.7551 -28.2338 2.3
      vertex 39.6418 -25.8015 2.3
    endloop
  endfacet
  facet normal 0 0 1
    outer loop
      vertex 48.9057 0 2.3
      vertex 35.7195 -30.5428 2.3
      vertex 37.7551 -28.2338 2.3
    endloop
  endfacet
  facet normal 0 0 1
    outer loop
      vertex 48.9057 0 2.3
      vertex 33.5428 -32.7195 2.3
      vertex 35.7195 -30.5428 2.3
    endloop
  endfacet
  facet normal 0 0 1
    outer loop
      vertex 48.9057 0 2.3
      vertex 31.2338 -34.7551 2.3
      vertex 33.5428 -32.7195 2.3
    endloop
  endfacet
  facet normal 0 0 1
    outer loop
      vertex 48.9057 0 2.3
      vertex 28.8015 -36.6418 2.3
      vertex 31.2338 -34.7551 2.3
    endloop
  endfacet
  facet normal 0 0 1
    outer loop
      vertex 48.9057 0 2.3
      vertex 26.2555 -38.3721 2.3
      vertex 28.8015 -36.6418 2.3
    endloop
  endfacet
  facet normal 0 0 1
    outer loop
      vertex 48.9057 0 2.3
      vertex 23.6059 -39.939 2.3
      vertex 26.2555 -38.3721 2.3
    endloop
  endfacet
  facet normal 0 0 1
    outer loop
      vertex 48.9057 0 2.3
      vertex 20.8632 -41.3365 2.3
      vertex 23.6059 -39.939 2.3
    endloop
  endfacet
  facet normal 0 0 1
    outer loop
      vertex 48.9057 0 2.3
      vertex 18.0381 -42.559 2.3
      vertex 20.8632 -41.3365 2.3
    endloop
  endfacet
  facet normal 0 0 1
    outer loop
      vertex 48.9057 0 2.3
      vertex 15.1418 -43.6018 2.3
      vertex 18.0381 -42.559 2.3
    endloop
  endfacet
  facet normal 0 0 1
    outer loop
      vertex 48.9057 0 2.3
      vertex 12.1858 -44.4606 2.3
      vertex 15.1418 -43.6018 2.3
    endloop
  endfacet
  facet normal 0 0 1
    outer loop
      vertex 48.9057 0 2.3
      vertex 9.18168 -45.1321 2.3
      vertex 12.1858 -44.4606 2.3
    endloop
  endfacet
  facet normal 0 0 1
    outer loop
      vertex 48.9057 0 2.3
      vertex 6.14133 -45.6136 2.3
      vertex 9.18168 -45.1321 2.3
    endloop
  endfacet
  facet normal 0 0 1
    outer loop
      vertex 48.9057 0 2.3
      vertex 3.07673 -45.9033 2.3
      vertex 6.14133 -45.6136 2.3
    endloop
  endfacet
  facet normal 0 0 1
    outer loop
      vertex 48.9057 0 2.3
      vertex 0 -46 2.3
      vertex 3.07673 -45.9033 2.3
    endloop
  endfacet
  facet normal 0 0 1
    outer loop
      vertex 48.9057 0 2.3
      vertex -3.07673 -45.9033 2.3
      vertex 0 -46 2.3
    endloop
  endfacet
  facet normal 0 0 1
    outer loop
      vertex 48.9057 0 2.3
      vertex -6.14133 -45.6136 2.3
      vertex -3.07673 -45.9033 2.3
    endloop
  endfacet
  facet normal 0 0 1
    outer loop
      vertex 48.9057 0 2.3
      vertex -9.18168 -45.1321 2.3
      vertex -6.14133 -45.6136 2.3
    endloop
  endfacet
  facet normal 0 0 1
    outer loop
      vertex 48.9057 0 2.3
      vertex -12.1858 -44.4606 2.3
      vertex -9.18168 -45.1321 2.3
    endloop
  endfacet
  facet normal 0 0 1
    outer loop
      vertex 48.9057 0 2.3
      vertex -15.1418 -43.6018 2.3
      vertex -12.1858 -44.4606 2.3
    endloop
  endfacet
  facet normal 0 0 1
    outer loop
      vertex 48.9057 0 2.3
      vertex -18.0381 -42.559 2.3
      vertex -15.1418 -43.6018 2.3
    endloop
  endfacet
  facet normal 0 0 1
    outer loop
      vertex 48.9057 0 2.3
      vertex -20.8632 -41.3365 2.3
      vertex -18.0381 -42.559 2.3
    endloop
  endfacet
  facet normal 0 0 1
    outer loop
      vertex 48.9057 0 2.3
      vertex -23.6059 -39.939 2.3
      vertex -20.8632 -41.3365 2.3
    endloop
  endfacet
  facet normal 0 0 1
    outer loop
      vertex 48.9057 0 2.3
      vertex -26.2555 -38.3721 2.3
      vertex -23.6059 -39.939 2.3
    endloop
  endfacet
  facet normal 0 0 1
    outer loop
      vertex 48.9057 0 2.3
      vertex -28.8015 -36.6418 2.3
      vertex -26.2555 -38.3721 2.3
    endloop
  endfacet
  facet normal 0 0 1
    outer loop
      vertex 48.9057 0 2.3
      vertex -31.2338 -34.7551 2.3
      vertex -28.8015 -36.6418 2.3
    endloop
  endfacet
  facet normal 0 0 1
    outer loop
      vertex 48.9057 0 2.3
      vertex -33.5428 -32.7195 2.3
      vertex -31.2338 -34.7551 2.3
    endloop
  endfacet
  facet normal 0 0 1
    outer loop
      vertex 48.9057 0 2.3
      vertex -35.7195 -30.5428 2.3
      vertex -33.5428 -32.7195 2.3
    endloop
  endfacet
  facet normal 0 0 1
    outer loop
      vertex 48.9057 0 2.3
      vertex -37.7551 -28.2338 2.3
      vertex -35.7195 -30.5428 2.3
    endloop
  endfacet
  facet normal 0 0 1
    outer loop
      vertex 48.9057 0 2.3
      vertex -39.6418 -25.8015 2.3
      vertex -37.7551 -28.2338 2.3
    endloop
  endfacet
  facet normal 0 0 1
    outer loop
      vertex 48.9057 0 2.3
      vertex -41.3721 -23.2555 2.3
      vertex -39.6418 -25.8015 2.3
    endloop
  endfacet
  facet normal 0 0 1
    outer loop
      vertex 48.9057 0 2.3
      vertex -42.939 -20.6059 2.3
      vertex -41.3721 -23.2555 2.3
    endloop
  endfacet
  facet normal 0 0 1
    outer loop
      vertex 48.9057 0 2.3
      vertex -44.3365 -17.8632 2.3
      vertex -42.939 -20.6059 2.3
    endloop
  endfacet
  facet normal 0 0 1
    outer loop
      vertex 48.9057 0 2.3
      vertex -45.559 -15.0381 2.3
      vertex -44.3365 -17.8632 2.3
    endloop
  endfacet
  facet normal 0 0 1
    outer loop
      vertex 48.9057 0 2.3
      vertex -46.6018 -12.1418 2.3
      vertex -45.559 -15.0381 2.3
    endloop
  endfacet
  facet normal 0 0 1
    outer loop
      vertex 48.9057 0 2.3
      vertex -47.4606 -9.1858 2.3
      vertex -46.6018 -12.1418 2.3
    endloop
  endfacet
  facet normal 0 0 1
    outer loop
      vertex 48.9057 0 2.3
      vertex -48.1321 -6.18168 2.3
      vertex -47.4606 -9.1858 2.3
    endloop
  endfacet
  facet normal 0 0 1
    outer loop
      vertex 48.9057 0 2.3
      vertex -48.6136 -3.14133 2.3
      vertex -48.1321 -6.18168 2.3
    endloop
  endfacet
  facet normal -0 0 1
    outer loop
      vertex -48.9057 0 2.3
      vertex -48.6136 -3.14133 2.3
      vertex 48.9057 0 2.3
    endloop
  endfacet
  facet normal 0 0 1
    outer loop
      vertex -48.6136 -3.14133 2.3
      vertex -48.9057 0 2.3
      vertex -48.9033 -0.0767345 2.3
    endloop
  endfacet
  facet normal -0.999507 -0.0314107 0
    outer loop
      vertex -49.9013 -3.13953 0
      vertex -50 0 0.299999
      vertex -50 0 0
    endloop
  endfacet
  facet normal -0.999507 -0.0314107 0
    outer loop
      vertex -50 0 0.299999
      vertex -49.9013 -3.13953 0
      vertex -49.9013 -3.13953 0.299999
    endloop
  endfacet
  facet normal -0.662693 -0.238585 0.70987
    outer loop
      vertex -45.559 -15.0381 2.3
      vertex -47.5528 -15.4508 0.299999
      vertex -46.4888 -18.4062 0.299999
    endloop
  endfacet
  facet normal -0.827081 -0.562083 0
    outer loop
      vertex -40.4509 -29.3893 0
      vertex -42.2164 -26.7913 0.299999
      vertex -42.2164 -26.7913 0
    endloop
  endfacet
  facet normal -0.827081 -0.562083 0
    outer loop
      vertex -42.2164 -26.7913 0.299999
      vertex -40.4509 -29.3893 0
      vertex -40.4509 -29.3893 0.299999
    endloop
  endfacet
  facet normal -0.417681 -0.368236 0.830629
    outer loop
      vertex -35.7195 -30.5428 2.3
      vertex -37.7551 -28.2338 2.3
      vertex -36.4484 -34.2274 0.299999
    endloop
  endfacet
  facet normal -0.987688 -0.156435 0
    outer loop
      vertex -49.1144 -9.36907 0
      vertex -49.6057 -6.26666 0.299999
      vertex -49.6057 -6.26666 0
    endloop
  endfacet
  facet normal -0.987688 -0.156435 0
    outer loop
      vertex -49.6057 -6.26666 0.299999
      vertex -49.1144 -9.36907 0
      vertex -49.1144 -9.36907 0.299999
    endloop
  endfacet
  facet normal -0.397148 -0.917755 0
    outer loop
      vertex -21.289 -45.2414 0
      vertex -18.4062 -46.4888 0.299999
      vertex -21.289 -45.2414 0.299999
    endloop
  endfacet
  facet normal -0.397148 -0.917755 -0
    outer loop
      vertex -18.4062 -46.4888 0.299999
      vertex -21.289 -45.2414 0
      vertex -18.4062 -46.4888 0
    endloop
  endfacet
  facet normal -0.509042 -0.860742 0
    outer loop
      vertex -26.7913 -42.2164 0
      vertex -24.0877 -43.8153 0.299999
      vertex -26.7913 -42.2164 0.299999
    endloop
  endfacet
  facet normal -0.509042 -0.860742 -0
    outer loop
      vertex -24.0877 -43.8153 0.299999
      vertex -26.7913 -42.2164 0
      vertex -24.0877 -43.8153 0
    endloop
  endfacet
  facet normal -0.248174 -0.419639 0.873105
    outer loop
      vertex -23.6059 -39.939 2.3
      vertex -26.2555 -38.3721 2.3
      vertex -24.0877 -43.8153 0.299999
    endloop
  endfacet
  facet normal -0.312805 -0.403267 0.859958
    outer loop
      vertex -28.8015 -36.6418 2.3
      vertex -31.2338 -34.7551 2.3
      vertex -29.3893 -40.4509 0.299999
    endloop
  endfacet
  facet normal -0.612908 -0.790154 0
    outer loop
      vertex -31.8712 -38.5257 0
      vertex -29.3893 -40.4509 0.299999
      vertex -31.8712 -38.5257 0.299999
    endloop
  endfacet
  facet normal -0.612908 -0.790154 -0
    outer loop
      vertex -29.3893 -40.4509 0.299999
      vertex -31.8712 -38.5257 0
      vertex -29.3893 -40.4509 0
    endloop
  endfacet
  facet normal -0.280032 -0.412054 0.86706
    outer loop
      vertex -28.8015 -36.6418 2.3
      vertex -29.3893 -40.4509 0.299999
      vertex -26.2555 -38.3721 2.3
    endloop
  endfacet
  facet normal -0.280031 -0.412054 0.86706
    outer loop
      vertex -26.2555 -38.3721 2.3
      vertex -29.3893 -40.4509 0.299999
      vertex -26.7913 -42.2164 0.299999
    endloop
  endfacet
  facet normal -0.278991 -0.960294 0
    outer loop
      vertex -15.4508 -47.5528 0
      vertex -12.4345 -48.4292 0.299999
      vertex -15.4508 -47.5528 0.299999
    endloop
  endfacet
  facet normal -0.278991 -0.960294 -0
    outer loop
      vertex -12.4345 -48.4292 0.299999
      vertex -15.4508 -47.5528 0
      vertex -12.4345 -48.4292 0
    endloop
  endfacet
  facet normal -0.0314107 -0.999507 0
    outer loop
      vertex -3.13953 -49.9013 0
      vertex 0 -50 0.299999
      vertex -3.13953 -49.9013 0.299999
    endloop
  endfacet
  facet normal -0.0314107 -0.999507 -0
    outer loop
      vertex 0 -50 0.299999
      vertex -3.13953 -49.9013 0
      vertex 0 -50 0
    endloop
  endfacet
  facet normal -0.0941082 -0.995562 0
    outer loop
      vertex -6.26666 -49.6057 0
      vertex -3.13953 -49.9013 0.299999
      vertex -6.26666 -49.6057 0.299999
    endloop
  endfacet
  facet normal -0.0941082 -0.995562 -0
    outer loop
      vertex -3.13953 -49.9013 0.299999
      vertex -6.26666 -49.6057 0
      vertex -3.13953 -49.9013 0
    endloop
  endfacet
  facet normal -0.127817 -0.439949 0.88888
    outer loop
      vertex -15.1418 -43.6018 2.3
      vertex -15.4508 -47.5528 0.299999
      vertex -12.1858 -44.4606 2.3
    endloop
  endfacet
  facet normal -0.0422029 -0.446461 0.893807
    outer loop
      vertex -3.07673 -45.9033 2.3
      vertex -6.26666 -49.6057 0.299999
      vertex -3.13953 -49.9013 0.299999
    endloop
  endfacet
  facet normal -0.014053 -0.447169 0.894339
    outer loop
      vertex -3.07673 -45.9033 2.3
      vertex -3.13953 -49.9013 0.299999
      vertex 0 -46 2.3
    endloop
  endfacet
  facet normal 0.280032 -0.412054 0.86706
    outer loop
      vertex 28.8015 -36.6418 2.3
      vertex 26.2555 -38.3721 2.3
      vertex 29.3893 -40.4509 0.299999
    endloop
  endfacet
  facet normal 0.312805 -0.403267 0.859958
    outer loop
      vertex 31.2338 -34.7551 2.3
      vertex 28.8015 -36.6418 2.3
      vertex 29.3893 -40.4509 0.299999
    endloop
  endfacet
  facet normal 0.217127 -0.426136 0.878217
    outer loop
      vertex 24.0877 -43.8153 0.299999
      vertex 20.8632 -41.3365 2.3
      vertex 21.289 -45.2414 0.299999
    endloop
  endfacet
  facet normal 0.0704872 -0.445036 0.892734
    outer loop
      vertex 9.18168 -45.1321 2.3
      vertex 6.14133 -45.6136 2.3
      vertex 6.26666 -49.6057 0.299999
    endloop
  endfacet
  facet normal 0.248174 -0.419639 0.873105
    outer loop
      vertex 26.2555 -38.3721 2.3
      vertex 23.6059 -39.939 2.3
      vertex 24.0877 -43.8153 0.299999
    endloop
  endfacet
  facet normal 0.917755 -0.397148 0
    outer loop
      vertex 45.2414 -21.289 0.299999
      vertex 46.4888 -18.4062 0
      vertex 46.4888 -18.4062 0.299999
    endloop
  endfacet
  facet normal 0.917755 -0.397148 0
    outer loop
      vertex 46.4888 -18.4062 0
      vertex 45.2414 -21.289 0.299999
      vertex 45.2414 -21.289 0
    endloop
  endfacet
  facet normal 0.618741 -0.267753 0.738558
    outer loop
      vertex 45.559 -15.0381 2.3
      vertex 45.2414 -21.289 0.299999
      vertex 46.4888 -18.4062 0.299999
    endloop
  endfacet
  facet normal 0.752069 -0.168107 0.637285
    outer loop
      vertex 48.1321 -6.18168 2.3
      vertex 47.4606 -9.1858 2.3
      vertex 49.1144 -9.36907 0.299999
    endloop
  endfacet
  facet normal 0.796069 -0.126086 0.591926
    outer loop
      vertex 49.6057 -6.26666 0.299999
      vertex 48.1321 -6.18168 2.3
      vertex 49.1144 -9.36907 0.299999
    endloop
  endfacet
  facet normal 0.796069 -0.126086 0.591926
    outer loop
      vertex 48.6136 -3.14133 2.3
      vertex 48.1321 -6.18168 2.3
      vertex 49.6057 -6.26666 0.299999
    endloop
  endfacet
  facet normal 0.838185 -0.0792315 0.5396
    outer loop
      vertex 48.9033 -0.0767345 2.3
      vertex 48.6136 -3.14133 2.3
      vertex 49.6057 -6.26666 0.299999
    endloop
  endfacet
  facet normal 0.838185 -0.0792316 0.539601
    outer loop
      vertex 49.9013 -3.13953 0.299999
      vertex 48.9033 -0.0767345 2.3
      vertex 49.6057 -6.26666 0.299999
    endloop
  endfacet
  facet normal -0.940881 -0.338738 0
    outer loop
      vertex -46.4888 -18.4062 0
      vertex -47.5528 -15.4508 0.299999
      vertex -47.5528 -15.4508 0
    endloop
  endfacet
  facet normal -0.940881 -0.338738 0
    outer loop
      vertex -47.5528 -15.4508 0.299999
      vertex -46.4888 -18.4062 0
      vertex -46.4888 -18.4062 0.299999
    endloop
  endfacet
  facet normal -0.960294 -0.278991 0
    outer loop
      vertex -47.5528 -15.4508 0
      vertex -48.4292 -12.4345 0.299999
      vertex -48.4292 -12.4345 0
    endloop
  endfacet
  facet normal -0.960294 -0.278991 0
    outer loop
      vertex -48.4292 -12.4345 0.299999
      vertex -47.5528 -15.4508 0
      vertex -47.5528 -15.4508 0.299999
    endloop
  endfacet
  facet normal -0.618741 -0.267753 0.738558
    outer loop
      vertex -44.3365 -17.8632 2.3
      vertex -45.559 -15.0381 2.3
      vertex -45.2414 -21.289 0.299999
    endloop
  endfacet
  facet normal -0.860742 -0.509042 0
    outer loop
      vertex -42.2164 -26.7913 0
      vertex -43.8153 -24.0877 0.299999
      vertex -43.8153 -24.0877 0
    endloop
  endfacet
  facet normal -0.860742 -0.509042 0
    outer loop
      vertex -43.8153 -24.0877 0.299999
      vertex -42.2164 -26.7913 0
      vertex -42.2164 -26.7913 0.299999
    endloop
  endfacet
  facet normal -0.891007 -0.45399 0
    outer loop
      vertex -43.8153 -24.0877 0
      vertex -45.2414 -21.289 0.299999
      vertex -45.2414 -21.289 0
    endloop
  endfacet
  facet normal -0.891007 -0.45399 0
    outer loop
      vertex -45.2414 -21.289 0.299999
      vertex -43.8153 -24.0877 0
      vertex -43.8153 -24.0877 0.299999
    endloop
  endfacet
  facet normal -0.661311 -0.750112 0
    outer loop
      vertex -34.2274 -36.4484 0
      vertex -31.8712 -38.5257 0.299999
      vertex -34.2274 -36.4484 0.299999
    endloop
  endfacet
  facet normal -0.661311 -0.750112 -0
    outer loop
      vertex -31.8712 -38.5257 0.299999
      vertex -34.2274 -36.4484 0
      vertex -31.8712 -38.5257 0
    endloop
  endfacet
  facet normal -0.346604 -0.393146 0.851647
    outer loop
      vertex -31.2338 -34.7551 2.3
      vertex -34.2274 -36.4484 0.299999
      vertex -31.8712 -38.5257 0.299999
    endloop
  endfacet
  facet normal -0.217127 -0.426136 0.878217
    outer loop
      vertex -20.8632 -41.3365 2.3
      vertex -24.0877 -43.8153 0.299999
      vertex -21.289 -45.2414 0.299999
    endloop
  endfacet
  facet normal -0.186786 -0.431636 0.882497
    outer loop
      vertex -20.8632 -41.3365 2.3
      vertex -21.289 -45.2414 0.299999
      vertex -18.0381 -42.559 2.3
    endloop
  endfacet
  facet normal 0.157049 -0.436219 0.886029
    outer loop
      vertex 18.0381 -42.559 2.3
      vertex 15.1418 -43.6018 2.3
      vertex 15.4508 -47.5528 0.299999
    endloop
  endfacet
  facet normal 0.397148 -0.917755 0
    outer loop
      vertex 18.4062 -46.4888 0
      vertex 21.289 -45.2414 0.299999
      vertex 18.4062 -46.4888 0.299999
    endloop
  endfacet
  facet normal 0.397148 -0.917755 0
    outer loop
      vertex 21.289 -45.2414 0.299999
      vertex 18.4062 -46.4888 0
      vertex 21.289 -45.2414 0
    endloop
  endfacet
  facet normal 0.0422028 -0.446461 0.893807
    outer loop
      vertex 6.14133 -45.6136 2.3
      vertex 3.07673 -45.9033 2.3
      vertex 6.26666 -49.6057 0.299999
    endloop
  endfacet
  facet normal 0.0422029 -0.446461 0.893807
    outer loop
      vertex 6.26666 -49.6057 0.299999
      vertex 3.07673 -45.9033 2.3
      vertex 3.13953 -49.9013 0.299999
    endloop
  endfacet
  facet normal 0.014053 -0.447169 0.894339
    outer loop
      vertex 3.07673 -45.9033 2.3
      vertex 0 -46 2.3
      vertex 3.13953 -49.9013 0.299999
    endloop
  endfacet
  facet normal 0.278991 -0.960294 0
    outer loop
      vertex 12.4345 -48.4292 0
      vertex 15.4508 -47.5528 0.299999
      vertex 12.4345 -48.4292 0.299999
    endloop
  endfacet
  facet normal 0.278991 -0.960294 0
    outer loop
      vertex 15.4508 -47.5528 0.299999
      vertex 12.4345 -48.4292 0
      vertex 15.4508 -47.5528 0
    endloop
  endfacet
  facet normal 0.127817 -0.439949 0.88888
    outer loop
      vertex 15.4508 -47.5528 0.299999
      vertex 12.1858 -44.4606 2.3
      vertex 12.4345 -48.4292 0.299999
    endloop
  endfacet
  facet normal 0.338738 -0.940881 0
    outer loop
      vertex 15.4508 -47.5528 0
      vertex 18.4062 -46.4888 0.299999
      vertex 15.4508 -47.5528 0.299999
    endloop
  endfacet
  facet normal 0.338738 -0.940881 0
    outer loop
      vertex 18.4062 -46.4888 0.299999
      vertex 15.4508 -47.5528 0
      vertex 18.4062 -46.4888 0
    endloop
  endfacet
  facet normal 0.707329 -0.205498 0.676354
    outer loop
      vertex 47.4606 -9.1858 2.3
      vertex 46.6018 -12.1418 2.3
      vertex 47.5528 -15.4508 0.299999
    endloop
  endfacet
  facet normal -0.750112 -0.661311 0
    outer loop
      vertex -36.4484 -34.2274 0
      vertex -38.5257 -31.8712 0.299999
      vertex -38.5257 -31.8712 0
    endloop
  endfacet
  facet normal -0.750112 -0.661311 0
    outer loop
      vertex -38.5257 -31.8712 0.299999
      vertex -36.4484 -34.2274 0
      vertex -36.4484 -34.2274 0.299999
    endloop
  endfacet
  facet normal -0.790154 -0.612908 0
    outer loop
      vertex -38.5257 -31.8712 0
      vertex -40.4509 -29.3893 0.299999
      vertex -40.4509 -29.3893 0
    endloop
  endfacet
  facet normal -0.790154 -0.612908 0
    outer loop
      vertex -40.4509 -29.3893 0.299999
      vertex -38.5257 -31.8712 0
      vertex -38.5257 -31.8712 0.299999
    endloop
  endfacet
  facet normal 0.186786 -0.431636 0.882497
    outer loop
      vertex 21.289 -45.2414 0.299999
      vertex 18.0381 -42.559 2.3
      vertex 18.4062 -46.4888 0.299999
    endloop
  endfacet
  facet normal 0.0989937 -0.442875 0.891102
    outer loop
      vertex 12.1858 -44.4606 2.3
      vertex 9.18168 -45.1321 2.3
      vertex 9.36907 -49.1144 0.299999
    endloop
  endfacet
  facet normal 0.0704871 -0.445036 0.892734
    outer loop
      vertex 9.18168 -45.1321 2.3
      vertex 6.26666 -49.6057 0.299999
      vertex 9.36907 -49.1144 0.299999
    endloop
  endfacet
  facet normal 0.156435 -0.987688 0
    outer loop
      vertex 6.26666 -49.6057 0
      vertex 9.36907 -49.1144 0.299999
      vertex 6.26666 -49.6057 0.299999
    endloop
  endfacet
  facet normal 0.156435 -0.987688 0
    outer loop
      vertex 9.36907 -49.1144 0.299999
      vertex 6.26666 -49.6057 0
      vertex 9.36907 -49.1144 0
    endloop
  endfacet
  facet normal 0.218143 -0.975917 0
    outer loop
      vertex 9.36907 -49.1144 0
      vertex 12.4345 -48.4292 0.299999
      vertex 9.36907 -49.1144 0.299999
    endloop
  endfacet
  facet normal 0.218143 -0.975917 0
    outer loop
      vertex 12.4345 -48.4292 0.299999
      vertex 9.36907 -49.1144 0
      vertex 12.4345 -48.4292 0
    endloop
  endfacet
  facet normal 0.0989941 -0.442875 0.891102
    outer loop
      vertex 12.1858 -44.4606 2.3
      vertex 9.36907 -49.1144 0.299999
      vertex 12.4345 -48.4292 0.299999
    endloop
  endfacet
  facet normal -0.618741 -0.267753 0.738558
    outer loop
      vertex -45.559 -15.0381 2.3
      vertex -46.4888 -18.4062 0.299999
      vertex -45.2414 -21.289 0.299999
    endloop
  endfacet
  facet normal -0.575846 -0.293408 0.763095
    outer loop
      vertex -44.3365 -17.8632 2.3
      vertex -45.2414 -21.289 0.299999
      vertex -43.8153 -24.0877 0.299999
    endloop
  endfacet
  facet normal -0.87694 -0.0275589 0.479809
    outer loop
      vertex -49.4404 0 1.32273
      vertex -50 0 0.299999
      vertex -49.9013 -3.13953 0.299999
    endloop
  endfacet
  facet normal -0.707329 -0.205498 0.676354
    outer loop
      vertex -47.4606 -9.1858 2.3
      vertex -47.5528 -15.4508 0.299999
      vertex -46.6018 -12.1418 2.3
    endloop
  endfacet
  facet normal -0.534224 -0.315939 0.784084
    outer loop
      vertex -42.939 -20.6059 2.3
      vertex -43.8153 -24.0877 0.299999
      vertex -41.3721 -23.2555 2.3
    endloop
  endfacet
  facet normal -0.534224 -0.315939 0.784084
    outer loop
      vertex -41.3721 -23.2555 2.3
      vertex -43.8153 -24.0877 0.299999
      vertex -42.2164 -26.7913 0.299999
    endloop
  endfacet
  facet normal -0.87694 -0.0275522 0.479809
    outer loop
      vertex -49.4404 0 1.32273
      vertex -48.9033 -0.0767345 2.3
      vertex -48.9057 0 2.3
    endloop
  endfacet
  facet normal -0.87694 -0.0275588 0.479809
    outer loop
      vertex -48.9033 -0.0767345 2.3
      vertex -49.4404 0 1.32273
      vertex -49.9013 -3.13953 0.299999
    endloop
  endfacet
  facet normal -0.455145 -0.353045 0.817437
    outer loop
      vertex -39.6418 -25.8015 2.3
      vertex -40.4509 -29.3893 0.299999
      vertex -37.7551 -28.2338 2.3
    endloop
  endfacet
  facet normal -0.455144 -0.353046 0.817436
    outer loop
      vertex -37.7551 -28.2338 2.3
      vertex -40.4509 -29.3893 0.299999
      vertex -38.5257 -31.8712 0.299999
    endloop
  endfacet
  facet normal -0.838185 -0.0792315 0.5396
    outer loop
      vertex -48.9033 -0.0767345 2.3
      vertex -49.6057 -6.26666 0.299999
      vertex -48.6136 -3.14133 2.3
    endloop
  endfacet
  facet normal -0.575845 -0.293408 0.763096
    outer loop
      vertex -42.939 -20.6059 2.3
      vertex -44.3365 -17.8632 2.3
      vertex -43.8153 -24.0877 0.299999
    endloop
  endfacet
  facet normal -0.417682 -0.368236 0.830629
    outer loop
      vertex -37.7551 -28.2338 2.3
      vertex -38.5257 -31.8712 0.299999
      vertex -36.4484 -34.2274 0.299999
    endloop
  endfacet
  facet normal -0.796069 -0.126086 0.591926
    outer loop
      vertex -48.6136 -3.14133 2.3
      vertex -49.6057 -6.26666 0.299999
      vertex -48.1321 -6.18168 2.3
    endloop
  endfacet
  facet normal -0.493981 -0.33571 0.802048
    outer loop
      vertex -39.6418 -25.8015 2.3
      vertex -41.3721 -23.2555 2.3
      vertex -40.4509 -29.3893 0.299999
    endloop
  endfacet
  facet normal -0.38153 -0.38153 0.841944
    outer loop
      vertex -36.4484 -34.2274 0.299999
      vertex -33.5428 -32.7195 2.3
      vertex -35.7195 -30.5428 2.3
    endloop
  endfacet
  facet normal -0.38153 -0.38153 0.841944
    outer loop
      vertex -33.5428 -32.7195 2.3
      vertex -36.4484 -34.2274 0.299999
      vertex -34.2274 -36.4484 0.299999
    endloop
  endfacet
  facet normal -0.346604 -0.393145 0.851647
    outer loop
      vertex -33.5428 -32.7195 2.3
      vertex -34.2274 -36.4484 0.299999
      vertex -31.2338 -34.7551 2.3
    endloop
  endfacet
  facet normal 0 1 0
    outer loop
      vertex 50 0 0
      vertex 48.9057 0 2.3
      vertex 49.4404 0 1.32273
    endloop
  endfacet
  facet normal 0 1 0
    outer loop
      vertex 48.9057 0 2.3
      vertex 50 0 0
      vertex -48.9057 0 2.3
    endloop
  endfacet
  facet normal 0 1 -0
    outer loop
      vertex 50 0 0
      vertex 49.4404 0 1.32273
      vertex 50 0 0.299999
    endloop
  endfacet
  facet normal 0 1 0
    outer loop
      vertex -50 0 0
      vertex -48.9057 0 2.3
      vertex 50 0 0
    endloop
  endfacet
  facet normal 0 1 0
    outer loop
      vertex -48.9057 0 2.3
      vertex -50 0 0
      vertex -49.4404 0 1.32273
    endloop
  endfacet
  facet normal 0 1 0
    outer loop
      vertex -49.4404 0 1.32273
      vertex -50 0 0
      vertex -50 0 0.299999
    endloop
  endfacet
endsolid OpenSCAD_Model
